<?xml version="1.0" encoding="utf-8"?>
<!-- Generator: Adobe Illustrator 25.4.0, SVG Export Plug-In . SVG Version: 6.00 Build 0)  -->
<svg version="1.1" id="Layer_1" xmlns="http://www.w3.org/2000/svg" xmlns:xlink="http://www.w3.org/1999/xlink" x="0px" y="0px"
	 viewBox="0 0 100 100" style="enable-background:new 0 0 100 100;" width="100px" height="100px" xml:space="preserve">
<style type="text/css">
	.st0{fill:none;stroke:#23364E;stroke-width:4;stroke-linecap:round;stroke-linejoin:round;}
</style>
<g>
	<g>
		<path class="st0" d="M72.49,34.73c0.06,2.96-2.4,7.66-2.59,8.11c2.7-0.76,6.84-2.85,8.97-4.22c1.78-1.14,3.32-2.86,4.62-4.53
			c0.85-1.17,0.98-2.74,1.3-3.46c0.28-0.64,0.16-1.39-0.31-1.91c-2.72-3.04-5.7-4.73-7.89-5.65c-1.69-0.71-3.66-0.49-5.11,0.63
			c-2.91,1.65-3.4,1.83-6.38,1.96c-5.68,0.24-8.95,0.52-17.58,1.8c-11.66,1.72-20.83,2.32-23.2,2.21c-0.41-0.02-0.61,0.36-0.49,0.75
			c1.16,3.82,6.87,16.61,31.94,17.94c1.74,0.09,3.35,1.01,4.04,2.61c1.59,3.74,3.8,13.23,5.12,35.03
			c10.19-1.57,22.62-9.43,26.27-18.17c0,0-3.24-20.35-9.04-31.83"/>
	</g>
	<g>
		<path class="st0" d="M47.22,51.55c1.01,5.63,2,13.87,2.72,25.79c3.15-0.48,6.52-1.57,9.77-3.1"/>
		<path class="st0" d="M69.49,20.06c-2.72-3.04-5.7-4.73-7.89-5.65c-1.69-0.71-3.66-0.49-5.11,0.63c-2.91,1.65-3.4,1.83-6.38,1.96
			c-5.68,0.24-8.95,0.52-17.58,1.8c-11.66,1.72-20.83,2.32-23.2,2.21c-0.41-0.02-0.61,0.36-0.49,0.75
			c0.78,2.58,3.65,9.27,13.17,13.74"/>
	</g>
	<path class="st0" d="M52.76,31.94c3.61-2.1,6.31,0,6.31,0"/>
	<path class="st0" d="M37.78,23.28c3.61-2.1,6.31,0,6.31,0"/>
</g>
</svg>
