<?xml version="1.0" encoding="utf-8"?>
<!-- Generator: Adobe Illustrator 25.4.1, SVG Export Plug-In . SVG Version: 6.00 Build 0)  -->
<svg version="1.1" id="Layer_1" xmlns="http://www.w3.org/2000/svg" xmlns:xlink="http://www.w3.org/1999/xlink" x="0px" y="0px"
	 viewBox="0 0 120 120" style="enable-background:new 0 0 120 120;" xml:space="preserve">
<style type="text/css">
	.st0{fill:none;stroke:#23364E;stroke-width:4;stroke-linecap:round;stroke-linejoin:round;}
</style>
<g>
	<g>
		<path class="st0" d="M82.5,44.7c0.1,3-2.4,7.7-2.6,8.1c2.7-0.8,6.8-2.8,9-4.2c1.8-1.1,3.3-2.9,4.6-4.5c0.8-1.2,1-2.7,1.3-3.5
			c0.3-0.6,0.2-1.4-0.3-1.9c-2.7-3-5.7-4.7-7.9-5.7c-1.7-0.7-3.7-0.5-5.1,0.6c-2.9,1.6-3.4,1.8-6.4,2c-5.7,0.2-9,0.5-17.6,1.8
			c-11.7,1.7-20.8,2.3-23.2,2.2c-0.4,0-0.6,0.4-0.5,0.8C35,44.2,40.7,57,65.8,58.4c1.7,0.1,3.3,1,4,2.6c1.6,3.7,3.8,13.2,5.1,35
			c10.2-1.6,22.6-9.4,26.3-18.2c0,0-3.2-20.3-9-31.8"/>
	</g>
	<g>
		<path class="st0" d="M57.2,61.5c1,5.6,2,13.9,2.7,25.8c3.2-0.5,6.5-1.6,9.8-3.1"/>
		<path class="st0" d="M79.5,30.1c-2.7-3-5.7-4.7-7.9-5.6c-1.7-0.7-3.7-0.5-5.1,0.6c-2.9,1.7-3.4,1.8-6.4,2c-5.7,0.2-9,0.5-17.6,1.8
			c-11.7,1.7-20.8,2.3-23.2,2.2c-0.4,0-0.6,0.4-0.5,0.8c0.8,2.6,3.6,9.3,13.2,13.7"/>
	</g>
	<path class="st0" d="M62.8,41.9c3.6-2.1,6.3,0,6.3,0"/>
	<path class="st0" d="M47.8,33.3c3.6-2.1,6.3,0,6.3,0"/>
</g>
</svg>
