<?xml version="1.0" encoding="utf-8"?>
<!-- Generator: Adobe Illustrator 25.4.0, SVG Export Plug-In . SVG Version: 6.00 Build 0)  -->
<svg version="1.1" id="Layer_1" xmlns="http://www.w3.org/2000/svg" xmlns:xlink="http://www.w3.org/1999/xlink" x="0px" y="0px"
	 viewBox="0 0 100 100" style="enable-background:new 0 0 100 100;" xml:space="preserve">
<style type="text/css">
	.st0{fill:none;stroke:#23364E;stroke-width:4;stroke-linecap:round;stroke-linejoin:round;}
</style>
<g>
	<path class="st0" d="M30.82,68.1c-0.73-3.01-8.21-2.1-8.49,0.37c-0.48,4.34,7.4,3.33,7.54,6.62c0.19,4.55-5.6,5.06-5.6,5.36
		c0,0.31,3.48,1.59,3.36,5.04l-13.46-0.01c0,0-1.01-1.69-0.62-2.51c0.4-0.86,1.19-1.83,1.22-2.17s-1.83-2.17-2.58-4.11
		c-0.75-1.93-0.51-3.5-0.27-7.84c0.24-4.35,2.73-10.43,4.18-13.75c2.17-4.99,10.96-10.59,11.24-13.37c0.1-1-0.48-5.97-0.58-6.96
		c-0.1-0.98,0.81-4.41,0.85-4.76c0.03-0.35-2.78-1.86-2.14-3.29c0.64-1.43,4.28-2.44,5.8-0.92c5.23-0.78,8.11,2.92,8.25,3.36
		c0.14,0.44,5.57,1.53,5.74,2.72c0.08,0.59-2.99,3.09-2.99,3.09c-1.39,0.71-5.06-0.17-6.28,1.24c-1.22,1.41,0.92,5.31,1.09,6.19
		s0.44,4.45,0.44,5.57c0,1.12,2.02,2.21,2.24,4.99c0.34,4.31-3.17,6.44-4.18,8.96c-1.53,3.84,2.21,16.04,2.55,17.55
		c0.61,2.72,4.48,2.68,4.41,4.28c-0.03,0.72-0.24,1.71-1.09,1.74"/>
	<g>
		<path class="st0" d="M58.82,76.09h16.04l2.25-1.08c0.99-0.47,2.15-0.36,3.03,0.29l7.34,5.46c1.07,0.8,0.51,2.5-0.83,2.5h-31.1
			c-3.34,0-6.05-2.71-6.05-6.05V75c0-2.55,1.59-4.82,3.99-5.69l12.9-4.68l3.94-7.03"/>
		<path class="st0" d="M80.99,51.13l-4.85,5.15c-0.96,1.02-2.42,1.37-3.74,0.9l-12.26-4.36c-1.87-0.67-2.81-2.76-2.06-4.6v0
			c0.64-1.59,2.35-2.47,4.01-2.08l9.93,2.3l5.69-6.13c0.89-0.96,2.09-1.59,3.4-1.76l0.94-0.13"/>
		<line class="st0" x1="78.35" y1="41.36" x2="77.29" y2="34.42"/>
		<path class="st0" d="M67.06,24.37l3.52,6.81c1.57,3.04,5.43,4.05,8.29,2.17l1.58-1.04"/>
		<path class="st0" d="M71.43,22.01l-0.64,0.65c-1.52,1.55-3.87,1.94-5.82,0.98l-0.43-0.21c-3.01-1.5-4.72-4.76-4.24-8.09l0.06-0.38
			l1.45,0.9c1.91,1.19,4.27,1.41,6.37,0.59l3.49-1.36c2.46-1.07,5.32-0.61,7.31,1.19l0.51,0.46c1.68,1.52,2.93,3.45,3.63,5.6
			l0.46,1.43c0.83,2.56,1.25,5.22,1.25,7.91v0c0,2.17,0.28,4.34,0.82,6.44l0.69,2.66c0.26,1,0.46,2.02,0.59,3.04l1.18,9.04
			c0.17,1.32,0.24,2.64,0.21,3.97l-0.11,4.7c-0.13,5.5-2.48,10.71-6.52,14.43l0,0"/>
	</g>
	<path class="st0" d="M39.74,52.96c0,0,9.76,1.23,11.93,0.7c1.6-0.39,3.09-5.32,3.09-2.83"/>
</g>
</svg>
