<?xml version="1.0" encoding="utf-8"?>
<!-- Generator: Adobe Illustrator 25.4.1, SVG Export Plug-In . SVG Version: 6.00 Build 0)  -->
<svg version="1.1" id="Layer_1" xmlns="http://www.w3.org/2000/svg" xmlns:xlink="http://www.w3.org/1999/xlink" x="0px" y="0px"
	 viewBox="0 0 120 120" style="enable-background:new 0 0 120 120;" xml:space="preserve">
<style type="text/css">
	.st0{fill:none;stroke:#23364E;stroke-width:4;stroke-linecap:round;stroke-linejoin:round;}
</style>
<g>
	<path class="st0" d="M40.8,78.1c-0.7-3-8.2-2.1-8.5,0.4c-0.5,4.3,7.4,3.3,7.5,6.6c0.2,4.6-5.6,5.1-5.6,5.4c0,0.3,3.5,1.6,3.4,5
		l-13.5,0c0,0-1-1.7-0.6-2.5c0.4-0.9,1.2-1.8,1.2-2.2c0-0.3-1.8-2.2-2.6-4.1c-0.8-1.9-0.5-3.5-0.3-7.8c0.2-4.3,2.7-10.4,4.2-13.8
		c2.2-5,11-10.6,11.2-13.4c0.1-1-0.5-6-0.6-7c-0.1-1,0.8-4.4,0.9-4.8c0-0.3-2.8-1.9-2.1-3.3c0.6-1.4,4.3-2.4,5.8-0.9
		c5.2-0.8,8.1,2.9,8.2,3.4c0.1,0.4,5.6,1.5,5.7,2.7c0.1,0.6-3,3.1-3,3.1c-1.4,0.7-5.1-0.2-6.3,1.2c-1.2,1.4,0.9,5.3,1.1,6.2
		s0.4,4.5,0.4,5.6s2,2.2,2.2,5c0.3,4.3-3.2,6.4-4.2,9c-1.5,3.8,2.2,16,2.5,17.5c0.6,2.7,4.5,2.7,4.4,4.3c0,0.7-0.2,1.7-1.1,1.7"/>
	<g>
		<path class="st0" d="M68.8,86.1h16l2.2-1.1c1-0.5,2.2-0.4,3,0.3l7.3,5.5c1.1,0.8,0.5,2.5-0.8,2.5H65.5c-3.3,0-6-2.7-6-6.1V85
			c0-2.6,1.6-4.8,4-5.7l12.9-4.7l3.9-7"/>
		<path class="st0" d="M91,61.1l-4.8,5.1c-1,1-2.4,1.4-3.7,0.9l-12.3-4.4c-1.9-0.7-2.8-2.8-2.1-4.6l0,0c0.6-1.6,2.3-2.5,4-2.1
			l9.9,2.3l5.7-6.1c0.9-1,2.1-1.6,3.4-1.8l0.9-0.1"/>
		<line class="st0" x1="88.3" y1="51.4" x2="87.3" y2="44.4"/>
		<path class="st0" d="M77.1,34.4l3.5,6.8c1.6,3,5.4,4,8.3,2.2l1.6-1"/>
		<path class="st0" d="M81.4,32l-0.6,0.7c-1.5,1.5-3.9,1.9-5.8,1l-0.4-0.2c-3-1.5-4.7-4.8-4.2-8.1l0.1-0.4l1.5,0.9
			c1.9,1.2,4.3,1.4,6.4,0.6l3.5-1.4c2.5-1.1,5.3-0.6,7.3,1.2l0.5,0.5c1.7,1.5,2.9,3.5,3.6,5.6l0.5,1.4c0.8,2.6,1.2,5.2,1.2,7.9l0,0
			c0,2.2,0.3,4.3,0.8,6.4l0.7,2.7c0.3,1,0.5,2,0.6,3l1.2,9c0.2,1.3,0.2,2.6,0.2,4l-0.1,4.7C98.1,77,95.7,82.2,91.7,86l0,0"/>
	</g>
	<path class="st0" d="M49.7,63c0,0,9.8,1.2,11.9,0.7c1.6-0.4,3.1-5.3,3.1-2.8"/>
</g>
</svg>
