<?xml version="1.0" encoding="utf-8"?>
<!-- Generator: Adobe Illustrator 25.4.1, SVG Export Plug-In . SVG Version: 6.00 Build 0)  -->
<svg version="1.1" id="Layer_1" xmlns="http://www.w3.org/2000/svg" xmlns:xlink="http://www.w3.org/1999/xlink" x="0px" y="0px"
	 viewBox="0 0 120 120" style="enable-background:new 0 0 120 120;" xml:space="preserve">
<style type="text/css">
	.st0{fill:none;stroke:#23364E;stroke-width:4;stroke-linecap:round;stroke-linejoin:round;}
</style>
<g>
	<path class="st0" d="M44.8,26h-7.9c-1.4,0-2.5,1.3-2.3,2.7l2.6,18.8c1.2,8.3,8.2,14.4,16.6,14.4l0,0"/>
	<path class="st0" d="M62.7,26h7.9c1.4,0,2.5,1.3,2.3,2.7l-2.6,18.8c-1.2,8.3-8.2,14.4-16.6,14.4l0,0"/>
	<path class="st0" d="M53.8,61.8v20.5c0,7.6,6.2,13.8,13.8,13.8l0,0c7.6,0,13.8-6.2,13.8-13.8V66.2"/>
	<circle class="st0" cx="81.3" cy="62" r="4.2"/>
	<circle class="st0" cx="62.7" cy="26" r="2"/>
	<circle class="st0" cx="44.8" cy="26" r="2"/>
</g>
</svg>
