<?xml version="1.0" encoding="utf-8"?>
<!-- Generator: Adobe Illustrator 25.4.0, SVG Export Plug-In . SVG Version: 6.00 Build 0)  -->
<svg version="1.1" id="Layer_1" xmlns="http://www.w3.org/2000/svg" xmlns:xlink="http://www.w3.org/1999/xlink" x="0px" y="0px"
	 viewBox="0 0 100 100" style="enable-background:new 0 0 100 100;" xml:space="preserve">
<style type="text/css">
	.st0{fill:none;stroke:#23364E;stroke-width:4;stroke-linecap:round;stroke-linejoin:round;}
</style>
<g>
	<path class="st0" d="M34.81,15.96h-7.93c-1.43,0-2.53,1.27-2.33,2.68l2.64,18.75c1.16,8.26,8.22,14.39,16.56,14.39h0"/>
	<path class="st0" d="M52.69,15.96h7.93c1.43,0,2.53,1.27,2.33,2.68L60.31,37.4c-1.16,8.26-8.22,14.39-16.56,14.39h0"/>
	<path class="st0" d="M43.75,51.79v20.45c0,7.6,6.16,13.76,13.76,13.76h0c7.6,0,13.76-6.16,13.76-13.76V56.16"/>
	<circle class="st0" cx="71.26" cy="51.95" r="4.21"/>
	<circle class="st0" cx="52.69" cy="15.96" r="1.96"/>
	<circle class="st0" cx="34.81" cy="15.96" r="1.96"/>
</g>
</svg>
