<?xml version="1.0" encoding="utf-8"?>
<!-- Generator: Adobe Illustrator 25.2.1, SVG Export Plug-In . SVG Version: 6.00 Build 0)  -->
<svg version="1.1" xmlns="http://www.w3.org/2000/svg" xmlns:xlink="http://www.w3.org/1999/xlink" x="0px" y="0px"
	 viewBox="0 0 120 120" style="enable-background:new 0 0 120 120;" xml:space="preserve">
<style type="text/css">
	.st0{display:none;}
	.st1{display:inline;}
	.st2{clip-path:url(#SVGID_2_);}
	.st3{fill:#F9BE00;}
	.st4{clip-path:url(#SVGID_4_);}
	.st5{fill-rule:evenodd;clip-rule:evenodd;fill:#F9BE00;}
	.st6{clip-path:url(#SVGID_6_);}
	.st7{clip-path:url(#SVGID_8_);}
	.st8{clip-path:url(#SVGID_10_);}
	.st9{clip-path:url(#SVGID_12_);}
	.st10{fill:none;stroke:#F9BE00;stroke-width:4;stroke-linecap:round;stroke-linejoin:round;}
</style>
<g id="_x30_6_x5F_Transporting_x0A__x5F_Greyhounds" class="st0">
	<g id="Group_75" transform="translate(0 0)" class="st1">
		<g>
			<defs>
				<rect id="SVGID_1_" x="-0.32" y="22.78" width="120.57" height="73"/>
			</defs>
			<clipPath id="SVGID_2_">
				<use xlink:href="#SVGID_1_"  style="overflow:visible;"/>
			</clipPath>
			<g id="Group_46" class="st2">
				<path id="Path_165" class="st3" d="M104.89,65.07c-1.18,0-2.14,0.96-2.14,2.14v16.36h-8.96l-0.05-0.44
					c-0.7-6.25-6.33-10.75-12.57-10.05c-5.29,0.59-9.46,4.76-10.05,10.05l-0.05,0.44H35.65l-0.05-0.44
					c-0.7-6.25-6.33-10.75-12.57-10.05c-5.29,0.59-9.46,4.76-10.05,10.05l-0.05,0.44H3.96V56.79L23.7,49.4
					c0.44-0.16,0.82-0.45,1.08-0.84l13.9-21.49h66.22c1.18-0.03,2.12-1.01,2.1-2.19c-0.02-1.15-0.95-2.07-2.1-2.1H37.5
					c-0.73-0.01-1.42,0.36-1.81,0.97l-14.17,21.9L1.09,53.31c-0.83,0.32-1.39,1.12-1.41,2.01v30.39c0.06,1.16,0.98,2.09,2.14,2.14
					h11.62l0.12,0.33c2.08,5.92,8.56,9.03,14.49,6.95c3.25-1.14,5.81-3.7,6.95-6.95l0.12-0.33h36.47l0.12,0.33
					c2.08,5.92,8.57,9.03,14.49,6.95c3.25-1.14,5.81-3.7,6.95-6.95l0.12-0.33h11.63c1.16-0.06,2.08-0.98,2.14-2.14v-18.5
					C107.03,66.03,106.08,65.07,104.89,65.07 M24.29,91.5c-3.93,0-7.11-3.18-7.11-7.11s3.18-7.11,7.11-7.11s7.11,3.18,7.11,7.11l0,0
					c0.04,3.88-3.07,7.07-6.96,7.11C24.39,91.5,24.34,91.5,24.29,91.5 M82.43,91.5c-3.93,0-7.11-3.18-7.11-7.11
					c0-3.93,3.18-7.11,7.11-7.11c3.93,0,7.11,3.18,7.11,7.11c0,0,0,0,0,0c0.04,3.88-3.07,7.07-6.96,7.11
					C82.53,91.5,82.48,91.5,82.43,91.5"/>
				<path id="Path_166" class="st3" d="M115.46,43.93h-34.3c-1.18,0-2.14,0.96-2.14,2.14c0,1.18,0.96,2.14,2.14,2.14h34.3
					c1.18,0,2.14-0.96,2.14-2.14C117.61,44.89,116.65,43.93,115.46,43.93"/>
				<path id="Path_167" class="st3" d="M110.18,54.5H81.16c-1.18,0-2.14,0.96-2.14,2.14c0,1.18,0.96,2.14,2.14,2.14h29.02
					c1.18,0,2.14-0.96,2.14-2.14C112.32,55.46,111.37,54.5,110.18,54.5C110.18,54.5,110.18,54.5,110.18,54.5"/>
				<path id="Path_168" class="st3" d="M118.11,33.36H81.16c-1.18-0.03-2.16,0.91-2.19,2.1c-0.03,1.18,0.91,2.16,2.1,2.19
					c0.03,0,0.06,0,0.09,0h36.94c1.18,0.03,2.16-0.91,2.19-2.1s-0.91-2.16-2.1-2.19C118.17,33.36,118.14,33.36,118.11,33.36"/>
			</g>
		</g>
	</g>
</g>
<g id="_x30_5_x5F_Housing__x26___x0A_Environment">
	<g id="Group_69" transform="translate(0 0)">
		<g>
			<defs>
				<rect id="SVGID_3_" x="14.94" y="24.85" width="88.26" height="73"/>
			</defs>
			<clipPath id="SVGID_4_">
				<use xlink:href="#SVGID_3_"  style="overflow:visible;"/>
			</clipPath>
			<g id="Group_40" class="st4">
				<path id="Path_119" class="st5" d="M20.65,94.01c-0.92,0.02-1.66,0.79-1.63,1.72c0.02,0.89,0.74,1.61,1.63,1.63h80.38
					c0.92-0.02,1.66-0.79,1.63-1.72c-0.02-0.89-0.74-1.61-1.63-1.63H78.42V69.59l4.39-4.39c0.64-0.67,0.62-1.73-0.04-2.37
					c-0.65-0.63-1.68-0.63-2.32,0l-2.02,2.02V53.83c-0.02-0.92-0.79-1.66-1.72-1.63c-0.89,0.02-1.61,0.74-1.63,1.63V59l-2.86-2.86
					c-0.64-0.67-1.7-0.68-2.37-0.04c-0.67,0.64-0.68,1.7-0.04,2.37c0.01,0.01,0.03,0.03,0.04,0.04l5.22,5.23v30.28H20.65z"/>
				<path id="Path_120" class="st3" d="M101.02,97.85H20.65c-1.2-0.03-2.15-1.02-2.13-2.22c0.02-1.16,0.96-2.1,2.13-2.13h53.92
					V63.94l-5.08-5.08c-0.85-0.85-0.85-2.22,0-3.07c0.85-0.85,2.22-0.85,3.07,0c0,0,0,0,0,0l2,2.01v-3.96
					c0.03-1.2,1.02-2.15,2.22-2.13c1.16,0.02,2.1,0.96,2.13,2.13v9.83l1.17-1.17c0.41-0.41,0.96-0.64,1.54-0.64l0,0
					c1.2,0,2.17,0.98,2.17,2.18c0,0.57-0.23,1.12-0.63,1.53l-4.24,4.24v23.71h22.11c1.2,0.03,2.15,1.02,2.13,2.22
					C103.13,96.9,102.19,97.83,101.02,97.85 M20.65,94.51c-0.65,0.02-1.16,0.56-1.14,1.21c0.02,0.62,0.52,1.12,1.14,1.14h80.38
					c0.65-0.02,1.16-0.56,1.14-1.21c-0.02-0.62-0.52-1.12-1.14-1.14H77.92V69.39l4.54-4.54c0.46-0.46,0.45-1.21-0.01-1.66
					c-0.22-0.22-0.51-0.34-0.82-0.34l0,0c-0.31,0-0.61,0.12-0.83,0.35l-2.88,2.88V53.83c-0.02-0.65-0.56-1.16-1.21-1.14
					c-0.62,0.02-1.12,0.52-1.14,1.14v6.38l-3.71-3.71c-0.46-0.46-1.2-0.46-1.66,0s-0.46,1.2,0,1.66l5.37,5.37v30.98H20.65z"/>
				<path id="Path_121" class="st5" d="M62.64,71.27c2.39,1.62,5.05,2.82,7.85,3.54c0.89,0.23,1.81-0.31,2.04-1.2
					c0.23-0.89-0.31-1.81-1.2-2.04c-11.65-2.98-18.68-14.85-15.7-26.5c2.98-11.65,14.85-18.68,26.5-15.7s18.68,14.85,15.7,26.5
					c-2.02,7.88-8.26,13.98-16.19,15.82c-0.9,0.21-1.46,1.11-1.25,2.01c0.21,0.9,1.11,1.46,2.01,1.25l0,0
					c13.51-3.12,21.94-16.61,18.82-30.12S84.6,22.89,71.09,26.01S49.15,42.62,52.27,56.13C53.7,62.31,57.4,67.71,62.64,71.27"/>
				<path id="Path_122" class="st3" d="M82.02,75.5c-1.2,0.01-2.18-0.96-2.19-2.16c-0.01-1.02,0.7-1.91,1.69-2.13
					c11.41-2.65,18.51-14.05,15.86-25.46c-2.65-11.41-14.05-18.51-25.46-15.86S53.41,43.93,56.06,55.34
					c1.79,7.71,7.72,13.78,15.38,15.74c1.17,0.28,1.89,1.45,1.61,2.62c-0.28,1.17-1.45,1.89-2.62,1.61
					c-0.02-0.01-0.05-0.01-0.07-0.02c-13.71-3.52-21.97-17.48-18.45-31.19C55.43,30.4,69.39,22.14,83.1,25.66
					s21.97,17.48,18.45,31.19c-2.38,9.27-9.72,16.44-19.05,18.59C82.34,75.48,82.18,75.5,82.02,75.5 M76.74,28.21
					c12.3,0,22.27,9.97,22.27,22.27c0,10.37-7.16,19.36-17.26,21.69c-0.63,0.15-1.03,0.78-0.88,1.41c0.15,0.63,0.78,1.03,1.41,0.88
					c13.23-3.06,21.47-16.27,18.41-29.5s-16.27-21.47-29.5-18.41s-21.47,16.27-18.41,29.5c2.07,8.94,8.95,15.98,17.83,18.27
					c0.63,0.16,1.27-0.22,1.43-0.84c0.16-0.63-0.22-1.27-0.85-1.43c-11.91-3.06-19.09-15.21-16.02-27.12
					C57.71,35.09,66.58,28.21,76.74,28.21"/>
				<path id="Path_123" class="st3" d="M58.67,78.04l-12.7-8.11c-0.31-0.2-0.72-0.2-1.03-0.01l-13.15,8.11
					c-0.45,0.29-0.58,0.89-0.29,1.34c0.28,0.44,0.86,0.57,1.31,0.31l1.43-0.88v15.21h1.94V77.6l9.26-5.71l8.83,5.64v16.48h1.94
					V78.77l1.42,0.91c0.44,0.3,1.05,0.18,1.35-0.26c0.3-0.44,0.18-1.05-0.26-1.35C58.7,78.06,58.68,78.05,58.67,78.04"/>
				<path id="Path_124" class="st3" d="M57.21,95.01h-3.94V78.08l-7.84-5.01l-8.25,5.09v16.85h-3.94V80.59
					c-0.92,0.47-2.05,0.17-2.61-0.7c-0.57-0.93-0.29-2.14,0.64-2.71c0,0,0,0,0,0l13.15-8.11c0.64-0.4,1.46-0.39,2.09,0.02l12.7,8.11
					c0.92,0.58,1.19,1.8,0.6,2.72c-0.56,0.87-1.69,1.17-2.6,0.67L57.21,95.01z M58.16,78.83L58.16,78.83l0.51-0.79L58.16,78.83z"/>
				<path id="Path_125" class="st3" d="M51.23,94.01h-4V85.9c0-1.11-0.9-2.01-2.01-2.01s-2.01,0.9-2.01,2.01c0,0,0,0,0,0v8.11h-4
					V85.9c0-3.32,2.69-6.01,6.01-6.01c3.32,0,6.01,2.69,6.01,6.01V94.01z"/>
				<path id="Path_126" class="st3" d="M30.48,55.21c-3.58,0-6.49-2.91-6.49-6.49s2.91-6.49,6.49-6.49s6.49,2.91,6.49,6.49l0,0
					C36.97,52.31,34.07,55.21,30.48,55.21 M30.48,40.26c-4.73,0-8.56,3.83-8.56,8.56c0,4.73,3.83,8.56,8.56,8.56
					c4.73,0,8.56-3.83,8.56-8.56C39.03,44.1,35.21,40.27,30.48,40.26"/>
				<path id="Path_127" class="st3" d="M30.48,57.88c-5,0-9.06-4.06-9.06-9.06c0-5,4.06-9.06,9.06-9.06s9.06,4.06,9.06,9.06
					C39.54,53.82,35.49,57.88,30.48,57.88 M30.48,40.76c-4.45,0-8.06,3.61-8.06,8.06s3.61,8.06,8.06,8.06
					c4.45,0,8.06-3.61,8.06-8.06C38.54,44.37,34.94,40.76,30.48,40.76 M30.48,55.71c-3.86,0-6.99-3.13-6.99-6.99
					s3.13-6.99,6.99-6.99s6.99,3.13,6.99,6.99C37.47,52.58,34.34,55.7,30.48,55.71 M30.48,42.73c-3.31,0-5.99,2.68-5.99,5.99
					s2.68,5.99,5.99,5.99s5.99-2.68,5.99-5.99c0,0,0,0,0,0C36.47,45.41,33.79,42.74,30.48,42.73"/>
				<path id="Path_128" class="st3" d="M29.45,60.67v2.07c0.02,0.57,0.49,1.02,1.07,1c0.55-0.02,0.98-0.46,1-1v-2.07
					c0-0.57-0.46-1.03-1.03-1.03c-0.54-0.03-1.01,0.39-1.03,0.94C29.45,60.61,29.45,60.64,29.45,60.67"/>
				<path id="Path_129" class="st3" d="M30.48,64.27c-0.85,0-1.53-0.69-1.53-1.53v-2.07c-0.03-0.82,0.61-1.5,1.43-1.53
					c0.03,0,0.07,0,0.1,0c0.85,0,1.53,0.69,1.53,1.53v2.07C32.02,63.59,31.33,64.27,30.48,64.27 M30.48,60.14
					c-0.28-0.02-0.51,0.19-0.53,0.46c0,0.02,0,0.05,0,0.07v2.07c-0.01,0.29,0.22,0.54,0.51,0.56c0.29,0.01,0.54-0.22,0.56-0.51
					c0-0.02,0-0.03,0-0.05v-2.07C31.01,60.38,30.78,60.14,30.48,60.14"/>
				<path id="Path_130" class="st3" d="M34.62,58.79c-0.55,0.23-0.8,0.86-0.57,1.41c0,0,0,0,0,0l0.84,1.98
					c0.17,0.37,0.53,0.62,0.94,0.66c0.13,0.01,0.26-0.02,0.38-0.09c0.55-0.23,0.8-0.86,0.57-1.41c0,0,0,0,0,0l-0.85-1.98
					c-0.15-0.49-0.67-0.77-1.16-0.63C34.72,58.74,34.67,58.76,34.62,58.79"/>
				<path id="Path_131" class="st3" d="M35.84,63.33c-0.6-0.03-1.13-0.39-1.39-0.93l-0.86-2c-0.14-0.39-0.15-0.82-0.01-1.21
					c0.14-0.39,0.44-0.7,0.83-0.85c0.34-0.18,0.74-0.2,1.1-0.07c0.42,0.16,0.76,0.5,0.9,0.93l0.83,1.94
					c0.33,0.78-0.02,1.69-0.78,2.05C36.28,63.3,36.06,63.35,35.84,63.33 M35.03,59.18c-0.05,0-0.1,0.01-0.15,0.04l-0.1,0.05
					c-0.12,0.04-0.22,0.14-0.25,0.26c-0.06,0.17-0.06,0.35,0,0.52l0.83,1.94c0.11,0.22,0.35,0.36,0.6,0.35l0.08-0.08l0.02,0.02
					c0.29-0.1,0.35-0.47,0.25-0.78l-0.83-1.94c-0.04-0.16-0.16-0.29-0.31-0.35C35.12,59.19,35.08,59.18,35.03,59.18"/>
				<path id="Path_132" class="st3" d="M39.61,59.45c0.43,0.37,1.07,0.37,1.51,0c0.38-0.43,0.38-1.07,0-1.51l-1.51-1.51
					c-0.4-0.43-1.08-0.45-1.51-0.04c-0.43,0.4-0.45,1.08-0.04,1.51c0.01,0.01,0.03,0.03,0.04,0.04L39.61,59.45z"/>
				<path id="Path_133" class="st3" d="M40.36,60.23c-0.41,0.01-0.81-0.14-1.11-0.43l-1.51-1.5c-0.6-0.63-0.57-1.62,0.05-2.21
					c0.6-0.58,1.55-0.58,2.16,0l1.51,1.51c0.61,0.59,0.63,1.56,0.05,2.17C41.22,60.08,40.8,60.25,40.36,60.23 M38.86,56.65
					c-0.15-0.01-0.29,0.04-0.4,0.14c-0.18,0.23-0.18,0.57,0,0.8l1.5,1.51c0.24,0.17,0.56,0.17,0.8,0c0.18-0.24,0.18-0.56,0-0.8
					l-1.51-1.51C39.14,56.69,39,56.65,38.86,56.65"/>
				<path id="Path_134" class="st3" d="M43.37,55.21c0.42-0.01,0.79-0.27,0.94-0.66c0.22-0.55-0.03-1.16-0.56-1.41l-1.98-0.85
					c-0.55-0.23-1.18,0.02-1.41,0.57c-0.23,0.55,0.02,1.18,0.57,1.41l1.97,0.84C43.05,55.19,43.21,55.22,43.37,55.21"/>
				<path id="Path_135" class="st3" d="M43.37,55.71c-0.24,0.01-0.47-0.04-0.69-0.14l-1.95-0.83c-0.79-0.35-1.15-1.28-0.8-2.08
					c0.34-0.76,1.22-1.13,2-0.83l2.01,0.86c0.77,0.35,1.14,1.24,0.84,2.03C44.57,55.31,44.01,55.71,43.37,55.71 M41.36,52.73
					c-0.24,0-0.46,0.14-0.55,0.36c-0.09,0.3,0.05,0.62,0.34,0.74l1.95,0.83c0.09,0.04,0.18,0.06,0.27,0.05
					c0.19-0.01,0.36-0.11,0.46-0.28c0.15-0.31,0.01-0.69-0.3-0.84l-1.95-0.83C41.51,52.74,41.44,52.73,41.36,52.73"/>
				<path id="Path_136" class="st3" d="M41.3,48.82c0,0.57,0.47,1.03,1.04,1.03h2.07c0.57,0,1.03-0.46,1.03-1.03
					c0-0.57-0.46-1.03-1.03-1.03l0,0h-2.07c-0.54-0.03-1.01,0.39-1.03,0.94C41.3,48.76,41.3,48.79,41.3,48.82"/>
				<path id="Path_137" class="st3" d="M44.4,50.35h-2.07c-0.85,0-1.53-0.69-1.53-1.53c0-0.47,0.21-0.92,0.57-1.23
					c0.29-0.25,0.67-0.36,1.05-0.3l1.99-0.01c0.85,0,1.53,0.69,1.53,1.53C45.94,49.67,45.26,50.35,44.4,50.35 M42.24,48.28
					c-0.08,0-0.16,0.02-0.22,0.08c-0.13,0.12-0.21,0.29-0.21,0.46c0,0.29,0.24,0.53,0.53,0.53h2.07c0.29,0,0.53-0.24,0.53-0.53
					c0-0.29-0.24-0.53-0.53-0.53h-2.07C42.3,48.28,42.27,48.28,42.24,48.28"/>
				<path id="Path_138" class="st3" d="M40.46,44.68c0.17,0.37,0.53,0.62,0.94,0.66c0.13,0.01,0.26-0.02,0.38-0.09l1.98-0.84
					c0.54-0.25,0.78-0.88,0.53-1.42c-0.24-0.52-0.85-0.77-1.38-0.55l-1.88,0.84c-0.54,0.21-0.8,0.81-0.6,1.34
					C40.43,44.63,40.44,44.66,40.46,44.68"/>
				<path id="Path_139" class="st3" d="M41.4,45.84c-0.6-0.03-1.13-0.39-1.39-0.93l0,0c-0.37-0.76-0.05-1.68,0.72-2.05
					c0.02-0.01,0.05-0.02,0.07-0.03l1.9-0.85c0.8-0.34,1.73,0.03,2.07,0.83c0.01,0.01,0.01,0.02,0.02,0.04
					c0.32,0.8-0.06,1.71-0.86,2.04c-0.01,0-0.01,0.01-0.02,0.01l-1.88,0.8C41.84,45.79,41.62,45.85,41.4,45.84 M40.9,44.46
					c0.11,0.24,0.35,0.38,0.61,0.37l2.04-0.89c0.29-0.14,0.42-0.49,0.29-0.78c-0.1-0.29-0.47-0.35-0.78-0.25l-1.84,0.82
					C41.15,43.77,40.69,44.03,40.9,44.46"/>
				<path id="Path_140" class="st3" d="M38.86,41.48c0.28,0.01,0.55-0.09,0.75-0.28l1.51-1.51c0.43-0.4,0.45-1.08,0.04-1.51
					c-0.4-0.43-1.08-0.45-1.51-0.04c-0.01,0.01-0.03,0.03-0.04,0.04L38.1,39.7c-0.38,0.43-0.38,1.07,0,1.51
					C38.31,41.39,38.58,41.49,38.86,41.48"/>
				<path id="Path_141" class="st3" d="M38.86,41.98c-0.86-0.02-1.55-0.73-1.53-1.59c0.01-0.39,0.16-0.76,0.43-1.05l1.51-1.51
					c0.63-0.57,1.58-0.57,2.21,0c0.57,0.63,0.57,1.59,0,2.22l-1.51,1.5C39.67,41.84,39.27,41.99,38.86,41.98 M40.36,38.41
					c-0.15-0.01-0.29,0.04-0.4,0.14l-1.51,1.51c-0.18,0.24-0.18,0.56,0,0.8c0.24,0.17,0.56,0.17,0.8,0l1.51-1.51
					c0.18-0.24,0.18-0.56,0-0.8C40.65,38.45,40.51,38.4,40.36,38.41"/>
				<path id="Path_142" class="st3" d="M34.62,38.85c0.11,0.07,0.24,0.11,0.38,0.09c0.42-0.01,0.79-0.27,0.94-0.66l0.85-1.97
					c0.22-0.55-0.05-1.18-0.61-1.39c-0.53-0.21-1.13,0.03-1.37,0.55l-0.84,1.98C33.79,38.01,34.07,38.62,34.62,38.85"/>
				<path id="Path_143" class="st3" d="M35,39.44c-0.23,0.01-0.46-0.05-0.66-0.17c-0.74-0.36-1.1-1.2-0.85-1.99l0.86-2.01
					c0.34-0.8,1.27-1.17,2.07-0.83c0.78,0.34,1.16,1.23,0.84,2.03l-0.86,2.01C36.18,39.06,35.62,39.44,35,39.44 M34.92,38.44
					c0.03,0,0.06,0,0.08,0c0.19-0.01,0.36-0.11,0.46-0.28l0.87-2.05c0.13-0.29,0-0.63-0.29-0.76c-0.29-0.13-0.63,0-0.76,0.29
					c-0.01,0.02-0.01,0.03-0.02,0.05l-0.83,1.95c-0.07,0.33,0.11,0.65,0.42,0.77L34.92,38.44z"/>
				<path id="Path_144" class="st3" d="M30.48,38c0.57,0,1.03-0.46,1.03-1.03V34.9c0.02-0.57-0.43-1.05-1-1.07
					c-0.57-0.02-1.05,0.43-1.07,1c0,0.02,0,0.04,0,0.06v2.07C29.46,37.54,29.92,38,30.48,38"/>
				<path id="Path_145" class="st3" d="M30.48,38.5c-0.85,0-1.53-0.69-1.53-1.53V34.9c0.02-0.85,0.73-1.52,1.57-1.49
					c0.82,0.02,1.47,0.68,1.49,1.49v2.07C32.02,37.81,31.33,38.5,30.48,38.5 M30.48,34.36c-0.29,0-0.53,0.24-0.53,0.53v2.07
					c-0.01,0.29,0.22,0.54,0.51,0.56c0.29,0.01,0.54-0.22,0.56-0.51c0-0.02,0-0.03,0-0.05V34.9C31.01,34.6,30.78,34.37,30.48,34.36"
					/>
				<path id="Path_146" class="st3" d="M24.94,38.29c0.17,0.37,0.53,0.62,0.94,0.66c0.13,0.01,0.27-0.02,0.38-0.09
					c0.55-0.23,0.8-0.86,0.57-1.41c0,0,0,0,0,0l-0.84-1.97c-0.23-0.55-0.85-0.81-1.4-0.59c-0.55,0.23-0.81,0.85-0.59,1.4
					c0,0.01,0.01,0.02,0.01,0.03L24.94,38.29z"/>
				<path id="Path_147" class="st3" d="M25.88,39.44c-0.6-0.03-1.13-0.39-1.39-0.93l-0.94-1.98c-0.37-0.79-0.03-1.72,0.76-2.09
					c0.79-0.37,1.72-0.03,2.09,0.76c0.02,0.04,0.03,0.08,0.05,0.12l0.83,1.94c0.33,0.78-0.02,1.69-0.78,2.05
					C26.31,39.4,26.09,39.45,25.88,39.44 M25.38,38.07c0.11,0.24,0.35,0.38,0.61,0.37l0.08-0.08l0.02,0.02
					c0.29-0.1,0.35-0.47,0.25-0.78l-0.83-1.94c-0.14-0.3-0.49-0.43-0.78-0.29c0,0-0.01,0-0.01,0c-0.28,0.09-0.35,0.47-0.25,0.78
					L25.38,38.07z"/>
				<path id="Path_148" class="st3" d="M21.36,41.2c0.2,0.19,0.48,0.29,0.75,0.28c0.28,0.01,0.55-0.09,0.75-0.28
					c0.38-0.43,0.38-1.07,0-1.51l-1.51-1.51c-0.43-0.38-1.07-0.38-1.51,0c-0.38,0.43-0.38,1.07,0,1.51L21.36,41.2z"/>
				<path id="Path_149" class="st3" d="M22.11,41.98c-0.41,0.01-0.81-0.15-1.11-0.43l-1.51-1.51c-0.57-0.63-0.57-1.59,0-2.21
					c0.3-0.28,0.69-0.43,1.1-0.43l0,0c0.41-0.01,0.81,0.15,1.11,0.43l1.51,1.51c0.57,0.63,0.57,1.58,0,2.21
					C22.92,41.84,22.52,41.99,22.11,41.98 M21.71,40.85c0.24,0.17,0.56,0.17,0.8,0c0.18-0.24,0.18-0.56,0-0.8l-1.5-1.51
					c-0.11-0.09-0.25-0.14-0.4-0.13l0,0c-0.15-0.01-0.29,0.04-0.4,0.13c-0.18,0.24-0.18,0.56,0,0.8L21.71,40.85z"/>
				<path id="Path_150" class="st3" d="M17.13,44.4l1.98,0.85c0.11,0.07,0.24,0.11,0.38,0.09c0.42-0.01,0.79-0.27,0.94-0.66
					c0.21-0.55-0.03-1.16-0.56-1.41l-1.98-0.84c-0.55-0.22-1.17,0.03-1.41,0.57C16.36,43.55,16.63,44.12,17.13,44.4"/>
				<path id="Path_151" class="st3" d="M19.48,45.84c-0.22,0.01-0.44-0.04-0.63-0.16l-1.91-0.82c-0.71-0.37-1.1-1.16-0.96-1.95
					l0.04-0.14c0.36-0.75,1.23-1.11,2.01-0.82l2.01,0.86c0.77,0.35,1.14,1.23,0.84,2.03C20.68,45.43,20.11,45.83,19.48,45.84
					 M19.4,44.84c0.03,0,0.06,0,0.08,0c0.19-0.01,0.37-0.11,0.46-0.28c0.15-0.31,0.01-0.69-0.3-0.84l-1.95-0.83
					c-0.27-0.1-0.58,0.01-0.73,0.26c-0.04,0.31,0.1,0.61,0.36,0.79h0.01L19.4,44.84z"/>
				<path id="Path_152" class="st3" d="M16.47,49.85h2.07c0.57,0,1.03-0.46,1.03-1.03c0-0.57-0.46-1.03-1.03-1.03l0,0h-2.07
					c-0.57,0-1.03,0.46-1.03,1.03C15.44,49.39,15.9,49.85,16.47,49.85"/>
				<path id="Path_153" class="st3" d="M18.54,50.35h-2.07c-0.41,0-0.8-0.16-1.09-0.46c-0.29-0.29-0.45-0.68-0.44-1.08
					c0-0.85,0.69-1.53,1.53-1.53h2.07c0.85,0,1.53,0.69,1.53,1.53S19.38,50.35,18.54,50.35 M16.47,48.29
					c-0.29,0-0.53,0.24-0.53,0.53c0,0.14,0.05,0.27,0.15,0.37c0.1,0.1,0.24,0.16,0.38,0.16h2.07c0.29,0,0.53-0.24,0.53-0.53
					s-0.24-0.53-0.53-0.53L16.47,48.29z"/>
				<path id="Path_154" class="st3" d="M20.51,52.96c-0.23-0.55-0.86-0.8-1.41-0.57c0,0,0,0,0,0l-1.98,0.84
					c-0.55,0.23-0.8,0.86-0.57,1.41c0,0,0,0,0,0c0.17,0.37,0.53,0.63,0.94,0.66c0.13,0.01,0.27-0.02,0.38-0.09l1.98-0.85
					C20.42,54.16,20.72,53.53,20.51,52.96L20.51,52.96z"/>
				<path id="Path_155" class="st3" d="M17.51,55.81c-0.6-0.03-1.13-0.39-1.39-0.93c-0.15-0.4-0.16-0.84-0.02-1.24
					c0.14-0.41,0.47-0.73,0.88-0.87l1.94-0.83c0.39-0.14,0.82-0.14,1.21-0.01c0.4,0.14,0.72,0.46,0.86,0.86
					c0.3,0.82-0.11,1.73-0.93,2.04l-1.92,0.83C17.95,55.77,17.73,55.82,17.51,55.81 M19.54,52.82c-0.09,0-0.19,0.02-0.27,0.05
					l-1.94,0.83c-0.14,0.04-0.25,0.14-0.29,0.27c-0.06,0.17-0.05,0.35,0,0.52c0.12,0.2,0.35,0.32,0.58,0.31l2.04-0.89
					c0.32-0.1,0.49-0.45,0.39-0.76l-0.01-0.03C20,53,19.9,52.9,19.78,52.86C19.7,52.84,19.62,52.82,19.54,52.82"/>
				<path id="Path_156" class="st3" d="M20.61,59.73c0.28,0.01,0.55-0.09,0.75-0.28l1.51-1.51c0.38-0.43,0.38-1.08,0-1.51
					c-0.43-0.38-1.07-0.38-1.51,0l-1.51,1.51c-0.38,0.43-0.38,1.07,0,1.51C20.06,59.64,20.33,59.74,20.61,59.73"/>
				<path id="Path_157" class="st3" d="M20.61,60.23c-0.41,0.01-0.81-0.14-1.11-0.43c-0.57-0.63-0.57-1.58,0-2.21l1.51-1.51
					c0.64-0.55,1.58-0.55,2.21,0c0.57,0.63,0.57,1.59,0,2.21l-1.5,1.51C21.42,60.08,21.03,60.24,20.61,60.23 M22.12,56.65
					c-0.15-0.01-0.29,0.04-0.4,0.14l-1.51,1.51c-0.18,0.24-0.18,0.56,0,0.8c0.24,0.17,0.56,0.17,0.8,0l1.51-1.51
					c0.18-0.24,0.18-0.56,0-0.8C22.4,56.7,22.26,56.65,22.12,56.65"/>
				<path id="Path_158" class="st3" d="M24.94,59.35l-0.84,1.97c-0.21,0.55,0.03,1.16,0.56,1.41c0.11,0.07,0.24,0.11,0.38,0.09
					c0.42-0.01,0.79-0.27,0.94-0.66l0.84-1.97c0.22-0.55-0.03-1.16-0.56-1.41c-0.48-0.22-1.05-0.02-1.28,0.47
					C24.96,59.29,24.95,59.32,24.94,59.35"/>
				<path id="Path_159" class="st3" d="M25.04,63.33c-0.23,0.01-0.46-0.05-0.66-0.17c-0.72-0.38-1.05-1.23-0.76-1.99l0.87-2.04
					c0.2-0.43,0.56-0.75,1.01-0.9c0.34-0.1,0.71-0.06,1.01,0.12c0.74,0.37,1.08,1.23,0.78,2l-0.86,2.02
					C26.21,62.95,25.66,63.33,25.04,63.33 M24.96,62.33c0.03,0,0.06,0,0.08,0c0.19-0.01,0.36-0.11,0.46-0.28L26.36,60
					c0.11-0.3-0.03-0.64-0.33-0.77c-0.07-0.05-0.17-0.07-0.25-0.04c-0.17,0.07-0.31,0.2-0.39,0.37l-0.84,1.96
					c-0.11,0.3,0.03,0.64,0.33,0.77L24.96,62.33z"/>
			</g>
		</g>
	</g>
</g>
<g id="_x30_4_x5F_Greyhound_x0A_Breeding" class="st0">
	<g id="Group_72" transform="translate(0 0)" class="st1">
		<g>
			<defs>
				<rect id="SVGID_5_" x="20.06" y="24.95" width="79.86" height="70.09"/>
			</defs>
			<clipPath id="SVGID_6_">
				<use xlink:href="#SVGID_5_"  style="overflow:visible;"/>
			</clipPath>
			<g id="Group_52" transform="translate(0 0)" class="st6">
				<path id="Path_172" class="st3" d="M81.85,82.71c-0.55,4.21-3.55,7.12-8.02,7.79c-2.03,0.29-4.09,0.02-5.98-0.77
					c-0.65-0.27-1.3-0.62-1.98-0.99c-1.51-0.92-3.17-1.56-4.9-1.89c-0.23-0.07-0.47-0.11-0.71-0.1c-0.05,0-0.09,0.01-0.13,0.01
					c-0.04,0-0.08-0.01-0.13-0.01c-0.23,0-0.47,0.03-0.69,0.1c-1.74,0.33-3.41,0.97-4.92,1.9c-0.68,0.37-1.33,0.71-1.98,0.99
					c-1.89,0.79-3.95,1.05-5.98,0.77c-4.47-0.67-7.46-3.58-8.02-7.79c-0.6-4.86,2.08-9.52,6.57-11.46c3.78-1.64,6.32-7.21,7.24-9.52
					c1.96-4.94,4.33-7.1,7.91-7.19c3.58,0.09,5.96,2.25,7.91,7.19c0.92,2.32,3.46,7.88,7.24,9.52
					C79.77,73.2,82.44,77.86,81.85,82.71 M77.05,67.19c-1.47-0.64-3.48-3.56-4.88-7.09c-0.94-2.38-3.75-9.41-11.35-9.94
					c-0.15-0.03-0.31-0.05-0.47-0.05c-0.08,0-0.15,0.01-0.22,0.01s-0.15-0.01-0.22-0.01c-0.16,0-0.32,0.02-0.47,0.05
					c-7.6,0.53-10.41,7.57-11.35,9.94c-1.4,3.53-3.4,6.45-4.88,7.09c-6.3,2.73-10.05,9.29-9.2,16.1
					c0.81,6.18,5.32,10.62,11.76,11.59c0.75,0.11,1.51,0.17,2.27,0.17c2.09,0,4.16-0.42,6.09-1.23c0.85-0.36,1.62-0.77,2.37-1.17
					c1.11-0.7,2.35-1.19,3.64-1.43c1.29,0.24,2.53,0.73,3.64,1.43c0.74,0.4,1.51,0.82,2.37,1.17c1.93,0.81,4,1.23,6.09,1.23
					c0.76,0,1.52-0.06,2.27-0.17c6.44-0.96,10.94-5.4,11.76-11.59C87.1,76.48,83.35,69.92,77.05,67.19"/>
				<path id="Path_173" class="st3" d="M35.11,62.47c-0.7,1.39-2.01,2.38-3.55,2.69c-3.1,0.5-6.28-2.65-6.94-6.78
					c-0.36-2.02-0.03-4.1,0.94-5.91c0.7-1.39,2.01-2.38,3.55-2.69c0.22-0.03,0.45-0.05,0.67-0.05c2.9,0,5.66,3,6.27,6.83
					C36.42,58.58,36.09,60.66,35.11,62.47 M38.98,64.65c1.47-2.68,1.98-5.78,1.46-8.79c-0.96-6.02-5.54-10.57-10.65-10.57
					c-0.46,0-0.92,0.04-1.37,0.11c-2.87,0.5-5.35,2.3-6.71,4.88c-1.47,2.68-1.98,5.78-1.46,8.79c0.96,6.02,5.54,10.56,10.65,10.56
					c0.46,0,0.92-0.04,1.37-0.11C35.14,69.03,37.61,67.23,38.98,64.65"/>
				<path id="Path_174" class="st3" d="M47.01,29.38c3.19,0,5.78,3.49,5.78,7.79s-2.59,7.79-5.78,7.79c-3.19,0-5.78-3.49-5.78-7.79
					S43.83,29.38,47.01,29.38 M47.01,49.38c5.64,0,10.22-5.48,10.22-12.21s-4.58-12.21-10.22-12.21S36.8,30.43,36.8,37.16
					S41.38,49.38,47.01,49.38"/>
				<path id="Path_175" class="st3" d="M95.2,58.82c-0.87,3.61-3.65,6.33-6.45,6.33c-0.34,0-0.67-0.04-1-0.12
					c-1.5-0.42-2.73-1.51-3.32-2.96c-0.82-1.88-0.99-3.98-0.47-5.97c0.88-3.61,3.65-6.33,6.45-6.33c0.34,0,0.67,0.04,1,0.12
					c1.5,0.42,2.73,1.51,3.32,2.96C95.56,54.73,95.72,56.84,95.2,58.82 M92.45,45.6c-0.67-0.16-1.35-0.24-2.04-0.24
					c-4.87,0-9.4,4.09-10.76,9.72c-0.76,2.96-0.49,6.09,0.76,8.88c1.15,2.67,3.48,4.66,6.3,5.38c0.67,0.16,1.36,0.24,2.04,0.24l0,0
					c4.87,0,9.4-4.09,10.76-9.72c0.76-2.96,0.49-6.09-0.76-8.88C97.6,48.31,95.28,46.32,92.45,45.6"/>
				<path id="Path_176" class="st3" d="M72.91,29.38c3.19,0,5.78,3.49,5.78,7.79s-2.59,7.79-5.78,7.79c-3.19,0-5.78-3.49-5.78-7.79
					S69.72,29.38,72.91,29.38 M72.91,49.38c5.64,0,10.22-5.48,10.22-12.21s-4.58-12.21-10.22-12.21c-5.63,0-10.22,5.48-10.22,12.21
					S67.27,49.38,72.91,49.38"/>
			</g>
		</g>
	</g>
</g>
<g id="_x30_3_x5F_Health__x26__x0A_Wellbeing" class="st0">
	<g id="Group_70" transform="translate(0 0)" class="st1">
		<g>
			<defs>
				<rect id="SVGID_7_" x="19.27" y="23.78" width="83.34" height="72.2"/>
			</defs>
			<clipPath id="SVGID_8_">
				<use xlink:href="#SVGID_7_"  style="overflow:visible;"/>
			</clipPath>
			<g id="Group_42" class="st7">
				<path id="Path_160" class="st3" d="M91.63,45.9l-4.22,4.22c0.58,4.43-0.93,8.88-4.09,12.04c-4.58,4.63-9.17,9.26-13.76,13.9
					c-4.46,4.51-8.91,9.01-13.37,13.5l-0.27,0.27l-27.4-27.7c-5.64-5.6-5.67-14.72-0.07-20.36c0.02-0.02,0.05-0.05,0.07-0.07
					c5.43-5.58,14.36-5.7,19.94-0.26c0.09,0.09,0.18,0.17,0.26,0.26l5.4,5.49c1.02,0.98,2.62,0.98,3.64,0l5.37-5.43
					c3.74-3.85,9.35-5.23,14.45-3.56l3.92-3.9c-7.4-3.53-16.22-1.99-21.97,3.85l-3.59,3.59l-3.59-3.62
					c-7.51-7.57-19.73-7.62-27.3-0.11c-0.04,0.04-0.07,0.07-0.11,0.11c-7.53,7.66-7.53,19.94,0,27.6l29.17,29.54
					c1.02,0.98,2.62,0.98,3.64,0l29.2-29.48C92.07,60.53,93.88,52.88,91.63,45.9"/>
				<path id="Path_161" class="st3" d="M100.24,23.78c-0.7,0-1.36,0.31-1.82,0.83L57.58,65.36c-0.88,0.88-2.31,0.89-3.2,0
					c0,0,0,0,0,0L40.72,51.7c-0.97-0.97-2.55-0.97-3.52,0c-0.97,0.97-0.97,2.55,0,3.52l13.65,13.65c1.34,1.36,3.17,2.13,5.08,2.14
					c1.93,0.02,3.78-0.77,5.1-2.17l40.84-40.84c0.47-0.47,0.73-1.11,0.73-1.77c0-0.65-0.25-1.26-0.7-1.73
					C101.48,24.05,100.88,23.77,100.24,23.78"/>
			</g>
		</g>
	</g>
</g>
<g id="_x30_2_x5F_Nutrition__x26__x0A_Hydration" class="st0">
	<g id="Group_74" transform="translate(0 0)" class="st1">
		<g>
			<defs>
				<rect id="SVGID_9_" x="21.64" y="23" width="76.4" height="74"/>
			</defs>
			<clipPath id="SVGID_10_">
				<use xlink:href="#SVGID_9_"  style="overflow:visible;"/>
			</clipPath>
			<g id="Group_44" class="st8">
				<path id="Path_162" class="st3" d="M82.01,97H28.57c-3.83,0-6.93-3.11-6.92-6.94c0-0.88,0.17-1.75,0.49-2.56l6.51-16.3
					c1.05-2.64,3.6-4.36,6.43-4.35h40.4c2.84-0.01,5.39,1.72,6.44,4.35l6.52,16.3c1.42,3.55-0.31,7.59-3.86,9.01
					C83.76,96.83,82.89,97,82.01,97 M35.09,70.85c-1.2,0-2.28,0.73-2.72,1.84l-6.52,16.3c-0.6,1.5,0.13,3.21,1.64,3.81
					C27.83,92.93,28.2,93,28.57,93h53.44c1.62,0,2.93-1.31,2.93-2.93c0-0.37-0.07-0.74-0.21-1.09l-6.52-16.3
					c-0.44-1.12-1.52-1.85-2.72-1.84L35.09,70.85z"/>
				<path id="Path_163" class="st3" d="M63.14,81.31h-15.7c-1.1,0-2-0.9-2-2s0.9-2,2-2h15.7c1.1,0,2,0.9,2,2
					S64.25,81.31,63.14,81.31"/>
				<path id="Path_164" class="st3" d="M79.65,27c3.61,0,6.54,2.93,6.54,6.54c0.01,0.51-0.06,1.03-0.21,1.52
					c0.46-0.14,0.94-0.21,1.43-0.21h0.08c2.75-0.05,5.22,1.65,6.15,4.24c1.26,3.4-0.48,7.18-3.89,8.43
					c-0.72,0.27-1.49,0.4-2.26,0.41c-1.84,0.01-3.59-0.77-4.81-2.15L70.26,58.2c-0.12,0.12-0.28,0.19-0.45,0.19H56.74
					c-0.35,0-0.63-0.28-0.63-0.63c0-0.17,0.07-0.33,0.18-0.45l18.96-18.96c-1.67-1.49-2.45-3.75-2.05-5.95
					c0.46-2.64,2.48-4.72,5.11-5.26C78.76,27.05,79.2,27,79.65,27 M79.65,23c-0.71,0-1.42,0.07-2.11,0.21
					c-5.71,1.17-9.39,6.74-8.22,12.45c0.16,0.77,0.4,1.52,0.73,2.24L53.47,54.48c-1.81,1.81-1.81,4.74,0,6.55
					c0.87,0.87,2.04,1.36,3.27,1.36h13.08c1.23,0,2.41-0.49,3.27-1.36l10.05-10.05c5.31,2.4,11.57,0.05,13.97-5.27
					c1.13-2.5,1.25-5.35,0.31-7.93c-1.19-3.37-4.03-5.89-7.51-6.66C88.78,26.36,84.54,23,79.65,23"/>
			</g>
		</g>
	</g>
</g>
<g id="_x30_1_x5F_Introduction" class="st0">
	<g class="st1">
		<defs>
			<rect id="SVGID_11_" x="11.99" y="23.97" width="96.01" height="72.06"/>
		</defs>
		<clipPath id="SVGID_12_">
			<use xlink:href="#SVGID_11_"  style="overflow:visible;"/>
		</clipPath>
		<g id="Group_54" transform="translate(0 0)" class="st9">
			<path id="Path_177" class="st10" d="M13.48,94.55c0.09-15.74,12.93-28.43,28.68-28.34C57.76,66.3,70.4,78.94,70.49,94.55"/>
			<path id="Path_178" class="st10" d="M60.47,47.56c0,10.21-8.27,18.48-18.48,18.48S23.5,57.77,23.5,47.56s8.27-18.48,18.48-18.48
				c0,0,0,0,0,0C52.19,29.08,60.47,37.35,60.47,47.56z"/>
			<path id="Path_179" class="st10" d="M61.62,32.84v-7.38h44.9v45.63H89.39L77.28,85.85l1.33-14.62H66.65"/>
			<line id="Line_3" class="st10" x1="96.33" y1="54.55" x2="71.67" y2="54.55"/>
			<line id="Line_4" class="st10" x1="96.33" y1="41.99" x2="71.67" y2="41.99"/>
		</g>
	</g>
</g>
</svg>
