<?xml version="1.0" encoding="utf-8"?>
<!-- Generator: Adobe Illustrator 25.4.0, SVG Export Plug-In . SVG Version: 6.00 Build 0)  -->
<svg version="1.1" id="Layer_1" xmlns="http://www.w3.org/2000/svg" xmlns:xlink="http://www.w3.org/1999/xlink" x="0px" y="0px"
	 viewBox="0 0 100 100" style="enable-background:new 0 0 100 100;" xml:space="preserve">
<style type="text/css">
	.st0{fill:none;stroke:#23364E;stroke-width:4;stroke-linecap:round;stroke-linejoin:round;}
</style>
<g>
	<path class="st0" d="M50.8,70.78H30.02c-11.48,0-20.78-9.3-20.78-20.78v0c0-11.48,9.3-20.78,20.78-20.78h0
		c11.48,0,20.78,9.3,20.78,20.78V70.78z"/>
	<polyline class="st0" points="50.8,70.78 90.76,70.78 90.76,55.29 	"/>
	<line class="st0" x1="70.78" y1="65" x2="70.78" y2="70.78"/>
	<line class="st0" x1="84.1" y1="65" x2="84.1" y2="70.78"/>
	<line class="st0" x1="57.46" y1="65" x2="57.46" y2="70.78"/>
	<line class="st0" x1="77.44" y1="68" x2="77.44" y2="70.78"/>
	<line class="st0" x1="64.12" y1="68" x2="64.12" y2="70.78"/>
	<path class="st0" d="M90.76,60.26c-0.71-0.12-39.96,0-39.96,0"/>
	<circle class="st0" cx="30.02" cy="50" r="9.14"/>
</g>
</svg>
