<?xml version="1.0" encoding="utf-8"?>
<!-- Generator: Adobe Illustrator 25.4.1, SVG Export Plug-In . SVG Version: 6.00 Build 0)  -->
<svg version="1.1" id="Layer_1" xmlns="http://www.w3.org/2000/svg" xmlns:xlink="http://www.w3.org/1999/xlink" x="0px" y="0px"
	 viewBox="0 0 120 120" style="enable-background:new 0 0 120 120;" xml:space="preserve">
<style type="text/css">
	.st0{fill:none;stroke:#23364E;stroke-width:4;stroke-linecap:round;stroke-linejoin:round;}
</style>
<g>
	<path class="st0" d="M60.8,80.8H40c-11.5,0-20.8-9.3-20.8-20.8l0,0c0-11.5,9.3-20.8,20.8-20.8l0,0c11.5,0,20.8,9.3,20.8,20.8
		C60.8,60,60.8,80.8,60.8,80.8z"/>
	<polyline class="st0" points="60.8,80.8 100.8,80.8 100.8,65.3 	"/>
	<line class="st0" x1="80.8" y1="75" x2="80.8" y2="80.8"/>
	<line class="st0" x1="94.1" y1="75" x2="94.1" y2="80.8"/>
	<line class="st0" x1="67.5" y1="75" x2="67.5" y2="80.8"/>
	<line class="st0" x1="87.4" y1="78" x2="87.4" y2="80.8"/>
	<line class="st0" x1="74.1" y1="78" x2="74.1" y2="80.8"/>
	<path class="st0" d="M100.8,70.3c-0.7-0.1-40,0-40,0"/>
	<circle class="st0" cx="40" cy="60" r="9.1"/>
</g>
</svg>
