<?xml version="1.0" encoding="utf-8"?>
<!-- Generator: Adobe Illustrator 25.4.1, SVG Export Plug-In . SVG Version: 6.00 Build 0)  -->
<svg version="1.1" id="Layer_1" xmlns="http://www.w3.org/2000/svg" xmlns:xlink="http://www.w3.org/1999/xlink" x="0px" y="0px"
	 viewBox="0 0 120 120" style="enable-background:new 0 0 120 120;" xml:space="preserve">
<style type="text/css">
	.st0{fill:none;stroke:#23364E;stroke-width:4;stroke-linecap:round;stroke-miterlimit:10;}
</style>
<g>
	<path class="st0" d="M60,43.8c4.4,0,7-2.2,12.2-2.5c8.3-0.4,18.6,5.5,18.6,21.6C90.8,84.6,77.9,96,72.2,96c-6.7,0-7-2.9-12.2-2.9
		S54.5,96,47.8,96c-5.7,0-18.6-11.4-18.6-33.1c0-16.1,10.3-22,18.6-21.6C53,41.5,55.6,43.8,60,43.8"/>
	<path class="st0" d="M60,43.8c0,0-1.3-8.9,3.5-14.3S77.1,24,77.1,24s1.3,8.9-3.4,14.3c-1.1,1.3-2.4,2.2-3.8,3"/>
	<path class="st0" d="M60,36.5c-0.4-2.4-1.2-5-2.9-7.2c-1.7-2.1-4.1-3.5-6.4-4.4"/>
	<path class="st0" d="M60,43.8"/>
</g>
</svg>
