<?xml version="1.0" encoding="utf-8"?>
<!-- Generator: Adobe Illustrator 25.4.0, SVG Export Plug-In . SVG Version: 6.00 Build 0)  -->
<svg version="1.1" id="Layer_1" xmlns="http://www.w3.org/2000/svg" xmlns:xlink="http://www.w3.org/1999/xlink" x="0px" y="0px"
	 viewBox="0 0 100 100" style="enable-background:new 0 0 100 100;" xml:space="preserve">
<style type="text/css">
	.st0{fill:none;stroke:#23364E;stroke-width:4;stroke-linecap:round;stroke-miterlimit:10;}
</style>
<g>
	<path class="st0" d="M50,33.75c4.43,0,7.03-2.22,12.18-2.49c8.34-0.44,18.62,5.52,18.62,21.6C80.8,74.6,67.9,86,62.18,86
		c-6.73,0-6.99-2.88-12.18-2.88S44.54,86,37.82,86C32.1,86,19.2,74.6,19.2,52.86c0-16.08,10.27-22.04,18.62-21.6
		C42.97,31.52,45.57,33.75,50,33.75"/>
	<path class="st0" d="M50,33.75c0,0-1.28-8.86,3.45-14.31S67.14,14,67.14,14s1.28,8.86-3.45,14.31c-1.1,1.27-2.43,2.24-3.82,2.99"/>
	<path class="st0" d="M50.03,26.51c-0.36-2.42-1.19-5.04-2.92-7.2c-1.72-2.15-4.1-3.53-6.37-4.41"/>
	<path class="st0" d="M50,33.75"/>
</g>
</svg>
