<?xml version="1.0" encoding="utf-8"?>
<!-- Generator: Adobe Illustrator 25.4.0, SVG Export Plug-In . SVG Version: 6.00 Build 0)  -->
<svg version="1.1" id="Layer_1" xmlns="http://www.w3.org/2000/svg" xmlns:xlink="http://www.w3.org/1999/xlink" x="0px" y="0px"
	 viewBox="0 0 100 100" style="enable-background:new 0 0 100 100;" xml:space="preserve">
<style type="text/css">
	.st0{fill:none;stroke:#23364E;stroke-width:4;stroke-linecap:round;stroke-linejoin:round;}
	.st1{fill-rule:evenodd;clip-rule:evenodd;fill:none;stroke:#23364E;stroke-width:4;stroke-linecap:round;stroke-linejoin:round;}
	.st2{fill:none;stroke:#23364E;stroke-width:4;stroke-linecap:round;stroke-miterlimit:10;}
	.st3{fill:none;stroke:#23364E;stroke-width:4;stroke-linecap:round;stroke-linejoin:round;stroke-miterlimit:10;}
	.st4{fill:none;stroke:#23364E;stroke-width:4;stroke-linecap:round;stroke-linejoin:round;stroke-dasharray:0.1,7;}
	.st5{fill:none;stroke:#23364E;stroke-width:4;stroke-linecap:round;stroke-linejoin:round;stroke-dasharray:0.1046,7.325;}
</style>
<g>
	<path class="st1" d="M7.79,66.5c1.81-0.3,2.96-0.68,3.76-1.07c0.61-0.3,1.01-0.61,1.33-0.91c0.95-0.88,4.65-4.33,6.02-5.79
		c3.84-2.28,14.01,0.72,17.95-7.31c2.06-0.48,7.46,1.99,9.63,3.1c4.33,2.22,12.29,4.96,16.74,3.24c0.82-0.32,4.13-2.21,4.7-2.64
		c0.1,0.02,0.19,0.04,0.29,0.07 M95.89,58.8c-3.06-0.28-3.9-0.31-6.73-1.3l-0.59-0.21c-4.94-1.73-5.86-3.14-10.62-4.77
		c-1-0.34-3.05-0.86-4.74-1.37c-1.61-0.49-3.14-1.58-2.59-3.07c0.8-2.15,2.45-4.75,3.75-5.75c2.32-1.29,8.36-0.26,10.45-2.28
		c1.23-1.19,2.91-0.65,2.31-2.56c-2.24-1.24-5.84-1.1-7.15-2.48c-2.76-2.9-7.21-0.74-7.21-0.74c-1.88-0.08-4.34,0.53-4.43,0.61
		c-0.11,0.3,0.32,0.35,0.64,0.39c0.8,0.11,3.08,0.98,2.26,1.88c-1.36,1.51-5.15,4.37-7.01,5.67c-3.14,2.2-6.64,3.61-8.76,3.56
		c-8.09-0.21-10.81-3.95-17.34-4.94c-1.75-0.27-3.82-0.11-6.85,0.78c-6.72,1.98-13.39,7.49-19.75,7.93
		c-2.53,0.17-5.02-0.46-7.44-2.44"/>
</g>
</svg>
