<?xml version="1.0" encoding="utf-8"?>
<!-- Generator: Adobe Illustrator 25.4.1, SVG Export Plug-In . SVG Version: 6.00 Build 0)  -->
<svg version="1.1" id="Layer_1" xmlns="http://www.w3.org/2000/svg" xmlns:xlink="http://www.w3.org/1999/xlink" x="0px" y="0px"
	 viewBox="0 0 120 120" style="enable-background:new 0 0 120 120;" xml:space="preserve">
<style type="text/css">
	.st0{fill:none;stroke:#23364E;stroke-width:4;stroke-linecap:round;stroke-linejoin:round;}
</style>
<g>
	<path class="st0" d="M17.8,76.5c1.8-0.3,3-0.7,3.8-1.1c0.6-0.3,1-0.6,1.3-0.9c0.9-0.9,4.6-4.3,6-5.8c3.8-2.3,14,0.7,17.9-7.3
		c2.1-0.5,7.5,2,9.6,3.1c4.3,2.2,12.3,5,16.7,3.2c0.8-0.3,4.1-2.2,4.7-2.6c0.1,0,0.2,0,0.3,0.1 M105.9,68.8
		c-3.1-0.3-3.9-0.3-6.7-1.3l-0.6-0.2c-4.9-1.7-5.9-3.1-10.6-4.8c-1-0.3-3.1-0.9-4.7-1.4c-1.6-0.5-3.1-1.6-2.6-3.1
		c0.8-2.2,2.4-4.8,3.8-5.8c2.3-1.3,8.4-0.3,10.4-2.3c1.2-1.2,2.9-0.7,2.3-2.6c-2.2-1.2-5.8-1.1-7.2-2.5c-2.8-2.9-7.2-0.7-7.2-0.7
		c-1.9-0.1-4.3,0.5-4.4,0.6c-0.1,0.3,0.3,0.3,0.6,0.4c0.8,0.1,3.1,1,2.3,1.9c-1.4,1.5-5.2,4.4-7,5.7c-3.1,2.2-6.6,3.6-8.8,3.6
		c-8.1-0.2-10.8-4-17.3-4.9c-1.8-0.3-3.8-0.1-6.9,0.8c-6.7,2-13.4,7.5-19.7,7.9c-2.5,0.2-5-0.5-7.4-2.4"/>
</g>
</svg>
