<?xml version="1.0" encoding="utf-8"?>
<!-- Generator: Adobe Illustrator 25.2.1, SVG Export Plug-In . SVG Version: 6.00 Build 0)  -->
<svg version="1.1" xmlns="http://www.w3.org/2000/svg" xmlns:xlink="http://www.w3.org/1999/xlink" x="0px" y="0px"
	 viewBox="0 0 120 120" style="enable-background:new 0 0 120 120;" xml:space="preserve">
<style type="text/css">
	.st0{clip-path:url(#SVGID_2_);}
	.st1{fill:#F9BE00;}
</style>
<g id="Layer_1">
</g>
<g id="Group_67">
	<g>
		<defs>
			<rect id="SVGID_1_" x="30.76" y="35.02" width="59.65" height="49.96"/>
		</defs>
		<clipPath id="SVGID_2_">
			<use xlink:href="#SVGID_1_"  style="overflow:visible;"/>
		</clipPath>
		<g id="Group_50" class="st0">
			<path id="Path_171" class="st1" d="M49.05,46.41h9.85v10.55l-3.75-3.07c-0.68-0.55-1.65-0.55-2.33,0l-3.75,3.07L49.05,46.41z
				 M30.76,75.43c0,5.28,4.28,9.55,9.55,9.55h48.26c1.01,0,1.84-0.82,1.84-1.84c0-1.01-0.82-1.84-1.84-1.84c0,0,0,0,0,0H40.31
				c-3.25,0.04-5.91-2.55-5.95-5.8c-0.04-3.25,2.55-5.91,5.8-5.95c0.05,0,0.1,0,0.15,0h48.26c1.01,0,1.84-0.82,1.84-1.84
				c0-1.01-0.82-1.84-1.84-1.84c0,0,0,0,0,0H40.31c-3.25,0.04-5.91-2.55-5.95-5.8c-0.04-3.25,2.55-5.91,5.8-5.95
				c0.05,0,0.1,0,0.15,0h5.06v6.72c0.01,1.02,0.83,1.83,1.85,1.83c0.42,0,0.83-0.15,1.15-0.41l5.59-4.57l5.58,4.57l0,0
				c0.77,0.66,1.92,0.58,2.59-0.19c0.29-0.34,0.45-0.78,0.45-1.23v-6.72h26c1.01,0,1.84-0.82,1.84-1.84c0-1.01-0.82-1.84-1.84-1.84
				h-26v-5.88c0-1.01-0.82-1.83-1.83-1.84c0,0-0.01,0-0.01,0H47.21c-1.01,0-1.84,0.82-1.84,1.84v5.88h-5.06
				c-3.25,0-5.88-2.63-5.88-5.88c0-3.25,2.63-5.88,5.88-5.88h48.26c1.01,0.02,1.86-0.78,1.88-1.79c0.02-1.01-0.78-1.86-1.79-1.88
				c-0.03,0-0.06,0-0.09,0H40.31c-5.27,0.02-9.54,4.31-9.52,9.58c0.01,3.04,1.47,5.89,3.92,7.68c-4.26,3.11-5.19,9.08-2.08,13.34
				c0.58,0.8,1.29,1.5,2.08,2.08C32.24,69.51,30.77,72.37,30.76,75.43L30.76,75.43z"/>
		</g>
	</g>
</g>
</svg>
