<?xml version="1.0" encoding="utf-8"?>
<!-- Generator: Adobe Illustrator 25.4.0, SVG Export Plug-In . SVG Version: 6.00 Build 0)  -->
<svg version="1.1" id="Layer_1" xmlns="http://www.w3.org/2000/svg" xmlns:xlink="http://www.w3.org/1999/xlink" x="0px" y="0px"
	 viewBox="0 0 100 100" style="enable-background:new 0 0 100 100;" xml:space="preserve">
<style type="text/css">
	.st0{fill:none;stroke:#23364E;stroke-width:4;stroke-linecap:round;stroke-linejoin:round;}
	.st1{fill-rule:evenodd;clip-rule:evenodd;fill:none;stroke:#23364E;stroke-width:4;stroke-linecap:round;stroke-linejoin:round;}
	.st2{fill:none;stroke:#23364E;stroke-width:4;stroke-linecap:round;stroke-miterlimit:10;}
	.st3{fill:none;stroke:#23364E;stroke-width:4;stroke-linecap:round;stroke-linejoin:round;stroke-miterlimit:10;}
	.st4{fill:none;stroke:#23364E;stroke-width:4;stroke-linecap:round;stroke-linejoin:round;stroke-dasharray:0.1,7;}
	.st5{fill:none;stroke:#23364E;stroke-width:4;stroke-linecap:round;stroke-linejoin:round;stroke-dasharray:0.1046,7.325;}
</style>
<g>
	<circle class="st0" cx="45.25" cy="72.51" r="3.88"/>
	<path class="st0" d="M37.76,21.49c0-4.14,3.36-7.49,7.49-7.49s7.49,3.36,7.49,7.49"/>
	<line class="st0" x1="37.76" y1="61.29" x2="37.76" y2="21.49"/>
	<line class="st0" x1="52.75" y1="61.29" x2="52.75" y2="21.49"/>
	<line class="st0" x1="45.25" y1="34.18" x2="45.25" y2="72.86"/>
	<line class="st0" x1="59.29" y1="53.61" x2="68.24" y2="53.61"/>
	<line class="st0" x1="59.29" y1="43.89" x2="68.24" y2="43.89"/>
	<line class="st0" x1="59.29" y1="34.18" x2="68.24" y2="34.18"/>
	<line class="st0" x1="59.29" y1="24.46" x2="68.24" y2="24.46"/>
	<path class="st0" d="M52.9,61.4c3.53,2.43,5.84,6.5,5.84,11.11C58.74,79.96,52.7,86,45.25,86s-13.49-6.04-13.49-13.49
		c0-4.75,2.46-8.93,6.17-11.33"/>
</g>
</svg>
