<?xml version="1.0" encoding="utf-8"?>
<!-- Generator: Adobe Illustrator 25.4.1, SVG Export Plug-In . SVG Version: 6.00 Build 0)  -->
<svg version="1.1" id="Layer_1" xmlns="http://www.w3.org/2000/svg" xmlns:xlink="http://www.w3.org/1999/xlink" x="0px" y="0px"
	 viewBox="0 0 120 120" style="enable-background:new 0 0 120 120;" xml:space="preserve">
<style type="text/css">
	.st0{fill:none;stroke:#23364E;stroke-width:4;stroke-linecap:round;stroke-linejoin:round;}
</style>
<g>
	<circle class="st0" cx="55.2" cy="82.5" r="3.9"/>
	<path class="st0" d="M47.8,31.5c0-4.1,3.4-7.5,7.5-7.5s7.5,3.4,7.5,7.5"/>
	<line class="st0" x1="47.8" y1="71.3" x2="47.8" y2="31.5"/>
	<line class="st0" x1="62.8" y1="71.3" x2="62.8" y2="31.5"/>
	<line class="st0" x1="55.2" y1="44.2" x2="55.2" y2="82.9"/>
	<line class="st0" x1="69.3" y1="63.6" x2="78.2" y2="63.6"/>
	<line class="st0" x1="69.3" y1="53.9" x2="78.2" y2="53.9"/>
	<line class="st0" x1="69.3" y1="44.2" x2="78.2" y2="44.2"/>
	<line class="st0" x1="69.3" y1="34.5" x2="78.2" y2="34.5"/>
	<path class="st0" d="M62.9,71.4c3.5,2.4,5.8,6.5,5.8,11.1c0,7.4-6,13.5-13.5,13.5s-13.5-6-13.5-13.5c0-4.8,2.5-8.9,6.2-11.3"/>
</g>
</svg>
