<?xml version="1.0" encoding="utf-8"?>
<!-- Generator: Adobe Illustrator 25.4.1, SVG Export Plug-In . SVG Version: 6.00 Build 0)  -->
<svg version="1.1" id="Layer_1" xmlns="http://www.w3.org/2000/svg" xmlns:xlink="http://www.w3.org/1999/xlink" x="0px" y="0px"
	 viewBox="0 0 120 120" style="enable-background:new 0 0 120 120;" xml:space="preserve">
<style type="text/css">
	.st0{fill:none;stroke:#23364E;stroke-width:4;stroke-linecap:round;stroke-linejoin:round;}
</style>
<g>
	<path class="st0" d="M60,77.5c-15.2,0-25.9-2.6-30.3-4c-1.4-0.4-2.5-1.6-2.8-3.1l-3.8-20l12,3.7c1.2,0.3,2.1,1.2,2.5,2.3l3.1,8.4
		c0.5,1.5,1.9,2.5,3.5,2.5c0,0,9.6,0.5,15.9,0.5s15.9-0.5,15.9-0.5c1.6,0,2.9-1,3.5-2.5l3.1-8.4c0.4-1.1,1.3-2,2.5-2.3l12-3.7
		l-3.8,20c-0.3,1.5-1.4,2.7-2.8,3.1C85.9,74.9,75.2,77.5,60,77.5z"/>
	<path class="st0" d="M23.1,50.4c-1.8-7.9,29.5-7.9,36.9-7.9s38.7,0,36.9,7.9"/>
	<path class="st0" d="M30.4,52.7c4.4-2.8,22.9-3.5,29.6-3.5s25.2,0.7,29.6,3.5"/>
</g>
<g>
	<path class="st0" d="M48.7,55.8c2.8-0.1,5.7,1,7.8,3.1"/>
	<path class="st0" d="M63.5,58.9c2.1-2.1,4.8-3.1,7.5-3.1"/>
</g>
</svg>
