<?xml version="1.0" encoding="utf-8"?>
<!-- Generator: Adobe Illustrator 25.4.0, SVG Export Plug-In . SVG Version: 6.00 Build 0)  -->
<svg version="1.1" id="Layer_1" xmlns="http://www.w3.org/2000/svg" xmlns:xlink="http://www.w3.org/1999/xlink" x="0px" y="0px"
	 viewBox="0 0 100 100" style="enable-background:new 0 0 100 100;" xml:space="preserve">
<style type="text/css">
	.st0{fill:none;stroke:#F9BE00;stroke-width:4;stroke-linecap:round;stroke-linejoin:round;}
	.st1{fill-rule:evenodd;clip-rule:evenodd;fill:none;stroke:#F9BE00;stroke-width:4;stroke-linecap:round;stroke-linejoin:round;}
	.st2{fill:none;stroke:#F9BE00;stroke-width:4;stroke-linecap:round;stroke-miterlimit:10;}
	.st3{fill:none;stroke:#F9BE00;stroke-width:4;stroke-linecap:round;stroke-linejoin:round;stroke-miterlimit:10;}
	.st4{fill:none;stroke:#F9BE00;stroke-width:4;stroke-linecap:round;stroke-linejoin:round;stroke-dasharray:0.1,7;}
	.st5{fill:none;stroke:#F9BE00;stroke-width:4;stroke-linecap:round;stroke-linejoin:round;stroke-dasharray:0.1046,7.325;}
</style>
<g>
	<path class="st0" d="M50,67.5c-15.2,0-25.86-2.62-30.33-3.96c-1.44-0.43-2.52-1.63-2.8-3.1l-3.8-20l12.03,3.68
		c1.15,0.35,2.06,1.22,2.48,2.35l3.07,8.39c0.54,1.47,1.91,2.46,3.47,2.51c0,0,9.62,0.54,15.88,0.54s15.88-0.54,15.88-0.54
		c1.56-0.05,2.93-1.05,3.47-2.51l3.07-8.39c0.41-1.13,1.33-1.99,2.48-2.35l12.03-3.68l-3.8,20c-0.28,1.48-1.36,2.67-2.8,3.1
		C75.86,64.89,65.2,67.5,50,67.5z"/>
	<path class="st0" d="M13.08,40.43C11.26,32.5,42.57,32.5,50,32.5s38.74,0,36.92,7.93"/>
	<path class="st0" d="M20.37,42.67c4.44-2.82,22.9-3.51,29.63-3.51s25.19,0.69,29.63,3.51"/>
</g>
<g>
	<path class="st0" d="M38.71,45.75c2.83-0.09,5.69,0.95,7.85,3.11"/>
	<path class="st0" d="M53.49,48.86c2.07-2.07,4.79-3.11,7.51-3.11"/>
</g>
</svg>
