<?xml version="1.0" encoding="utf-8"?>
<!-- Generator: Adobe Illustrator 25.4.0, SVG Export Plug-In . SVG Version: 6.00 Build 0)  -->
<svg version="1.1" id="Layer_1" xmlns="http://www.w3.org/2000/svg" xmlns:xlink="http://www.w3.org/1999/xlink" x="0px" y="0px"
	 viewBox="0 0 100 100" style="enable-background:new 0 0 100 100;" xml:space="preserve">
<style type="text/css">
	.st0{fill:none;stroke:#23364E;stroke-width:4;stroke-linecap:round;stroke-linejoin:round;}
	.st1{fill-rule:evenodd;clip-rule:evenodd;fill:none;stroke:#23364E;stroke-width:4;stroke-linecap:round;stroke-linejoin:round;}
	.st2{fill:none;stroke:#23364E;stroke-width:4;stroke-linecap:round;stroke-miterlimit:10;}
	.st3{fill:none;stroke:#23364E;stroke-width:4;stroke-linecap:round;stroke-linejoin:round;stroke-miterlimit:10;}
	.st4{fill:none;stroke:#23364E;stroke-width:4;stroke-linecap:round;stroke-linejoin:round;stroke-dasharray:0.1,7;}
	.st5{fill:none;stroke:#23364E;stroke-width:4;stroke-linecap:round;stroke-linejoin:round;stroke-dasharray:0.1046,7.325;}
</style>
<g>
	<path class="st0" d="M15.73,31.23l8.7,7.39v18.93l-9.33-8.32c-2.29-2.05-3.61-4.98-3.61-8.05v-8C11.5,31,14.06,29.82,15.73,31.23z"
		/>
	<line class="st0" x1="35.18" y1="58.84" x2="50" y2="58.84"/>
	<path class="st0" d="M50,70.82c0,0,9.24-1.04,15.21-4.77c5.96-3.73,10.36-8.5,10.36-8.5V38.62l-23.24-9.01
		c-1.49-0.58-3.15-0.58-4.65,0l-23.24,9.01v18.93c0,0,4.4,4.77,10.36,8.5C40.76,69.78,50,70.82,50,70.82z"/>
	<path class="st0" d="M84.27,31.23l-8.7,7.39v18.93l9.33-8.32c2.29-2.05,3.61-4.98,3.61-8.05v-8C88.5,31,85.94,29.82,84.27,31.23z"
		/>
	<line class="st0" x1="64.82" y1="58.84" x2="50" y2="58.84"/>
	<path class="st0" d="M67.55,51.8l-16.22-3.33c-0.88-0.18-1.78-0.18-2.66,0L32.45,51.8"/>
	<path class="st0" d="M62.31,41.48l-10.42-3.1c-1.23-0.37-2.54-0.37-3.77,0l-10.42,3.1"/>
</g>
</svg>
