<?xml version="1.0" encoding="utf-8"?>
<!-- Generator: Adobe Illustrator 25.4.1, SVG Export Plug-In . SVG Version: 6.00 Build 0)  -->
<svg version="1.1" id="Layer_1" xmlns="http://www.w3.org/2000/svg" xmlns:xlink="http://www.w3.org/1999/xlink" x="0px" y="0px"
	 viewBox="0 0 120 120" style="enable-background:new 0 0 120 120;" xml:space="preserve">
<style type="text/css">
	.st0{fill:none;stroke:#23364E;stroke-width:4;stroke-linecap:round;stroke-linejoin:round;}
</style>
<g>
	<path class="st0" d="M25.7,41.2l8.7,7.4v18.9l-9.3-8.3c-2.3-2-3.6-5-3.6-8v-8C21.5,41,24.1,39.8,25.7,41.2z"/>
	<line class="st0" x1="45.2" y1="68.8" x2="60" y2="68.8"/>
	<path class="st0" d="M60,80.8c0,0,9.2-1,15.2-4.8c6-3.7,10.4-8.5,10.4-8.5V48.6l-23.2-9c-1.5-0.6-3.2-0.6-4.7,0l-23.2,9v18.9
		c0,0,4.4,4.8,10.4,8.5C50.8,79.8,60,80.8,60,80.8z"/>
	<path class="st0" d="M94.3,41.2l-8.7,7.4v18.9l9.3-8.3c2.3-2,3.6-5,3.6-8v-8C98.5,41,95.9,39.8,94.3,41.2z"/>
	<line class="st0" x1="74.8" y1="68.8" x2="60" y2="68.8"/>
	<path class="st0" d="M77.6,61.8l-16.2-3.3c-0.9-0.2-1.8-0.2-2.7,0l-16.2,3.3"/>
	<path class="st0" d="M72.3,51.5l-10.4-3.1c-1.2-0.4-2.5-0.4-3.8,0l-10.4,3.1"/>
</g>
</svg>
