<?xml version="1.0" encoding="utf-8"?>
<!-- Generator: Adobe Illustrator 25.4.1, SVG Export Plug-In . SVG Version: 6.00 Build 0)  -->
<svg version="1.1" id="Layer_1" xmlns="http://www.w3.org/2000/svg" xmlns:xlink="http://www.w3.org/1999/xlink" x="0px" y="0px"
	 viewBox="0 0 120 120" style="enable-background:new 0 0 120 120;" xml:space="preserve">
<style type="text/css">
	.st0{fill:none;stroke:#23364E;stroke-width:4;stroke-linecap:round;stroke-linejoin:round;}
</style>
<g>
	<path class="st0" d="M60,84.2l-0.8-0.5c-7.8-5-16.5-8.3-25.5-9.7L28,73.1V24l5.7,0.9c9.2,1.4,18,4.7,25.9,9.7l0.4,0.3V84.2z"/>
	<path class="st0" d="M60,96l-2.5-2.7c-4.9-5.2-11.3-9-18.3-10.6l-17.8-3.7V30.7l5.7,0.9c0.3,0,0.6,0.1,0.9,0.1"/>
	<path class="st0" d="M36,35c6.2,1.2,12.3,3.2,17.9,6.1"/>
	<path class="st0" d="M36,44.8c6.2,1.2,12.3,3.2,17.9,6.1"/>
	<path class="st0" d="M36,54.7c6.2,1.2,12.3,3.2,17.9,6.1"/>
	<path class="st0" d="M36,64.5c6.2,1.2,12.3,3.2,17.9,6.1"/>
	<path class="st0" d="M60,84.2l0.8-0.5c7.8-5,16.4-8.3,25.6-9.7l5.6-0.9V24l-5.7,0.9c-9.2,1.4-18,4.7-25.9,9.7L60,34.9"/>
	<path class="st0" d="M60,96l2.5-2.7c4.9-5.2,11.3-9,18.3-10.6l17.8-3.7V30.7L93,31.6c-0.3,0-0.6,0.1-0.9,0.1"/>
	<path class="st0" d="M84,35c-6.2,1.2-12.3,3.2-17.9,6.1"/>
	<path class="st0" d="M84,44.8c-6.2,1.2-12.3,3.2-17.9,6.1"/>
	<path class="st0" d="M84,54.7c-6.2,1.2-12.3,3.2-17.9,6.1"/>
	<path class="st0" d="M84,64.5c-6.2,1.2-12.3,3.2-17.9,6.1"/>
</g>
</svg>
