<?xml version="1.0" encoding="utf-8"?>
<!-- Generator: Adobe Illustrator 25.4.0, SVG Export Plug-In . SVG Version: 6.00 Build 0)  -->
<svg version="1.1" id="Layer_1" xmlns="http://www.w3.org/2000/svg" xmlns:xlink="http://www.w3.org/1999/xlink" x="0px" y="0px"
	 viewBox="0 0 100 100" style="enable-background:new 0 0 100 100;" xml:space="preserve">
<style type="text/css">
	.st0{fill:none;stroke:#F9BE00;stroke-width:4;stroke-linecap:round;stroke-linejoin:round;}
	.st1{fill-rule:evenodd;clip-rule:evenodd;fill:none;stroke:#F9BE00;stroke-width:4;stroke-linecap:round;stroke-linejoin:round;}
	.st2{fill:none;stroke:#F9BE00;stroke-width:4;stroke-linecap:round;stroke-miterlimit:10;}
	.st3{fill:none;stroke:#F9BE00;stroke-width:4;stroke-linecap:round;stroke-linejoin:round;stroke-miterlimit:10;}
	.st4{fill:none;stroke:#F9BE00;stroke-width:4;stroke-linecap:round;stroke-linejoin:round;stroke-dasharray:0.1,7;}
	.st5{fill:none;stroke:#F9BE00;stroke-width:4;stroke-linecap:round;stroke-linejoin:round;stroke-dasharray:0.1046,7.325;}
</style>
<g>
	<path class="st0" d="M50,74.19l-0.83-0.53c-7.75-4.98-16.45-8.29-25.55-9.72l-5.63-0.88V14l5.71,0.86
		c9.21,1.39,18.02,4.71,25.86,9.73L50,24.87V74.19z"/>
	<path class="st0" d="M50,86l-2.54-2.69c-4.94-5.24-11.3-8.97-18.32-10.57L11.3,69.08V20.69l5.71,0.86
		c0.29,0.04,0.57,0.09,0.86,0.14"/>
	<path class="st0" d="M26.01,25.01c6.24,1.17,12.27,3.23,17.91,6.1"/>
	<path class="st0" d="M26.01,34.85c6.24,1.17,12.27,3.23,17.91,6.1"/>
	<path class="st0" d="M26.01,44.68c6.24,1.17,12.27,3.23,17.91,6.1"/>
	<path class="st0" d="M26.01,54.52c6.24,1.17,12.27,3.23,17.91,6.1"/>
	<path class="st0" d="M50,74.19l0.83-0.53c7.75-4.98,16.45-8.29,25.55-9.72l5.63-0.88V14l-5.71,0.86
		c-9.21,1.39-18.02,4.71-25.86,9.73L50,24.87"/>
	<path class="st0" d="M50,86l2.54-2.69c4.94-5.24,11.3-8.97,18.32-10.57l17.84-3.66V20.69l-5.71,0.86
		c-0.29,0.04-0.57,0.09-0.86,0.14"/>
	<path class="st0" d="M73.99,25.01c-6.24,1.17-12.27,3.23-17.91,6.1"/>
	<path class="st0" d="M73.99,34.85c-6.24,1.17-12.27,3.23-17.91,6.1"/>
	<path class="st0" d="M73.99,44.68c-6.24,1.17-12.27,3.23-17.91,6.1"/>
	<path class="st0" d="M73.99,54.52c-6.24,1.17-12.27,3.23-17.91,6.1"/>
</g>
</svg>
