<?xml version="1.0" encoding="utf-8"?>
<!-- Generator: Adobe Illustrator 25.4.0, SVG Export Plug-In . SVG Version: 6.00 Build 0)  -->
<svg version="1.1" id="Layer_1" xmlns="http://www.w3.org/2000/svg" xmlns:xlink="http://www.w3.org/1999/xlink" x="0px" y="0px"
	 viewBox="0 0 100 100" style="enable-background:new 0 0 100 100;" xml:space="preserve">
<style type="text/css">
	.st0{fill:none;stroke:#23364E;stroke-width:4;stroke-linecap:round;stroke-linejoin:round;}
	.st1{fill-rule:evenodd;clip-rule:evenodd;fill:none;stroke:#23364E;stroke-width:4;stroke-linecap:round;stroke-linejoin:round;}
	.st2{fill:none;stroke:#23364E;stroke-width:4;stroke-linecap:round;stroke-miterlimit:10;}
	.st3{fill:none;stroke:#23364E;stroke-width:4;stroke-linecap:round;stroke-linejoin:round;stroke-miterlimit:10;}
	.st4{fill:none;stroke:#23364E;stroke-width:4;stroke-linecap:round;stroke-linejoin:round;stroke-dasharray:0.1,7;}
	.st5{fill:none;stroke:#23364E;stroke-width:4;stroke-linecap:round;stroke-linejoin:round;stroke-dasharray:0.1046,7.325;}
</style>
<g>
	<g>
		<polyline class="st2" points="65.8,64.19 65.8,86 14.69,86 14.69,14 48.94,14 65.8,30.85 65.8,34.31 		"/>
		<polyline class="st2" points="48.94,14 48.94,30.85 65.8,30.85 		"/>
		<line class="st2" x1="41.84" y1="57.97" x2="27.27" y2="57.97"/>
		<line class="st2" x1="53.47" y1="42.3" x2="27.27" y2="42.3"/>
		<line class="st2" x1="34.96" y1="73.64" x2="27.27" y2="73.64"/>
		<line class="st2" x1="34.96" y1="65.8" x2="27.27" y2="65.8"/>
		<line class="st2" x1="48.47" y1="50.14" x2="27.27" y2="50.14"/>
	</g>
	<g>
		
			<rect x="60.54" y="27.02" transform="matrix(0.7071 0.7071 -0.7071 0.7071 54.4902 -31.754)" class="st3" width="10.07" height="45.75"/>
		<line class="st3" x1="81.53" y1="41.07" x2="74.41" y2="33.95"/>
		<polyline class="st3" points="45.84,62.51 41.84,73.64 52.96,69.64 		"/>
	</g>
</g>
</svg>
