<?xml version="1.0" encoding="utf-8"?>
<!-- Generator: Adobe Illustrator 25.4.1, SVG Export Plug-In . SVG Version: 6.00 Build 0)  -->
<svg version="1.1" id="Layer_1" xmlns="http://www.w3.org/2000/svg" xmlns:xlink="http://www.w3.org/1999/xlink" x="0px" y="0px"
	 viewBox="0 0 120 120" style="enable-background:new 0 0 120 120;" xml:space="preserve">
<style type="text/css">
	.st0{fill:none;stroke:#23364E;stroke-width:4;stroke-linecap:round;stroke-miterlimit:10;}
	.st1{fill:none;stroke:#23364E;stroke-width:4;stroke-linecap:round;stroke-linejoin:round;stroke-miterlimit:9.9999;}
	.st2{fill:none;stroke:#23364E;stroke-width:4;stroke-linecap:round;stroke-linejoin:round;stroke-miterlimit:10;}
</style>
<g>
	<g>
		<polyline class="st0" points="75.8,74.2 75.8,96 24.7,96 24.7,24 58.9,24 75.8,40.8 75.8,44.3 		"/>
		<polyline class="st0" points="58.9,24 58.9,40.8 75.8,40.8 		"/>
		<line class="st0" x1="51.8" y1="68" x2="37.3" y2="68"/>
		<line class="st0" x1="63.5" y1="52.3" x2="37.3" y2="52.3"/>
		<line class="st0" x1="45" y1="83.6" x2="37.3" y2="83.6"/>
		<line class="st0" x1="45" y1="75.8" x2="37.3" y2="75.8"/>
		<line class="st0" x1="58.5" y1="60.1" x2="37.3" y2="60.1"/>
	</g>
	<g>
		
			<rect x="52.7" y="54.9" transform="matrix(0.7071 -0.7071 0.7071 0.7071 -20.2159 70.9842)" class="st1" width="45.7" height="10.1"/>
		<line class="st2" x1="91.5" y1="51.1" x2="84.4" y2="44"/>
		<polyline class="st2" points="55.8,72.5 51.8,83.6 63,79.6 		"/>
	</g>
</g>
</svg>
