<?xml version="1.0" encoding="utf-8"?>
<!-- Generator: Adobe Illustrator 25.4.1, SVG Export Plug-In . SVG Version: 6.00 Build 0)  -->
<svg version="1.1" id="Layer_1" xmlns="http://www.w3.org/2000/svg" xmlns:xlink="http://www.w3.org/1999/xlink" x="0px" y="0px"
	 viewBox="0 0 120 120" style="enable-background:new 0 0 120 120;" xml:space="preserve">
<style type="text/css">
	.st0{fill:none;stroke:#23364E;stroke-width:4;stroke-linecap:round;stroke-linejoin:round;}
</style>
<g>
	<g>
		<path class="st0" d="M73,66.5c0.8-0.3,4.1-2.2,4.6-2.6c0.1,0,0.2,0,0.3,0.1 M18.4,75.1c1.8-0.3,2.9-0.7,3.7-1.1
			c0.6-0.3,1-0.6,1.3-0.9c0.9-0.9,4.6-4.3,5.9-5.7 M105.2,67.6c-3-0.3-3.8-0.3-6.6-1.3L98,66.1c-4.9-1.7-5.8-3.1-10.5-4.7
			c-1-0.3-3-0.8-4.7-1.3c-1.6-0.5-3.1-1.6-2.6-3c0.8-2.1,2.4-4.7,3.7-5.7c2.3-1.3,8.2-0.3,10.3-2.2c1.2-1.2,2.9-0.6,2.3-2.5
			c-2.2-1.2-5.8-1.1-7-2.4c-2.7-2.9-7.1-0.7-7.1-0.7c-1.8-0.1-4.3,0.5-4.4,0.6c-0.1,0.3,0.3,0.3,0.6,0.4c0.8,0.1,3,1,2.2,1.8
			c-1.3,1.5-5.1,4.3-6.9,5.6c-3.1,2.2-6.6,3.6-8.6,3.5c-8-0.2-10.6-3.9-17.1-4.9c-1.7-0.3-3.8-0.1-6.7,0.8c-6.6,2-13.2,7.4-19.5,7.8
			c-2.5,0.2-4.9-0.5-7.3-2.4"/>
	</g>
	<path class="st0" d="M30.9,83.1c7.3-4.2,2.4-7.2,3-11.2c0.6-4.4,3.7-6.8,3.7-6.8"/>
	<path class="st0" d="M44.8,86.4c6.8-6.3,0.1-8.8-0.3-13.2c-0.5-4.8,2.6-8,2.4-8"/>
	<path class="st0" d="M57.7,86.6c5.6-7.3-1.1-9.4-2.2-13.6c-0.9-3.5,0.4-7.8,0.4-7.8"/>
	<path class="st0" d="M72.2,83.7c3.2-7.8-4-7-6-10.5c-2.2-3.8-1.6-8-1.6-8"/>
	<path class="st0" d="M72.1,77c3.5-0.5,5.3,0.3,6.4,1.6"/>
	<path class="st0" d="M59.6,80c3.5,0.1,5.1,1.2,6,2.7"/>
	<path class="st0" d="M47.8,80.6c3.3,1.1,4.6,2.6,4.9,4.3"/>
	<path class="st0" d="M34.8,78.4c3.3,1.1,4.6,2.6,4.9,4.3"/>
</g>
</svg>
