<?xml version="1.0" encoding="utf-8"?>
<!-- Generator: Adobe Illustrator 25.4.0, SVG Export Plug-In . SVG Version: 6.00 Build 0)  -->
<svg version="1.1" id="Layer_1" xmlns="http://www.w3.org/2000/svg" xmlns:xlink="http://www.w3.org/1999/xlink" x="0px" y="0px"
	 viewBox="0 0 100 100" style="enable-background:new 0 0 100 100;" xml:space="preserve">
<style type="text/css">
	.st0{fill:none;stroke:#23364E;stroke-width:4;stroke-linecap:round;stroke-linejoin:round;}
	.st1{fill-rule:evenodd;clip-rule:evenodd;fill:none;stroke:#23364E;stroke-width:4;stroke-linecap:round;stroke-linejoin:round;}
	.st2{fill:none;stroke:#23364E;stroke-width:4;stroke-linecap:round;stroke-miterlimit:10;}
	.st3{fill:none;stroke:#23364E;stroke-width:4;stroke-linecap:round;stroke-linejoin:round;stroke-miterlimit:10;}
	.st4{fill:none;stroke:#23364E;stroke-width:4;stroke-linecap:round;stroke-linejoin:round;stroke-dasharray:0.1,7;}
	.st5{fill:none;stroke:#23364E;stroke-width:4;stroke-linecap:round;stroke-linejoin:round;stroke-dasharray:0.1046,7.325;}
</style>
<g>
	<g>
		<path class="st1" d="M63.03,56.53c0.81-0.31,4.07-2.17,4.63-2.6c0.1,0.02,0.19,0.04,0.29,0.06 M8.42,65.14
			c1.78-0.3,2.92-0.67,3.7-1.05c0.61-0.3,1-0.61,1.31-0.9c0.93-0.86,4.58-4.26,5.94-5.7 M95.21,57.56
			c-3.02-0.27-3.85-0.31-6.63-1.29L88,56.07c-4.87-1.71-5.78-3.09-10.46-4.7c-0.99-0.34-3-0.84-4.67-1.35
			c-1.59-0.48-3.1-1.56-2.55-3.03c0.78-2.12,2.42-4.68,3.7-5.66c2.29-1.27,8.24-0.26,10.3-2.25c1.21-1.17,2.87-0.64,2.27-2.52
			c-2.21-1.23-5.75-1.08-7.04-2.44c-2.72-2.86-7.1-0.73-7.1-0.73c-1.85-0.07-4.27,0.52-4.36,0.6c-0.11,0.29,0.32,0.34,0.63,0.39
			c0.79,0.11,3.03,0.96,2.23,1.85c-1.34,1.49-5.07,4.3-6.91,5.59c-3.1,2.17-6.55,3.56-8.63,3.51c-7.97-0.2-10.65-3.89-17.08-4.87
			c-1.72-0.26-3.76-0.1-6.74,0.77c-6.62,1.95-13.19,7.38-19.46,7.81c-2.5,0.17-4.94-0.45-7.33-2.41"/>
	</g>
	<path class="st1" d="M20.93,73.14c7.35-4.23,2.43-7.21,2.97-11.18c0.6-4.39,3.67-6.76,3.67-6.76"/>
	<path class="st1" d="M34.75,76.4c6.77-6.31,0.12-8.82-0.28-13.17c-0.45-4.82,2.57-8,2.37-8.02"/>
	<path class="st1" d="M47.68,76.63c5.64-7.33-1.12-9.41-2.23-13.64c-0.92-3.5,0.37-7.79,0.37-7.79"/>
	<path class="st1" d="M62.16,73.67c3.19-7.85-4-6.99-6.01-10.45c-2.23-3.83-1.64-8.02-1.64-8.02"/>
	<path class="st1" d="M62.09,66.99c3.47-0.54,5.26,0.26,6.36,1.59"/>
	<path class="st1" d="M49.59,69.98c3.51,0.06,5.13,1.16,5.99,2.66"/>
	<path class="st1" d="M37.77,70.55c3.34,1.09,4.56,2.63,4.94,4.31"/>
	<path class="st1" d="M24.84,68.42c3.34,1.09,4.56,2.63,4.94,4.31"/>
</g>
</svg>
