<?xml version="1.0" encoding="utf-8"?>
<!-- Generator: Adobe Illustrator 25.4.0, SVG Export Plug-In . SVG Version: 6.00 Build 0)  -->
<svg version="1.1" id="Layer_1" xmlns="http://www.w3.org/2000/svg" xmlns:xlink="http://www.w3.org/1999/xlink" x="0px" y="0px"
	 viewBox="0 0 100 100" style="enable-background:new 0 0 100 100;" xml:space="preserve">
<style type="text/css">
	.st0{fill:none;stroke:#F9BE00;stroke-width:4;stroke-linecap:round;stroke-linejoin:round;}
	.st1{fill-rule:evenodd;clip-rule:evenodd;fill:none;stroke:#F9BE00;stroke-width:4;stroke-linecap:round;stroke-linejoin:round;}
	.st2{fill:none;stroke:#F9BE00;stroke-width:4;stroke-linecap:round;stroke-miterlimit:10;}
	.st3{fill:none;stroke:#F9BE00;stroke-width:4;stroke-linecap:round;stroke-linejoin:round;stroke-miterlimit:10;}
	.st4{fill:none;stroke:#F9BE00;stroke-width:4;stroke-linecap:round;stroke-linejoin:round;stroke-dasharray:0.1,7;}
	.st5{fill:none;stroke:#F9BE00;stroke-width:4;stroke-linecap:round;stroke-linejoin:round;stroke-dasharray:0.1046,7.325;}
</style>
<g>
	<path class="st0" d="M7.31,69.12c1.65,0.32,10.79,1.65,20.87-7.4c-4.75-5.82-0.24-17.09,0.95-18.9c1.12-1.72-5.28-0.08-8.19,0.08
		c3.62-7.45,7.32-3.56,10.07-5.05c2.76-1.5,1.62-4.18,8.4-3.52c4.61,0.45,7.81-4.46,9.43-2.75c3.45,3.63-10.76,10.1-10.76,13.41
		c0,3.31,2.86,8.95,7.5,8.31S56.11,45.56,58,44.15c1.89-1.42,14.99-4.32,7.35-23.15"/>
	<path class="st0" d="M65.33,43.5c0.94,0.07,10.25,3.21,19.9-8.44"/>
	<path class="st0" d="M10.64,78.71c9.8,1.85,20.08-5.46,24.4-9.33c3.42,0.84,10.21,1.87,16.03-4.09
		c6.21-6.36,8.51-12.86,12.44-12.27c9.13,1.36,16,4.22,29.18-11.05"/>
</g>
</svg>
