<?xml version="1.0" encoding="utf-8"?>
<!-- Generator: Adobe Illustrator 25.4.1, SVG Export Plug-In . SVG Version: 6.00 Build 0)  -->
<svg version="1.1" id="Layer_1" xmlns="http://www.w3.org/2000/svg" xmlns:xlink="http://www.w3.org/1999/xlink" x="0px" y="0px"
	 viewBox="0 0 120 120" style="enable-background:new 0 0 120 120;" xml:space="preserve">
<style type="text/css">
	.st0{fill:none;stroke:#23364E;stroke-width:4;stroke-linecap:round;stroke-linejoin:round;}
</style>
<g>
	<path class="st0" d="M17.3,79.1c1.6,0.3,10.8,1.7,20.9-7.4c-4.8-5.8-0.2-17.1,1-18.9c1.1-1.7-5.3-0.1-8.2,0.1
		c3.6-7.5,7.3-3.6,10.1-5c2.8-1.5,1.6-4.2,8.4-3.5c4.6,0.5,7.8-4.5,9.4-2.8c3.5,3.6-10.8,10.1-10.8,13.4s2.9,9,7.5,8.3
		s10.5-7.7,12.4-9.2c1.9-1.4,15-4.3,7.3-23.1"/>
	<path class="st0" d="M75.3,53.5c0.9,0.1,10.2,3.2,19.9-8.4"/>
	<path class="st0" d="M20.6,88.7c9.8,1.8,20.1-5.5,24.4-9.3c3.4,0.8,10.2,1.9,16-4.1c6.2-6.4,8.5-12.9,12.4-12.3
		c9.1,1.4,16,4.2,29.2-11"/>
</g>
</svg>
