<?xml version="1.0" encoding="utf-8"?>
<!-- Generator: Adobe Illustrator 25.4.0, SVG Export Plug-In . SVG Version: 6.00 Build 0)  -->
<svg version="1.1" id="Layer_1" xmlns="http://www.w3.org/2000/svg" xmlns:xlink="http://www.w3.org/1999/xlink" x="0px" y="0px"
	 viewBox="0 0 100 100" style="enable-background:new 0 0 100 100;" xml:space="preserve">
<style type="text/css">
	.st0{fill:none;stroke:#F9BE00;stroke-width:4;stroke-linecap:round;stroke-linejoin:round;}
	.st1{fill-rule:evenodd;clip-rule:evenodd;fill:none;stroke:#F9BE00;stroke-width:4;stroke-linecap:round;stroke-linejoin:round;}
	.st2{fill:none;stroke:#F9BE00;stroke-width:4;stroke-linecap:round;stroke-miterlimit:10;}
	.st3{fill:none;stroke:#F9BE00;stroke-width:4;stroke-linecap:round;stroke-linejoin:round;stroke-miterlimit:10;}
	.st4{fill:none;stroke:#F9BE00;stroke-width:4;stroke-linecap:round;stroke-linejoin:round;stroke-dasharray:0.1,7;}
	.st5{fill:none;stroke:#F9BE00;stroke-width:4;stroke-linecap:round;stroke-linejoin:round;stroke-dasharray:0.1046,7.325;}
</style>
<g>
	<path class="st0" d="M30.98,69.02L30.98,69.02c-5.24-5.24-5.24-13.74,0-18.98L50,31.02c5.24-5.24,13.74-5.24,18.98,0l0,0
		c5.24,5.24,5.24,13.74,0,18.98L49.95,69.02C44.71,74.26,36.22,74.26,30.98,69.02z"/>
	<line class="st0" x1="68.98" y1="31.02" x2="76.13" y2="23.87"/>
	<line class="st0" x1="76.13" y1="57.15" x2="68.98" y2="50"/>
	<line class="st0" x1="66.64" y1="66.64" x2="59.49" y2="59.49"/>
	<line class="st0" x1="50" y1="31.02" x2="42.85" y2="23.87"/>
	<line class="st0" x1="40.51" y1="40.51" x2="33.36" y2="33.36"/>
	<line class="st0" x1="59.49" y1="27.11" x2="59.49" y2="17"/>
	<line class="st0" x1="72.94" y1="40.51" x2="83.05" y2="40.51"/>
	<line class="st0" x1="30.98" y1="69.02" x2="23.83" y2="76.17"/>
	<line class="st0" x1="23.87" y1="42.85" x2="31.02" y2="50"/>
	<line class="st0" x1="50" y1="68.98" x2="57.15" y2="76.13"/>
	<line class="st0" x1="40.51" y1="72.89" x2="40.51" y2="83"/>
	<line class="st0" x1="27.06" y1="59.49" x2="16.95" y2="59.49"/>
	<line class="st4" x1="60.08" y1="39.92" x2="39.85" y2="60.15"/>
</g>
</svg>
