<?xml version="1.0" encoding="utf-8"?>
<!-- Generator: Adobe Illustrator 25.4.1, SVG Export Plug-In . SVG Version: 6.00 Build 0)  -->
<svg version="1.1" id="Layer_1" xmlns="http://www.w3.org/2000/svg" xmlns:xlink="http://www.w3.org/1999/xlink" x="0px" y="0px"
	 viewBox="0 0 120 120" style="enable-background:new 0 0 120 120;" xml:space="preserve">
<style type="text/css">
	.st0{fill:none;stroke:#23364E;stroke-width:4;stroke-linecap:round;stroke-linejoin:round;}
	.st1{fill:none;stroke:#23364E;stroke-width:4;stroke-linecap:round;stroke-linejoin:round;stroke-dasharray:0.1,7;}
</style>
<g>
	<path class="st0" d="M41,79L41,79c-5.2-5.2-5.2-13.7,0-19l19-19c5.2-5.2,13.7-5.2,19,0l0,0c5.2,5.2,5.2,13.7,0,19L60,79
		C54.7,84.3,46.2,84.3,41,79z"/>
	<line class="st0" x1="79" y1="41" x2="86.1" y2="33.9"/>
	<line class="st0" x1="86.1" y1="67.2" x2="79" y2="60"/>
	<line class="st0" x1="76.6" y1="76.6" x2="69.5" y2="69.5"/>
	<line class="st0" x1="60" y1="41" x2="52.8" y2="33.9"/>
	<line class="st0" x1="50.5" y1="50.5" x2="43.4" y2="43.4"/>
	<line class="st0" x1="69.5" y1="37.1" x2="69.5" y2="27"/>
	<line class="st0" x1="82.9" y1="50.5" x2="93.1" y2="50.5"/>
	<line class="st0" x1="41" y1="79" x2="33.8" y2="86.2"/>
	<line class="st0" x1="33.9" y1="52.8" x2="41" y2="60"/>
	<line class="st0" x1="60" y1="79" x2="67.2" y2="86.1"/>
	<line class="st0" x1="50.5" y1="82.9" x2="50.5" y2="93"/>
	<line class="st0" x1="37.1" y1="69.5" x2="27" y2="69.5"/>
	<line class="st1" x1="70.1" y1="49.9" x2="49.8" y2="70.2"/>
</g>
</svg>
