<?xml version="1.0" encoding="utf-8"?>
<!-- Generator: Adobe Illustrator 25.4.0, SVG Export Plug-In . SVG Version: 6.00 Build 0)  -->
<svg version="1.1" id="Layer_1" xmlns="http://www.w3.org/2000/svg" xmlns:xlink="http://www.w3.org/1999/xlink" x="0px" y="0px"
	 viewBox="0 0 100 100" style="enable-background:new 0 0 100 100;" xml:space="preserve">
<style type="text/css">
	.st0{fill:none;stroke:#23364E;stroke-width:4;stroke-linecap:round;stroke-linejoin:round;}
	.st1{fill-rule:evenodd;clip-rule:evenodd;fill:none;stroke:#23364E;stroke-width:4;stroke-linecap:round;stroke-linejoin:round;}
	.st2{fill:none;stroke:#23364E;stroke-width:4;stroke-linecap:round;stroke-miterlimit:10;}
	.st3{fill:none;stroke:#23364E;stroke-width:4;stroke-linecap:round;stroke-linejoin:round;stroke-miterlimit:10;}
	.st4{fill:none;stroke:#23364E;stroke-width:4;stroke-linecap:round;stroke-linejoin:round;stroke-dasharray:0.1,7;}
	.st5{fill:none;stroke:#23364E;stroke-width:4;stroke-linecap:round;stroke-linejoin:round;stroke-dasharray:0.1046,7.325;}
</style>
<g>
	<path class="st3" d="M18.72,81.28L18.72,81.28c-6.3-6.3-6.3-16.51,0-22.81l39.74-39.74c6.3-6.3,16.51-6.3,22.81,0l0,0
		c6.3,6.3,6.3,16.51,0,22.81L41.54,81.28C35.24,87.57,25.02,87.57,18.72,81.28z"/>
	<path class="st3" d="M77.26,54.45l4.01,4.01c6.3,6.3,6.3,16.51,0,22.81l0,0c-6.3,6.3-16.51,6.3-22.81,0l-4.01-4.01"/>
	<path class="st3" d="M22.74,45.55l-4.01-4.01c-6.3-6.3-6.3-16.51,0-22.81l0,0c6.3-6.3,16.51-6.3,22.81,0l4.01,4.01"/>
	<g>
		<g>
			<line class="st0" x1="50.65" y1="38.89" x2="50.68" y2="38.92"/>
			<line class="st5" x1="55.86" y1="44.1" x2="58.53" y2="46.77"/>
			<line class="st0" x1="61.11" y1="49.36" x2="61.15" y2="49.39"/>
		</g>
	</g>
	<g>
		<g>
			<line class="st0" x1="44.7" y1="44.83" x2="44.74" y2="44.87"/>
			<line class="st5" x1="49.92" y1="50.05" x2="52.58" y2="52.71"/>
			<line class="st0" x1="55.17" y1="55.3" x2="55.21" y2="55.34"/>
		</g>
	</g>
	<g>
		<g>
			<line class="st0" x1="38.76" y1="50.78" x2="38.79" y2="50.81"/>
			<line class="st5" x1="43.97" y1="55.99" x2="46.64" y2="58.65"/>
			<line class="st0" x1="49.23" y1="61.24" x2="49.26" y2="61.28"/>
		</g>
	</g>
	<line class="st3" x1="56.17" y1="33.36" x2="66.68" y2="43.86"/>
	<line class="st3" x1="33.07" y1="56.46" x2="43.58" y2="66.96"/>
</g>
</svg>
