<?xml version="1.0" encoding="utf-8"?>
<!-- Generator: Adobe Illustrator 25.4.1, SVG Export Plug-In . SVG Version: 6.00 Build 0)  -->
<svg version="1.1" id="Layer_1" xmlns="http://www.w3.org/2000/svg" xmlns:xlink="http://www.w3.org/1999/xlink" x="0px" y="0px"
	 viewBox="0 0 120 120" style="enable-background:new 0 0 120 120;" xml:space="preserve">
<style type="text/css">
	.st0{fill:none;stroke:#23364E;stroke-width:4;stroke-linecap:round;stroke-linejoin:round;stroke-miterlimit:10;}
	.st1{fill:none;stroke:#23364E;stroke-width:4;stroke-linecap:round;stroke-linejoin:round;}
	.st2{fill:none;stroke:#23364E;stroke-width:4;stroke-linecap:round;stroke-linejoin:round;stroke-dasharray:0.1046,7.325;}
</style>
<g>
	<path class="st0" d="M28.7,91.3L28.7,91.3c-6.3-6.3-6.3-16.5,0-22.8l39.7-39.7c6.3-6.3,16.5-6.3,22.8,0l0,0
		c6.3,6.3,6.3,16.5,0,22.8L51.5,91.3C45.2,97.6,35,97.6,28.7,91.3z"/>
	<path class="st0" d="M87.3,64.4l4,4c6.3,6.3,6.3,16.5,0,22.8l0,0c-6.3,6.3-16.5,6.3-22.8,0l-4-4"/>
	<path class="st0" d="M32.7,55.5l-4-4c-6.3-6.3-6.3-16.5,0-22.8l0,0c6.3-6.3,16.5-6.3,22.8,0l4,4"/>
	<g>
		<g>
			<line class="st1" x1="60.7" y1="48.9" x2="60.7" y2="48.9"/>
			<line class="st2" x1="65.9" y1="54.1" x2="68.5" y2="56.8"/>
			<line class="st1" x1="71.1" y1="59.4" x2="71.2" y2="59.4"/>
		</g>
	</g>
	<g>
		<g>
			<line class="st1" x1="54.7" y1="54.8" x2="54.7" y2="54.9"/>
			<line class="st2" x1="59.9" y1="60" x2="62.6" y2="62.7"/>
			<line class="st1" x1="65.2" y1="65.3" x2="65.2" y2="65.3"/>
		</g>
	</g>
	<g>
		<g>
			<line class="st1" x1="48.8" y1="60.8" x2="48.8" y2="60.8"/>
			<line class="st2" x1="54" y1="66" x2="56.6" y2="68.7"/>
			<line class="st1" x1="59.2" y1="71.2" x2="59.3" y2="71.3"/>
		</g>
	</g>
	<line class="st0" x1="66.2" y1="43.4" x2="76.7" y2="53.9"/>
	<line class="st0" x1="43.1" y1="66.5" x2="53.6" y2="77"/>
</g>
</svg>
