<?xml version="1.0" encoding="utf-8"?>
<!-- Generator: Adobe Illustrator 25.4.1, SVG Export Plug-In . SVG Version: 6.00 Build 0)  -->
<svg version="1.1" id="Layer_1" xmlns="http://www.w3.org/2000/svg" xmlns:xlink="http://www.w3.org/1999/xlink" x="0px" y="0px"
	 viewBox="0 0 120 120" style="enable-background:new 0 0 120 120;" xml:space="preserve">
<style type="text/css">
	.st0{fill:none;stroke:#23364E;stroke-width:4;stroke-linecap:round;stroke-linejoin:round;stroke-miterlimit:10;}
</style>
<g>
	<g>
		<circle class="st0" cx="60.3" cy="53" r="9.7"/>
		<path class="st0" d="M43.8,83.7c0-9.2,7.4-16.6,16.6-16.6s16.6,7.4,16.6,16.6"/>
	</g>
	<path class="st0" d="M74.8,96H45.2c-5,0-9-4-9-9V33c0-5,4-9,9-9h29.6c5,0,9,4,9,9v54C83.8,92,79.8,96,74.8,96z"/>
	<line class="st0" x1="57.1" y1="88.9" x2="62.9" y2="88.9"/>
	<path class="st0" d="M48,24L48,24c0,4.2,3.4,7.6,7.6,7.6h8.8c4.2,0,7.6-3.4,7.6-7.6l0,0"/>
</g>
</svg>
