<?xml version="1.0" encoding="utf-8"?>
<!-- Generator: Adobe Illustrator 25.4.0, SVG Export Plug-In . SVG Version: 6.00 Build 0)  -->
<svg version="1.1" id="Layer_1" xmlns="http://www.w3.org/2000/svg" xmlns:xlink="http://www.w3.org/1999/xlink" x="0px" y="0px"
	 viewBox="0 0 100 100" style="enable-background:new 0 0 100 100;" xml:space="preserve">
<style type="text/css">
	.st0{fill:none;stroke:#F9BE00;stroke-width:4;stroke-linecap:round;stroke-linejoin:round;}
	.st1{fill-rule:evenodd;clip-rule:evenodd;fill:none;stroke:#F9BE00;stroke-width:4;stroke-linecap:round;stroke-linejoin:round;}
	.st2{fill:none;stroke:#F9BE00;stroke-width:4;stroke-linecap:round;stroke-miterlimit:10;}
	.st3{fill:none;stroke:#F9BE00;stroke-width:4;stroke-linecap:round;stroke-linejoin:round;stroke-miterlimit:10;}
	.st4{fill:none;stroke:#F9BE00;stroke-width:4;stroke-linecap:round;stroke-linejoin:round;stroke-dasharray:0.1,7;}
	.st5{fill:none;stroke:#F9BE00;stroke-width:4;stroke-linecap:round;stroke-linejoin:round;stroke-dasharray:0.1046,7.325;}
</style>
<g>
	<g>
		<circle class="st3" cx="50.35" cy="43.04" r="9.73"/>
		<path class="st3" d="M33.75,73.68c0-9.17,7.43-16.6,16.6-16.6s16.6,7.43,16.6,16.6"/>
	</g>
	<path class="st3" d="M64.8,86H35.2c-4.97,0-8.99-4.03-8.99-8.99V22.99c0-4.97,4.03-8.99,8.99-8.99H64.8c4.97,0,8.99,4.03,8.99,8.99
		v54.01C73.79,81.97,69.76,86,64.8,86z"/>
	<line class="st3" x1="47.12" y1="78.94" x2="52.88" y2="78.94"/>
	<path class="st3" d="M38.03,14L38.03,14c0,4.2,3.4,7.6,7.6,7.6h8.75c4.2,0,7.6-3.4,7.6-7.6v0"/>
</g>
</svg>
