<svg id="Layer_1" data-name="Layer 1" xmlns="http://www.w3.org/2000/svg" viewBox="0 0 120 120"><defs><style>.cls-1{fill:#23364e;}</style></defs><path class="cls-1" d="M97.79,39a4.41,4.41,0,0,0-4.79.67l-7.79,6.62L63.14,37.77a8.35,8.35,0,0,0-6.16,0L34.82,46.35,27,39.71a4.43,4.43,0,0,0-4.8-.67,4.54,4.54,0,0,0-2.71,4.18v8a12.74,12.74,0,0,0,4.27,9.5l9.3,8.3a2.32,2.32,0,0,0,.3.22A57,57,0,0,0,43.82,77.7c6.22,4,15.57,5.07,16,5.11h.44c.39,0,9.73-1.09,16-5.08A56.88,56.88,0,0,0,87,69l9.21-8.22a12.72,12.72,0,0,0,4.29-9.51v-8A4.54,4.54,0,0,0,97.79,39Zm-65.39,24-6-5.35a8.69,8.69,0,0,1-2.91-6.49v-8a.58.58,0,0,1,.36-.54.61.61,0,0,1,.24-.06.4.4,0,0,1,.28.11l0,0,8,6.8ZM74.13,74.33c-5,3.19-12.74,4.3-14.13,4.48-1.39-.18-9.08-1.29-14-4.49a53.76,53.76,0,0,1-9.45-7.6V50l21.94-8.51a4.37,4.37,0,0,1,3.24,0L83.6,50V66.72A53.34,53.34,0,0,1,74.13,74.33ZM96.5,51.22a8.71,8.71,0,0,1-2.93,6.51l-6,5.33V49.55l8-6.8,0,0a.46.46,0,0,1,.52,0,.58.58,0,0,1,.36.54Z"/><path class="cls-1" d="M74.8,66.82H45.2a2,2,0,0,0,0,4H74.8a2,2,0,1,0,0-4Z"/><path class="cls-1" d="M78,59.86,61.83,56.57a8.24,8.24,0,0,0-3.53,0l-16.2,3.3a2,2,0,1,0,.8,3.92l16.23-3.3a4.21,4.21,0,0,1,1.87,0l16.2,3.3a1.87,1.87,0,0,0,.4,0,2,2,0,0,0,.4-4Z"/><path class="cls-1" d="M48.27,53.44l10.42-3.11a4.25,4.25,0,0,1,2.64,0l10.4,3.1a1.87,1.87,0,0,0,.57.08,2,2,0,0,0,.57-3.91L62.53,46.53a8.13,8.13,0,0,0-5,0l-10.4,3.1a2,2,0,1,0,1.14,3.83Z"/></svg>