<svg id="Layer_1" data-name="Layer 1" xmlns="http://www.w3.org/2000/svg" viewBox="0 0 120 120"><defs><style>.cls-1{fill:#23364e;}</style></defs><path class="cls-1" d="M87.46,62a6.2,6.2,0,1,0-8.1,5.9v14.4a11.8,11.8,0,1,1-23.6,0V63.72a18.62,18.62,0,0,0,16.48-16l2.6-18.79a4.38,4.38,0,0,0-1-3.48A4.32,4.32,0,0,0,70.56,24H66.11a4,4,0,1,0,0,4h4.45a.3.3,0,0,1,.23.12.42.42,0,0,1,.09.31l-2.6,18.78a14.66,14.66,0,0,1-14,12.66,2.09,2.09,0,0,0-.51-.07,1.82,1.82,0,0,0-.52.08,14.68,14.68,0,0,1-14.1-12.65l-2.6-18.81a.37.37,0,0,1,.1-.3.3.3,0,0,1,.22-.12h4.46a4,4,0,1,0,0-4H36.86a4.29,4.29,0,0,0-3.24,1.5,4.33,4.33,0,0,0-1,3.47l2.6,18.82a18.66,18.66,0,0,0,16.58,16V82.25a15.8,15.8,0,1,0,31.6,0V67.78A6.21,6.21,0,0,0,87.46,62Zm-6.2,2.2a2.2,2.2,0,1,1,2.2-2.2A2.21,2.21,0,0,1,81.26,64.15Z"/></svg>