<svg id="Layer_1" data-name="Layer 1" xmlns="http://www.w3.org/2000/svg" viewBox="0 0 120 120"><defs><style>.cls-1{fill:#23364e;}</style></defs><path class="cls-1" d="M103.19,77.44c-.13-.82-3.15-19.66-8.71-31.41l.58-.72.12-.15a10.69,10.69,0,0,0,1.31-3.22c.06-.23.11-.45.17-.62a3.69,3.69,0,0,0-.69-4,25.73,25.73,0,0,0-8.6-6.18,7.21,7.21,0,0,0-7,.77c-2.63,1.45-2.87,1.51-5.38,1.68a131,131,0,0,0-17.82,1.82c-11.84,1.72-20.71,2.27-22.91,2.18a2.47,2.47,0,0,0-2,1,2.74,2.74,0,0,0-.47,2.33.36.36,0,0,0,0,.11,18.61,18.61,0,0,0,1.21,2.94l-.27-.16c-7-3.18-10.07-7.57-11.46-10.7,4-.15,11.94-.82,21.42-2.2a126.89,126.89,0,0,1,17.44-1.78c3.26-.22,4.09-.41,7.27-2.27a1.88,1.88,0,0,0,.23-.16,3.21,3.21,0,0,1,3.11-.32A19.89,19.89,0,0,1,78,31.39a2,2,0,1,0,3-2.68,23.73,23.73,0,0,0-8.63-6.11,7.2,7.2,0,0,0-7,.79c-2.53,1.47-2.77,1.49-5.36,1.66a131,131,0,0,0-17.82,1.82c-11.83,1.72-20.7,2.27-22.91,2.18a2.47,2.47,0,0,0-2,1,2.74,2.74,0,0,0-.47,2.33l0,.1C18,36.09,21.37,42.87,31.18,47.37a2,2,0,0,0,.83.18,2,2,0,0,0,1.82-1.16,1.86,1.86,0,0,0,.17-.92,25.15,25.15,0,0,0,5.58,6.33c6.19,5.05,15,7.93,26.11,8.55A2.61,2.61,0,0,1,68,61.75c1.25,2.89,3.56,11.21,4.94,34.32a2,2,0,0,0,2,1.88l.31,0c10.13-1.59,23.66-9.46,27.84-19.4A2,2,0,0,0,103.19,77.44ZM76.77,93.54c-1.36-20.88-3.52-29.68-5.13-33.39a6.55,6.55,0,0,0-5.72-3.8C60.22,56,41.87,54,36.39,41.53c4-.15,11.94-.82,21.42-2.2a126.89,126.89,0,0,1,17.44-1.78c3.33-.23,4.15-.55,7.23-2.25l.27-.18a3.19,3.19,0,0,1,3-.35,21.8,21.8,0,0,1,7.15,5.11c-.11.28-.2.63-.31,1a7.54,7.54,0,0,1-.73,2,17.65,17.65,0,0,1-4,4,39.28,39.28,0,0,1-4.17,2.24,13.18,13.18,0,0,0,.84-4.52,2,2,0,0,0-4,.14c0,1.46-.82,4.08-2.33,7l-.06.12A2,2,0,0,0,78.38,54a2,2,0,0,0,2.1.63A46,46,0,0,0,90,50.26a12.86,12.86,0,0,0,1.54-1.12c4.42,10.17,7.11,25.24,7.64,28.35C95.64,85,85.34,91.48,76.77,93.54Z"/><path class="cls-1" d="M68.88,82.33a38.8,38.8,0,0,1-7.11,2.51A220.65,220.65,0,0,0,59.18,61.1a2,2,0,1,0-3.94.7,227.85,227.85,0,0,1,2.68,25.57,2,2,0,0,0,.74,1.44,2,2,0,0,0,1.25.44l.31,0A40.41,40.41,0,0,0,70.54,86a2,2,0,0,0-1.66-3.64Z"/><path class="cls-1" d="M70.34,40.27a7.69,7.69,0,0,0-8.54-.15,2,2,0,0,0,1,3.73,2,2,0,0,0,1-.27,3.7,3.7,0,0,1,4.06-.15,2,2,0,0,0,2.46-3.16Z"/><path class="cls-1" d="M46.8,31.52a2,2,0,0,0,1,3.73,2,2,0,0,0,1-.27,3.71,3.71,0,0,1,4.06-.15,2,2,0,1,0,2.46-3.16A7.69,7.69,0,0,0,46.8,31.52Z"/></svg>