<svg id="Layer_1" data-name="Layer 1" xmlns="http://www.w3.org/2000/svg" viewBox="0 0 120 120"><defs><style>.cls-1{fill:#f9be00;}</style></defs><path class="cls-1" d="M30.82,64.07a2,2,0,0,0-2.94-2.73c-.8.86-2.67,2.64-4.05,3.93C23,66,22.36,66.67,22,67a3.5,3.5,0,0,1-.78.53,10.8,10.8,0,0,1-3.14.91,2,2,0,0,0,.33,4,1.83,1.83,0,0,0,.33,0A14.6,14.6,0,0,0,23,71.09a6.61,6.61,0,0,0,1.82-1.27c.31-.31,1-.92,1.72-1.64C28.07,66.77,29.93,65,30.82,64.07Z"/><path class="cls-1" d="M105.45,60.91l-.82-.08a17,17,0,0,1-5.35-1.12l-.57-.2a31.34,31.34,0,0,1-5-2.26,32.77,32.77,0,0,0-5.54-2.46l-1.94-.54c-.88-.23-1.86-.5-2.73-.75a3.5,3.5,0,0,1-1.23-.63,13.9,13.9,0,0,1,2.83-4.48,14.1,14.1,0,0,1,3.61-.52c2.59-.18,5.26-.37,7-1.95a2,2,0,0,1,.71-.36q3-1.17,2.09-4.16a2,2,0,0,0-.95-1.15A15,15,0,0,0,93.45,39,9.12,9.12,0,0,1,91,38.24c-2.74-2.94-6.74-2.3-9-1.34-1.43,0-4.52.34-5.37,1.19a2.06,2.06,0,0,0-.49.78,2.18,2.18,0,0,0,.16,1.77,2.38,2.38,0,0,0,1.57,1.13c-1.2,1-2.95,2.36-5.09,3.9-3,2.13-6,3.2-7.39,3.14A22.08,22.08,0,0,1,56,46.37a27.42,27.42,0,0,0-7.41-2.44,16.23,16.23,0,0,0-7.63.86,51.83,51.83,0,0,0-8.48,3.76c-3.74,1.93-7.28,3.75-10.6,4a8.1,8.1,0,0,1-5.9-2,2,2,0,1,0-2.48,3.13,12,12,0,0,0,8.67,2.83c4.12-.26,8.2-2.36,12.14-4.4a50,50,0,0,1,7.82-3.49A12.85,12.85,0,0,1,48,47.88,23.83,23.83,0,0,1,54.38,50,25.81,25.81,0,0,0,65.25,52.8c2.51.14,6.37-1.39,9.87-3.87a52.41,52.41,0,0,0,7.21-5.87A2.47,2.47,0,0,0,83,40.83a1.91,1.91,0,0,0,.36-.13s3.12-1.49,4.75.26c1.08,1.18,2.76,1.53,4.53,1.91L93,43l-.07.07c-.65.59-2.89.75-4.53.86A13.25,13.25,0,0,0,83,45a2,2,0,0,0-.24.16c-1.71,1.32-3.48,4.3-4.36,6.61a3.53,3.53,0,0,0,.16,2.81,6.19,6.19,0,0,0,3.76,2.78c.93.28,1.95.55,2.85.79l1.77.49a27.93,27.93,0,0,1,4.86,2.18,35.4,35.4,0,0,0,5.65,2.52l.56.19a21.08,21.08,0,0,0,6.27,1.33l.8.07h.2a2,2,0,0,0,.2-4Z"/><path class="cls-1" d="M73.05,63.8a2.1,2.1,0,0,0,.7-.12,42,42,0,0,0,4.36-2.38,2,2,0,0,0,1.25-.58,2,2,0,0,0,0-2.83,2.35,2.35,0,0,0-1.71-.69,2.16,2.16,0,0,0-1.24.43,41.26,41.26,0,0,1-4.06,2.3,2,2,0,0,0,.7,3.87Z"/><path class="cls-1" d="M72.05,70.31a17.79,17.79,0,0,0-1.68-1A6.38,6.38,0,0,1,68,67.5a11.85,11.85,0,0,1-1.35-6.71,2,2,0,1,0-4-.57,15.79,15.79,0,0,0,1.84,9.28,9.28,9.28,0,0,0,3.93,3.3c2.42,1.34,3.42,1.89,2,5.45a2,2,0,0,0,1.09,2.6,1.87,1.87,0,0,0,.76.15,2,2,0,0,0,1.85-1.24,9.34,9.34,0,0,0,.79-5.56,2.84,2.84,0,0,1,2.13,1,2,2,0,0,0,1.53.7,2,2,0,0,0,1.29-.47,2,2,0,0,0,.24-2.82C78.35,70.57,75.71,69.82,72.05,70.31Z"/><path class="cls-1" d="M61.13,73.41a16.69,16.69,0,0,0-1.94-2.87,8.48,8.48,0,0,1-1.7-2.73c-.75-2.9.36-6.69.37-6.73A2,2,0,1,0,54,59.93c-.06.19-1.45,4.88-.42,8.88A11.55,11.55,0,0,0,56.06,73a11.06,11.06,0,0,1,1.6,2.39,2.09,2.09,0,0,0,.25.86c.18,1.15-.26,2.47-1.75,4.41a2,2,0,0,0,3.18,2.43,11.55,11.55,0,0,0,2.54-5.51A3.16,3.16,0,0,1,63.94,79a2,2,0,0,0,1.71,1,2,2,0,0,0,1-.28A2,2,0,0,0,67.36,77C66.12,74.89,64.11,73.74,61.13,73.41Z"/><path class="cls-1" d="M49.53,74.4a13.81,13.81,0,0,0-1.62-3.14,7.39,7.39,0,0,1-1.37-3A9.35,9.35,0,0,1,48.41,62a2.22,2.22,0,0,0,.32-2.39,2,2,0,0,0-3.6.09h0a13.23,13.23,0,0,0-2.56,9,10.45,10.45,0,0,0,2,4.72c1.56,2.45,2.35,3.68-1,6.83a2,2,0,0,0,2.72,2.93,12.05,12.05,0,0,0,3.21-4.37c1.18.77,1.31,1.46,1.36,1.75a2,2,0,0,0,2,1.66,2.21,2.21,0,0,0,.35,0,2,2,0,0,0,1.62-2.31C54.29,77.43,52.58,75.64,49.53,74.4Z"/><path class="cls-1" d="M36.92,72.36a13.9,13.9,0,0,0-.54-2.18,6.37,6.37,0,0,1-.45-2.71A9.18,9.18,0,0,1,38.87,62a2,2,0,0,0-2.44-3.17A13,13,0,0,0,32,66.91a9.7,9.7,0,0,0,.59,4.45A8.93,8.93,0,0,1,33,73a.08.08,0,0,1,0,0,2,2,0,0,0-.07.94c-.26.81-1.08,1.6-2.93,2.66a2,2,0,0,0,2,3.47,11.27,11.27,0,0,0,4.18-3.72c1.46.84,1.6,1.62,1.65,1.93a2,2,0,0,0,2,1.65l.35,0a2,2,0,0,0,1.62-2.31C41.31,75.33,39.73,73.6,36.92,72.36Z"/></svg>