<svg id="Layer_1" data-name="Layer 1" xmlns="http://www.w3.org/2000/svg" viewBox="0 0 120 120"><defs><style>.cls-1{fill:#23364e;}</style></defs><path class="cls-1" d="M46.57,62.7a2.84,2.84,0,0,0,1.2-.4l5.6-4.6L59,62.3a1.79,1.79,0,0,0,2.6-.2,1.85,1.85,0,0,0,.5-1.2V54.2h26a1.8,1.8,0,1,0,0-3.6h-26V44.7a1.79,1.79,0,0,0-1.8-1.8H46.57a1.79,1.79,0,0,0-1.8,1.8v5.9h-5.1a5.91,5.91,0,0,1-5.9-5.9,5.85,5.85,0,0,1,5.9-5.9H88a1.85,1.85,0,0,0,.1-3.7H39.67a9.52,9.52,0,0,0-9.5,9.6,9.76,9.76,0,0,0,3.9,7.7A9.48,9.48,0,0,0,32,65.7a10.45,10.45,0,0,0,2.1,2.1,8.85,8.85,0,0,0-3.9,7.5,9.6,9.6,0,0,0,9.6,9.6h48.3a1.8,1.8,0,1,0,0-3.6H39.67a6,6,0,0,1-6-5.8,5.76,5.76,0,0,1,5.8-5.9H88A1.8,1.8,0,1,0,88,66H39.67a6,6,0,0,1-6-5.8,5.85,5.85,0,0,1,5.8-6h5.3v6.7A1.79,1.79,0,0,0,46.57,62.7Zm11.7-16.4V56.9l-3.8-3.1a2,2,0,0,0-2.3,0l-3.7,3.1-.1-10.6Z"/></svg>