<svg id="Layer_1" data-name="Layer 1" xmlns="http://www.w3.org/2000/svg" viewBox="0 0 120 120"><defs><style>.cls-1{fill:#23364e;}</style></defs><path class="cls-1" d="M40.3,88.6H82.1a4.26,4.26,0,0,0,4.3-4.3V28.6a4.26,4.26,0,0,0-4.3-4.3H79.4V24a2,2,0,0,0-2-2H65.8a2,2,0,0,0-2,2v.3H37.9a4.26,4.26,0,0,0-4.3,4.3V91.3A6.71,6.71,0,0,0,40.3,98H84.4a2,2,0,0,0,0-4H40.3a2.7,2.7,0,1,1,0-5.4ZM67.8,26h7.6V36.11l-2.54-2.06a2,2,0,0,0-2.52,0L67.8,36.1ZM37.6,28.6a.27.27,0,0,1,.3-.3H63.8v12a2,2,0,0,0,3.26,1.55l4.54-3.68,4.54,3.68a2,2,0,0,0,1.26.45,1.87,1.87,0,0,0,.86-.2,2,2,0,0,0,1.14-1.8v-12h2.7a.27.27,0,0,1,.3.3V84.3a.27.27,0,0,1-.3.3H40.3a6.77,6.77,0,0,0-2.7.57Z"/><path class="cls-1" d="M47.2,58.5H72.7a2,2,0,0,0,2-2V44.9a2,2,0,0,0-2-2H47.2a2,2,0,0,0-2,2V56.5A2,2,0,0,0,47.2,58.5Zm2-11.6H70.7v7.6H49.2Z"/></svg>