<svg id="Layer_1" data-name="Layer 1" xmlns="http://www.w3.org/2000/svg" viewBox="0 0 120 120"><defs><style>.cls-1{fill:#23364e;}</style></defs><path class="cls-1" d="M37.8,89.65h0a2,2,0,0,1-1.94-1.52L22.06,32.84a2,2,0,1,1,3.88-1L37.81,79.45l12-47.59a2,2,0,0,1,3.75-.37L65.12,55.73,75.67,31.55a2,2,0,0,1,2.57-1.06c.73.29,1.08.43,9.15,13.88l6.84-12.95a2,2,0,0,1,3.54,1.86l-8.5,16.1a2,2,0,0,1-3.49.1c-2.83-4.75-6-9.9-7.9-13L67,61.35a2,2,0,0,1-1.8,1.2,1.94,1.94,0,0,1-1.84-1.14l-11-23.19L39.74,88.14A2,2,0,0,1,37.8,89.65Z"/></svg>