<svg id="Layer_1" data-name="Layer 1" xmlns="http://www.w3.org/2000/svg" viewBox="0 0 120 120"><defs><style>.cls-1{fill:#f9be00;}</style></defs><path class="cls-1" d="M86,44.48a18.88,18.88,0,0,0-10.66-5c5.08-6,3.8-15.34,3.74-15.74L78.83,22l-1.75,0c-.4,0-9.75.18-15.08,6.17a14.65,14.65,0,0,0-1.74,2.46,15.2,15.2,0,0,0-1.61-2.59,17.07,17.07,0,0,0-7.22-5A2,2,0,0,0,50,26.77a13.42,13.42,0,0,1,5.55,3.76A13.8,13.8,0,0,1,58,36.84a2,2,0,0,0,.09.35,26.79,26.79,0,0,0-.28,4.39,26.13,26.13,0,0,1-3-.83,24.28,24.28,0,0,0-7-1.44A18.93,18.93,0,0,0,34,44.48c-3.1,3-6.8,8.56-6.8,18.43C27.2,85.62,40.81,98,47.8,98a16.1,16.1,0,0,0,7.8-1.78,9.2,9.2,0,0,1,8.8,0A16.1,16.1,0,0,0,72.2,98c7,0,20.6-12.39,20.6-35.1C92.8,53,89.1,47.44,86,44.48ZM65,30.84c2.9-3.26,7.65-4.32,10.26-4.67.07,2.67-.24,7.58-3.08,10.85a11.41,11.41,0,0,1-3.26,2.55,2,2,0,0,0-.33.24c-1.23.28-2.33.62-3.34.94a24.62,24.62,0,0,1-3.39.89C61.79,39,62.11,34.08,65,30.84ZM72.2,94a12.29,12.29,0,0,1-6.11-1.4,13.11,13.11,0,0,0-12.18,0A12.29,12.29,0,0,1,47.8,94c-3.87,0-16.6-9.69-16.6-31.1,0-6.7,1.92-12.07,5.56-15.53a14.93,14.93,0,0,1,11-4.07,20.19,20.19,0,0,1,5.92,1.25A19.74,19.74,0,0,0,60,45.81a20,20,0,0,0,6.45-1.25,22.44,22.44,0,0,1,5.85-1.25,14.86,14.86,0,0,1,10.94,4.07c3.64,3.46,5.56,8.83,5.56,15.53C88.8,84.32,76.07,94,72.2,94Z"/></svg>