<svg id="Layer_1" data-name="Layer 1" xmlns="http://www.w3.org/2000/svg" viewBox="0 0 120 120"><defs><style>.cls-1{fill:#f9be00;}</style></defs><path class="cls-1" d="M91.1,82.6H86.3V67.78a26.25,26.25,0,0,0-52.5,0V82.6H29a2,2,0,0,0-2,2V96a2,2,0,0,0,2,2H91.1a2,2,0,0,0,2-2V84.6A2,2,0,0,0,91.1,82.6ZM37.8,67.8a22.25,22.25,0,0,1,44.5,0V82.6H37.8ZM89.1,94H31V86.6H89.1Z"/><path class="cls-1" d="M60,51a2,2,0,0,0,0,4A12.92,12.92,0,0,1,72.9,67.9a2,2,0,0,0,4,0A16.92,16.92,0,0,0,60,51Z"/><path class="cls-1" d="M60,38.5a2,2,0,0,0,2-2V24a2,2,0,0,0-4,0V36.5A2,2,0,0,0,60,38.5Z"/><path class="cls-1" d="M80.8,47.3a2,2,0,0,0,1.41-.58l8.9-8.8a2,2,0,1,0-2.82-2.84l-8.9,8.8A2,2,0,0,0,80.8,47.3Z"/><path class="cls-1" d="M37.79,46.71a2,2,0,0,0,2.82-2.82l-8.8-8.8A2,2,0,0,0,29,37.91Z"/><path class="cls-1" d="M102.3,64.5H89.9a2,2,0,0,0,0,4h12.4a2,2,0,1,0,0-4Z"/><path class="cls-1" d="M32.1,66.5a2,2,0,0,0-2-2H17.7a2,2,0,0,0,0,4H30.1A2,2,0,0,0,32.1,66.5Z"/></svg>