<svg id="Layer_1" data-name="Layer 1" xmlns="http://www.w3.org/2000/svg" viewBox="0 0 120 120"><defs><style>.cls-1{fill:#f9be00;}</style></defs><g id="Group_38" data-name="Group 38"><path id="Path_116" data-name="Path 116" class="cls-1" d="M87,65.4a10,10,0,0,0-12.17-1.74c-6.31-6.48-12.71-12.81-18.18-18.18a10,10,0,0,0-8.94-14.95,9.74,9.74,0,0,0-6.9,3.09,10.63,10.63,0,0,0-2.65,5.31A10.07,10.07,0,0,0,33,41.76,10,10,0,0,0,45.44,57.12L63.2,74.87a10,10,0,0,0,8.28,15.25h.2a9.92,9.92,0,0,0,9.72-8,9.78,9.78,0,0,0,5.31-2.65,9.93,9.93,0,0,0,.35-14l0,0M78.17,79.26A6.56,6.56,0,0,1,66.9,84.62a6.36,6.36,0,0,1-1.85-4.78,6.64,6.64,0,0,1,2.41-4.79l.39-.33L45.59,52.47l-.33.4a6.46,6.46,0,0,1-4.64,2.4,6.66,6.66,0,0,1-5-1.86A6.57,6.57,0,0,1,41,42.14l.62.07-.1-.61a6.56,6.56,0,1,1,12.93-2.23,6.73,6.73,0,0,1,.09,1.27,6.46,6.46,0,0,1-2.19,4.73l-.38.34.37.36C61,54.44,67.17,60.57,74.26,67.93l.35.36.34-.38a6.56,6.56,0,1,1,9.77,8.77,4.17,4.17,0,0,1-.36.37,6.64,6.64,0,0,1-5.64,1.7l-.62-.1Z"/><path id="Path_117" data-name="Path 117" class="cls-1" d="M50.31,27.79A9.72,9.72,0,0,1,60,37.5a1.9,1.9,0,0,0,3.79,0A13.52,13.52,0,0,0,50.31,24a1.9,1.9,0,1,0,0,3.79"/><path id="Path_118" data-name="Path 118" class="cls-1" d="M69.11,92.21a9.73,9.73,0,0,1-9.72-9.71,1.9,1.9,0,1,0-3.8,0h0A13.52,13.52,0,0,0,69.1,96a1.9,1.9,0,0,0,.09-3.79h-.08"/></g></svg>