<svg id="Group_62" data-name="Group 62" xmlns="http://www.w3.org/2000/svg" xmlns:xlink="http://www.w3.org/1999/xlink" width="32" height="32" viewBox="0 0 32 32">
  <defs>
    <style>
      .cls-1 {
        fill: #002664;
      }

      .cls-2 {
        clip-path: url(#clip-path);
      }
    </style>
    <clipPath id="clip-path">
      <rect id="Rectangle_73" data-name="Rectangle 73" class="cls-1" width="32" height="32"/>
    </clipPath>
  </defs>
  <g id="Group_61" data-name="Group 61" class="cls-2">
    <path id="Path_188" data-name="Path 188" class="cls-1" d="M29.669,0H2.332A2.331,2.331,0,0,0,0,2.332V29.668A2.331,2.331,0,0,0,2.332,32H17.093V19.608H12.922v-4.83h4.171V11.217c0-4.133,2.524-6.384,6.212-6.384a34.248,34.248,0,0,1,3.726.19v4.32H24.473c-2.005,0-2.393.953-2.393,2.351v3.083h4.782l-.622,4.83H22.08V32h7.588A2.331,2.331,0,0,0,32,29.668V2.332A2.331,2.331,0,0,0,29.669,0" transform="translate(0)"/>
  </g>
</svg>
