<svg id="Layer_1" data-name="Layer 1" xmlns="http://www.w3.org/2000/svg" viewBox="0 0 120 120"><defs><style>.cls-1{fill:#f9be00;}</style></defs><path class="cls-1" d="M76.9,60.05c0-8.07-6.41-13.34-13.36-18.16C70.43,37.14,76.9,32,76.9,24.25a2,2,0,0,0-4,0c0,6.19-6.15,10.62-12.9,15.22-6.75-4.6-12.9-9-12.9-15.22a2,2,0,1,0-4,0c0,7.76,6.47,12.89,13.36,17.64C49.51,46.71,43.1,52,43.1,60.05c0,8.5,6.54,14,13.3,18.57-6.83,4.55-13.3,9.48-13.3,17.23a2,2,0,0,0,4,0c0-6.16,6.2-10.4,12.9-14.83,6.7,4.43,12.9,8.67,12.9,14.83a2,2,0,0,0,4,0c0-7.75-6.47-12.68-13.3-17.23C70.36,74,76.9,68.55,76.9,60.05ZM60,76.22c-6.85-4.56-12.9-9.1-12.9-16.17C47.1,53.51,53.19,49,60,44.31c6.81,4.65,12.9,9.2,12.9,15.74C72.9,67.12,66.85,71.66,60,76.22Z"/><path class="cls-1" d="M54.4,29.05a2,2,0,0,0,0,4H65.5a2,2,0,1,0,0-4Z"/><path class="cls-1" d="M65.5,91a2,2,0,0,0,0-4H54.4a2,2,0,1,0,0,4Z"/><path class="cls-1" d="M54.4,54.75H65.5a2,2,0,0,0,0-4H54.4a2,2,0,0,0,0,4Z"/><path class="cls-1" d="M65.5,65.25H54.4a2,2,0,0,0,0,4H65.5a2,2,0,0,0,0-4Z"/><path class="cls-1" d="M51.3,25.85H68.6a2,2,0,0,0,0-4H51.3a2,2,0,0,0,0,4Z"/><path class="cls-1" d="M68.6,94.15H51.3a2,2,0,1,0,0,4H68.6a2,2,0,0,0,0-4Z"/><path class="cls-1" d="M68.6,58.05H51.3a2,2,0,0,0,0,4H68.6a2,2,0,0,0,0-4Z"/></svg>