<svg id="Layer_1" data-name="Layer 1" xmlns="http://www.w3.org/2000/svg" viewBox="0 0 120 120"><defs><style>.cls-1{fill:#f9be00;}</style></defs><g id="_04_Greyhound_Breeding" data-name="04_Greyhound
Breeding"><g id="Group_72" data-name="Group 72"><g id="Group_52" data-name="Group 52"><path id="Path_172" data-name="Path 172" class="cls-1" d="M81.86,82.7c-.55,4.21-3.55,7.12-8,7.79a11.43,11.43,0,0,1-6-.76c-.65-.27-1.3-.63-2-1A14.72,14.72,0,0,0,61,86.85a2.14,2.14,0,0,0-.71-.1H60a2.3,2.3,0,0,0-.69.1,14.55,14.55,0,0,0-4.92,1.9c-.68.37-1.33.71-2,1a11.33,11.33,0,0,1-6,.76c-4.47-.66-7.46-3.58-8-7.79A11,11,0,0,1,45,71.25c3.78-1.64,6.32-7.2,7.24-9.52,2-4.93,4.33-7.09,7.91-7.18,3.58.09,6,2.25,7.91,7.18.92,2.33,3.46,7.88,7.24,9.52A11,11,0,0,1,81.86,82.7m-4.8-15.52c-1.47-.63-3.48-3.56-4.88-7.09-.94-2.38-3.75-9.41-11.35-9.93a2.42,2.42,0,0,0-.47,0h-.44a2.42,2.42,0,0,0-.47,0c-7.6.52-10.41,7.57-11.35,9.93-1.4,3.53-3.4,6.46-4.88,7.09A15.48,15.48,0,0,0,34,83.28c.81,6.18,5.32,10.63,11.76,11.6a15.48,15.48,0,0,0,8.36-1.07,26.14,26.14,0,0,0,2.37-1.17,10.61,10.61,0,0,1,3.64-1.43,10.61,10.61,0,0,1,3.64,1.43,21.79,21.79,0,0,0,2.37,1.17,15.48,15.48,0,0,0,8.36,1.07c6.44-1,10.94-5.4,11.76-11.59a15.52,15.52,0,0,0-9.22-16.11"/><path id="Path_173" data-name="Path 173" class="cls-1" d="M35.12,62.46a5.13,5.13,0,0,1-3.55,2.7c-3.1.5-6.28-2.66-6.94-6.78a9.12,9.12,0,0,1,.94-5.91,5.09,5.09,0,0,1,3.55-2.69,5,5,0,0,1,.67-.05c2.9,0,5.66,3,6.27,6.83a9,9,0,0,1-.94,5.9M39,64.64a13.5,13.5,0,0,0,1.46-8.79c-1-6-5.54-10.57-10.65-10.57a8.94,8.94,0,0,0-1.37.11,9.41,9.41,0,0,0-6.71,4.88,13.52,13.52,0,0,0-1.46,8.8c1,6,5.54,10.56,10.65,10.56a8.94,8.94,0,0,0,1.37-.11A9.4,9.4,0,0,0,39,64.64"/><path id="Path_174" data-name="Path 174" class="cls-1" d="M47,29.37c3.19,0,5.78,3.49,5.78,7.79S50.21,45,47,45s-5.78-3.49-5.78-7.79,2.6-7.79,5.78-7.79m0,20c5.64,0,10.22-5.48,10.22-12.21S52.66,25,47,25s-10.21,5.47-10.21,12.2S41.39,49.37,47,49.37"/><path id="Path_175" data-name="Path 175" class="cls-1" d="M95.21,58.81c-.87,3.61-3.65,6.33-6.45,6.33a4.21,4.21,0,0,1-1-.12,5.06,5.06,0,0,1-3.32-3,9.14,9.14,0,0,1-.47-6c.88-3.61,3.65-6.33,6.45-6.33a4.21,4.21,0,0,1,1,.12,5.06,5.06,0,0,1,3.32,3,9.08,9.08,0,0,1,.47,6M92.46,45.59a8.75,8.75,0,0,0-2-.24c-4.87,0-9.4,4.09-10.76,9.72A13.5,13.5,0,0,0,80.42,64a9.39,9.39,0,0,0,6.3,5.38,8.82,8.82,0,0,0,2,.24h0c4.87,0,9.4-4.09,10.76-9.72A13.5,13.5,0,0,0,98.76,51a9.37,9.37,0,0,0-6.3-5.38"/><path id="Path_176" data-name="Path 176" class="cls-1" d="M72.92,29.37c3.19,0,5.78,3.49,5.78,7.79S76.11,45,72.92,45s-5.78-3.49-5.78-7.79,2.59-7.79,5.78-7.79m0,20c5.64,0,10.22-5.48,10.22-12.21S78.56,25,72.92,25,62.7,30.43,62.7,37.16s4.58,12.21,10.22,12.21"/></g></g></g></svg>