<svg id="Layer_1" data-name="Layer 1" xmlns="http://www.w3.org/2000/svg" viewBox="0 0 120 120"><defs><style>.cls-1{fill:#f9be00;}</style></defs><path class="cls-1" d="M39.59,73.19a2,2,0,0,0,.2-2.76c-4-4.79.15-15,1.14-16.54a2.37,2.37,0,0,0-1.21-3.65,5.51,5.51,0,0,0,2.37-.57,7.61,7.61,0,0,0,2.44-2.13c.75-.91,1.23-1.51,4.8-1.14,3.12.34,5.57-1.19,7.36-2.3l.08-.06a41.37,41.37,0,0,1-4.66,4c-3.33,2.58-6,4.61-6,7a12.21,12.21,0,0,0,4,8.49A7.08,7.08,0,0,0,56,65.28c4.15-.63,8.6-5,11.55-7.91.73-.72,1.42-1.4,1.73-1.65.12-.08.56-.29.91-.46a24,24,0,0,0,3.19-1.76,2,2,0,0,0,1.74,2l.21,0a18.38,18.38,0,0,0,3.82.41c6.29,0,12.46-3.3,17.68-9.55a2,2,0,1,0-3.06-2.57c-3.74,4.47-9.83,9.45-17.61,7.8l-.38-.08c3.5-3.49,6.19-9.78,1.47-21.29a2,2,0,1,0-3.7,1.52c6,14.61-1.49,18.17-5.08,19.88a9.15,9.15,0,0,0-1.61.89,28.4,28.4,0,0,0-2.12,2c-2.26,2.23-6.47,6.37-9.34,6.81a3.2,3.2,0,0,1-2.65-.86,8.32,8.32,0,0,1-2.55-5.34c.39-.83,2.8-2.69,4.41-3.94,3.46-2.68,6.73-5.21,6.93-8a3.71,3.71,0,0,0-1.08-2.91c-1.88-2-4.26-.52-5.83.46s-3.08,1.91-4.83,1.72c-5.3-.55-6.84.79-8.31,2.58a4,4,0,0,1-1.18,1.12,4,4,0,0,1-1.81.06c-3.11-.26-6.37,0-9.2,5.86a2,2,0,0,0,1.94,2.86c.91-.06,2.05-.24,3.26-.42.54-.09,1.24-.19,1.91-.28a32.7,32.7,0,0,0-1.83,6.19c-.81,4.4-.44,8.14,1.08,11-8.43,6.89-15.76,6.2-17.89,5.8A2,2,0,1,0,17,81.07a18.82,18.82,0,0,0,3.4.29C24.72,81.36,32,80.08,39.59,73.19Zm-3.54-23a3.65,3.65,0,0,1,.88-.1Z"/><path class="cls-1" d="M104,50.5a2,2,0,0,0-2.82.2c-11.34,13-17.4,12-25.07,10.71L73.75,61c-3.66-.56-5.92,2.49-8.79,6.36a61.66,61.66,0,0,1-5.35,6.53c-4.84,5-10.37,4.42-14.1,3.54a2,2,0,0,0-1.78.45C41.69,79.71,31,88.58,21,86.74a2,2,0,1,0-.72,3.93,19.56,19.56,0,0,0,3.56.32c9.45,0,18.21-6.43,21.75-9.42,6.79,1.33,12.47-.3,16.89-4.87a66.55,66.55,0,0,0,5.69-6.93c2.06-2.78,3.69-5,5-4.79l2.25.38c8.2,1.39,15.95,2.71,28.76-12A2,2,0,0,0,104,50.5Z"/></svg>