<svg xmlns="http://www.w3.org/2000/svg" xmlns:xlink="http://www.w3.org/1999/xlink" width="88.257" height="73.004" viewBox="0 0 88.257 73.004">
  <defs>
    <clipPath id="clip-path">
      <rect id="Rectangle_59" data-name="Rectangle 59" width="88.257" height="73.004" transform="translate(0 0)" fill="#002664"/>
    </clipPath>
  </defs>
  <g id="Group_90" data-name="Group 90" transform="translate(0 0)">
    <g id="Group_40" data-name="Group 40" clip-path="url(#clip-path)">
      <path id="Path_119" data-name="Path 119" d="M5.708,69.155a1.675,1.675,0,0,0,0,3.349H86.086a1.675,1.675,0,0,0,0-3.349H63.479V44.739l4.388-4.393A1.674,1.674,0,0,0,65.5,37.979L63.479,40V28.972a1.675,1.675,0,0,0-3.349,0v5.171l-2.856-2.858a1.674,1.674,0,1,0-2.367,2.367l5.223,5.227V69.155Z" fill="#002664" fill-rule="evenodd"/>
      <path id="Path_120" data-name="Path 120" d="M86.086,73H5.708a2.175,2.175,0,0,1,0-4.349H59.63V39.086l-5.076-5.08a2.174,2.174,0,1,1,3.073-3.076l2,2.005V28.972a2.175,2.175,0,0,1,4.349,0V38.8l1.167-1.17a2.16,2.16,0,0,1,1.536-.638h0A2.176,2.176,0,0,1,68.22,40.7l-4.241,4.245V68.655H86.086a2.175,2.175,0,0,1,0,4.349M5.708,69.655a1.175,1.175,0,0,0,0,2.349H86.086a1.175,1.175,0,0,0,0-2.349H62.979V44.532l4.535-4.539a1.177,1.177,0,0,0-.831-2.005h0a1.16,1.16,0,0,0-.828.345l-2.875,2.879V28.972a1.175,1.175,0,0,0-2.349,0v6.379l-3.709-3.713a1.174,1.174,0,1,0-1.66,1.661l5.369,5.373V69.655Z" fill="#002664"/>
      <path id="Path_121" data-name="Path 121" d="M47.706,46.413a25.2,25.2,0,0,0,7.845,3.542,1.673,1.673,0,1,0,.838-3.24,21.781,21.781,0,1,1,10.311.12,1.675,1.675,0,1,0,.756,3.264,25.115,25.115,0,1,0-19.75-3.686" fill="#002664" fill-rule="evenodd"/>
      <path id="Path_122" data-name="Path 122" d="M67.082,50.641a2.174,2.174,0,0,1-.5-4.293,21.208,21.208,0,1,0-10.073-.117,2.174,2.174,0,1,1-1.088,4.209,25.622,25.622,0,1,1,12.143.146,2.14,2.14,0,0,1-.487.055M61.806,3.356a22.269,22.269,0,0,1,5.007,43.967,1.175,1.175,0,1,0,.532,2.289,24.59,24.59,0,1,0-11.669-.141,1.179,1.179,0,0,0,1.433-.842,1.174,1.174,0,0,0-.845-1.429A22.273,22.273,0,0,1,61.806,3.356" fill="#002664"/>
      <path id="Path_123" data-name="Path 123" d="M43.732,53.185l-12.7-8.112A.967.967,0,0,0,30,45.065L16.85,53.178a.97.97,0,0,0,1.018,1.651l1.43-.884V69.156h1.939V52.748L30.5,47.034l8.833,5.642v16.48h1.939V53.914l1.417.906a.97.97,0,1,0,1.043-1.635" fill="#002664"/>
      <path id="Path_124" data-name="Path 124" d="M42.273,70.156h-3.94V53.224l-7.841-5.01-8.254,5.092v16.85H18.3V55.735a2.015,2.015,0,0,1-2.614-.7,1.969,1.969,0,0,1,.643-2.712l13.147-8.112a1.979,1.979,0,0,1,2.095.016l12.7,8.112a1.97,1.97,0,0,1-2,3.392Zm.954-16.18h0l.505-.792Z" fill="#002664"/>
      <path id="Path_125" data-name="Path 125" d="M36.295,69.155h-4V61.046a2.009,2.009,0,1,0-4.018,0v8.109h-4V61.046a6.009,6.009,0,1,1,12.018,0Z" fill="#002664"/>
      <path id="Path_126" data-name="Path 126" d="M15.546,30.36a6.49,6.49,0,1,1,6.49-6.49,6.5,6.5,0,0,1-6.49,6.49m0-14.955a8.561,8.561,0,1,0,8.562,8.562A8.594,8.594,0,0,0,15.546,15.4" fill="#002664"/>
      <path id="Path_127" data-name="Path 127" d="M15.546,33.027a9.061,9.061,0,1,1,9.062-9.06,9.071,9.071,0,0,1-9.062,9.06m0-17.122a8.061,8.061,0,1,0,8.062,8.062A8.071,8.071,0,0,0,15.546,15.9m0,14.955a6.99,6.99,0,1,1,6.99-6.99,7,7,0,0,1-6.99,6.99m0-12.979a5.99,5.99,0,1,0,5.99,5.989,6,6,0,0,0-5.99-5.989" fill="#002664"/>
      <path id="Path_128" data-name="Path 128" d="M14.513,35.815v2.071a1.034,1.034,0,0,0,2.067,0V35.815a1.041,1.041,0,0,0-1.034-1.033.986.986,0,0,0-1.033,1.033" fill="#002664"/>
      <path id="Path_129" data-name="Path 129" d="M15.546,39.42a1.535,1.535,0,0,1-1.533-1.534V35.815a1.482,1.482,0,0,1,1.533-1.533,1.535,1.535,0,0,1,1.534,1.533v2.071a1.536,1.536,0,0,1-1.534,1.534m0-4.138a.5.5,0,0,0-.533.533v2.071a.534.534,0,1,0,1.067,0V35.815a.54.54,0,0,0-.534-.533" fill="#002664"/>
      <path id="Path_130" data-name="Path 130" d="M19.686,33.938a1.073,1.073,0,0,0-.565,1.41l.844,1.976a1.134,1.134,0,0,0,.943.656.583.583,0,0,0,.376-.092,1.073,1.073,0,0,0,.565-1.41L21,34.5a.934.934,0,0,0-1.317-.565" fill="#002664"/>
      <path id="Path_131" data-name="Path 131" d="M20.907,38.479a1.633,1.633,0,0,1-1.389-.932l-.858-2a1.813,1.813,0,0,1-.009-1.214,1.392,1.392,0,0,1,.826-.849,1.329,1.329,0,0,1,1.1-.067,1.509,1.509,0,0,1,.9.931l.831,1.935a1.589,1.589,0,0,1-.783,2.051,1.121,1.121,0,0,1-.619.148m-.814-4.153a.281.281,0,0,0-.149.04l-.1.046a.4.4,0,0,0-.254.261.794.794,0,0,0,0,.516l.83,1.938a.63.63,0,0,0,.6.345L21.1,37.4l.023.017c.286-.095.352-.471.249-.778L20.543,34.7a.529.529,0,0,0-.312-.349.442.442,0,0,0-.138-.025" fill="#002664"/>
      <path id="Path_132" data-name="Path 132" d="M24.673,34.594a1.153,1.153,0,0,0,1.506,0,1.144,1.144,0,0,0,0-1.506l-1.506-1.507a1.066,1.066,0,1,0-1.507,1.507Z" fill="#002664"/>
      <path id="Path_133" data-name="Path 133" d="M25.426,35.374a1.564,1.564,0,0,1-1.107-.427l-1.506-1.5a1.566,1.566,0,0,1,2.213-2.215l1.506,1.508a1.533,1.533,0,0,1-1.106,2.639M23.92,31.8a.574.574,0,0,0-.4.138.649.649,0,0,0,0,.8l1.5,1.505a.705.705,0,0,0,.8,0,.651.651,0,0,0,0-.8l-1.506-1.508a.575.575,0,0,0-.4-.137" fill="#002664"/>
      <path id="Path_134" data-name="Path 134" d="M28.434,30.36a1.021,1.021,0,0,0,.941-.657,1.106,1.106,0,0,0-.564-1.41l-1.975-.845a1.074,1.074,0,0,0-.845,1.975l1.975.845a1.038,1.038,0,0,0,.468.092" fill="#002664"/>
      <path id="Path_135" data-name="Path 135" d="M28.434,30.86a1.531,1.531,0,0,1-.688-.142l-1.952-.835a1.574,1.574,0,0,1,1.2-2.909l2.013.859a1.614,1.614,0,0,1,.843,2.028,1.512,1.512,0,0,1-1.416,1m-2.012-2.986a.587.587,0,0,0-.548.361.61.61,0,0,0,.339.74l1.949.834a.6.6,0,0,0,.272.051.552.552,0,0,0,.457-.28.633.633,0,0,0-.3-.839l-1.948-.833a.744.744,0,0,0-.218-.034" fill="#002664"/>
      <path id="Path_136" data-name="Path 136" d="M26.362,23.966A1.042,1.042,0,0,0,27.4,25h2.071a1.033,1.033,0,1,0,0-2.067H27.4a.986.986,0,0,0-1.033,1.033" fill="#002664"/>
      <path id="Path_137" data-name="Path 137" d="M29.467,25.5H27.4a1.536,1.536,0,0,1-1.534-1.534,1.62,1.62,0,0,1,.568-1.226,1.275,1.275,0,0,1,1.05-.3l1.987-.007a1.533,1.533,0,0,1,0,3.067M27.3,23.426a.314.314,0,0,0-.223.078.639.639,0,0,0-.213.462.541.541,0,0,0,.534.534h2.071a.533.533,0,0,0,0-1.067H27.4a.715.715,0,0,0-.1-.007" fill="#002664"/>
      <path id="Path_138" data-name="Path 138" d="M25.518,19.829a1.131,1.131,0,0,0,.942.656.58.58,0,0,0,.376-.092l1.976-.844a1.075,1.075,0,0,0-.846-1.976l-1.883.841a1.038,1.038,0,0,0-.565,1.415" fill="#002664"/>
      <path id="Path_139" data-name="Path 139" d="M26.46,20.985a1.634,1.634,0,0,1-1.39-.933v0a1.535,1.535,0,0,1,.789-2.083l1.9-.851a1.579,1.579,0,0,1,2.089.864,1.563,1.563,0,0,1-.881,2.043l-1.879.8a1.1,1.1,0,0,1-.631.157m-.495-1.379a.641.641,0,0,0,.608.372l2.042-.89A.6.6,0,0,0,28.9,18.3c-.1-.286-.472-.35-.779-.249l-1.836.824c-.074.037-.536.3-.322.735" fill="#002664"/>
      <path id="Path_140" data-name="Path 140" d="M23.919,16.627a1.072,1.072,0,0,0,.753-.28l1.507-1.506a1.066,1.066,0,1,0-1.507-1.507l-1.506,1.507a1.144,1.144,0,0,0,0,1.506,1.073,1.073,0,0,0,.753.28" fill="#002664"/>
      <path id="Path_141" data-name="Path 141" d="M23.919,17.127a1.564,1.564,0,0,1-1.106-2.64l1.506-1.506a1.65,1.65,0,0,1,2.213,0,1.644,1.644,0,0,1,0,2.215L25.026,16.7a1.561,1.561,0,0,1-1.107.427m1.507-3.576a.572.572,0,0,0-.4.138L23.52,15.195a.652.652,0,0,0,0,.8.705.705,0,0,0,.8,0l1.507-1.506a.652.652,0,0,0,0-.8.575.575,0,0,0-.4-.137" fill="#002664"/>
      <path id="Path_142" data-name="Path 142" d="M19.686,14a.568.568,0,0,0,.376.092A1.021,1.021,0,0,0,21,13.431l.846-1.975a1.075,1.075,0,0,0-1.976-.845l-.844,1.975A1.158,1.158,0,0,0,19.686,14" fill="#002664"/>
      <path id="Path_143" data-name="Path 143" d="M20.061,14.588a1.075,1.075,0,0,1-.655-.174,1.651,1.651,0,0,1-.852-1.987l.859-2.012a1.574,1.574,0,0,1,2.91,1.2l-.86,2.015a1.5,1.5,0,0,1-1.4.96m-.079-1c.028,0,.062,0,.079,0a.549.549,0,0,0,.457-.28l.87-2.049a.575.575,0,1,0-1.067-.426l-.833,1.949a.664.664,0,0,0,.423.768Z" fill="#002664"/>
      <path id="Path_144" data-name="Path 144" d="M15.546,13.146a1.041,1.041,0,0,0,1.034-1.033V10.042a1.034,1.034,0,1,0-2.067,0v2.071a1.041,1.041,0,0,0,1.033,1.033" fill="#002664"/>
      <path id="Path_145" data-name="Path 145" d="M15.546,13.646a1.535,1.535,0,0,1-1.533-1.534V10.041a1.534,1.534,0,0,1,3.067,0v2.071a1.536,1.536,0,0,1-1.534,1.534m0-4.138a.54.54,0,0,0-.533.533v2.071a.534.534,0,1,0,1.067,0V10.041a.54.54,0,0,0-.534-.533" fill="#002664"/>
      <path id="Path_146" data-name="Path 146" d="M10,13.431a1.13,1.13,0,0,0,.941.656.583.583,0,0,0,.377-.092,1.073,1.073,0,0,0,.565-1.41l-.845-1.974a1.074,1.074,0,1,0-1.975.844Z" fill="#002664"/>
      <path id="Path_147" data-name="Path 147" d="M10.939,14.587a1.631,1.631,0,0,1-1.388-.933L8.608,11.67a1.574,1.574,0,1,1,2.9-1.218l.831,1.937a1.587,1.587,0,0,1-.783,2.05,1.119,1.119,0,0,1-.619.148m-.492-1.376a.634.634,0,0,0,.606.369l.081-.076.024.017c.286-.1.351-.47.248-.778l-.83-1.936a.591.591,0,0,0-.793-.287c-.285.094-.351.47-.248.778Z" fill="#002664"/>
      <path id="Path_148" data-name="Path 148" d="M6.425,16.348a1.065,1.065,0,0,0,.753.28,1.076,1.076,0,0,0,.754-.28,1.148,1.148,0,0,0,0-1.507L6.425,13.335a1.144,1.144,0,0,0-1.506,0,1.144,1.144,0,0,0,0,1.506Z" fill="#002664"/>
      <path id="Path_149" data-name="Path 149" d="M7.177,17.128A1.562,1.562,0,0,1,6.071,16.7L4.565,15.194a1.643,1.643,0,0,1,0-2.214,1.567,1.567,0,0,1,1.105-.427h0a1.566,1.566,0,0,1,1.106.428l1.507,1.506a1.655,1.655,0,0,1,0,2.214,1.569,1.569,0,0,1-1.109.427m-.4-1.134a.7.7,0,0,0,.8,0,.653.653,0,0,0,0-.8L6.071,13.688a.582.582,0,0,0-.4-.135h0a.575.575,0,0,0-.4.135.651.651,0,0,0,0,.8Z" fill="#002664"/>
      <path id="Path_150" data-name="Path 150" d="M2.191,19.544l1.975.846a.574.574,0,0,0,.377.091,1.024,1.024,0,0,0,.941-.657,1.108,1.108,0,0,0-.565-1.41l-1.975-.845a1.1,1.1,0,0,0-1.409.566,1.321,1.321,0,0,0,.656,1.409" fill="#002664"/>
      <path id="Path_151" data-name="Path 151" d="M4.542,20.982a1.1,1.1,0,0,1-.634-.158L2,20.006a1.827,1.827,0,0,1-.957-1.955l.045-.138A1.613,1.613,0,0,1,3.1,17.095l2.012.86a1.612,1.612,0,0,1,.844,2.027,1.514,1.514,0,0,1-1.417,1m-.079-1c.028,0,.062,0,.079,0A.551.551,0,0,0,5,19.7a.632.632,0,0,0-.3-.838L2.748,18.03a.6.6,0,0,0-.73.262.833.833,0,0,0,.358.788l.011,0Z" fill="#002664"/>
      <path id="Path_152" data-name="Path 152" d="M1.533,25H3.6a1.033,1.033,0,1,0,0-2.067H1.533a1.033,1.033,0,0,0,0,2.067" fill="#002664"/>
      <path id="Path_153" data-name="Path 153" d="M3.6,25.5H1.533a1.526,1.526,0,0,1-1.088-.456A1.508,1.508,0,0,1,0,23.963a1.534,1.534,0,0,1,1.533-1.53H3.6a1.533,1.533,0,1,1,0,3.067M1.533,23.433A.54.54,0,0,0,1,23.967a.519.519,0,0,0,.154.372.529.529,0,0,0,.379.161H3.6a.533.533,0,1,0,0-1.067Z" fill="#002664"/>
      <path id="Path_154" data-name="Path 154" d="M5.576,28.106a1.073,1.073,0,0,0-1.41-.565l-1.975.844a1.073,1.073,0,0,0-.565,1.41,1.131,1.131,0,0,0,.941.658.584.584,0,0,0,.377-.092l1.975-.846a1.107,1.107,0,0,0,.657-1.41Z" fill="#002664"/>
      <path id="Path_155" data-name="Path 155" d="M2.568,30.952a1.63,1.63,0,0,1-1.389-.933,1.818,1.818,0,0,1-.022-1.241,1.4,1.4,0,0,1,.877-.868l1.936-.83a1.826,1.826,0,0,1,1.214-.009,1.392,1.392,0,0,1,.862.862,1.6,1.6,0,0,1-.93,2.042L3.2,30.8a1.1,1.1,0,0,1-.632.157M4.6,27.969a.866.866,0,0,0-.274.046l-1.937.83a.434.434,0,0,0-.292.275.8.8,0,0,0,.005.517.643.643,0,0,0,.581.309l2.04-.891a.611.611,0,0,0,.391-.764L5.1,28.264a.4.4,0,0,0-.261-.254.711.711,0,0,0-.242-.041" fill="#002664"/>
      <path id="Path_156" data-name="Path 156" d="M5.672,34.875a1.076,1.076,0,0,0,.754-.28l1.506-1.506a1.145,1.145,0,0,0,0-1.507,1.144,1.144,0,0,0-1.506,0L4.919,33.089a1.146,1.146,0,0,0,0,1.506,1.067,1.067,0,0,0,.753.28" fill="#002664"/>
      <path id="Path_157" data-name="Path 157" d="M5.672,35.375a1.562,1.562,0,0,1-1.106-.427,1.647,1.647,0,0,1,0-2.212l1.507-1.507a1.7,1.7,0,0,1,2.213,0,1.644,1.644,0,0,1,0,2.214l-1.5,1.505a1.565,1.565,0,0,1-1.108.427M7.179,31.8a.577.577,0,0,0-.4.136L5.273,33.443a.653.653,0,0,0,0,.8.708.708,0,0,0,.8,0l1.505-1.505a.652.652,0,0,0,0-.8.582.582,0,0,0-.4-.136" fill="#002664"/>
      <path id="Path_158" data-name="Path 158" d="M10,34.5l-.845,1.975a1.107,1.107,0,0,0,.565,1.41.571.571,0,0,0,.377.092,1.025,1.025,0,0,0,.941-.658l.845-1.974a1.106,1.106,0,0,0-.565-1.41A.962.962,0,0,0,10,34.5" fill="#002664"/>
      <path id="Path_159" data-name="Path 159" d="M10.1,38.475A1.08,1.08,0,0,1,9.44,38.3a1.606,1.606,0,0,1-.761-1.987l.872-2.04a1.706,1.706,0,0,1,1.009-.9,1.276,1.276,0,0,1,1.012.125,1.6,1.6,0,0,1,.784,2L11.5,37.514a1.5,1.5,0,0,1-1.4.961m-.08-1c.028,0,.063,0,.08,0a.549.549,0,0,0,.457-.281l.869-2.047a.609.609,0,0,0-.327-.766.293.293,0,0,0-.252-.045.719.719,0,0,0-.39.374l-.838,1.959a.608.608,0,0,0,.327.766Z" fill="#002664"/>
    </g>
  </g>
</svg>
