<svg xmlns="http://www.w3.org/2000/svg" xmlns:xlink="http://www.w3.org/1999/xlink" width="79.865" height="70.093" viewBox="0 0 79.865 70.093">
  <defs>
    <clipPath id="clip-path">
      <rect id="Rectangle_65" data-name="Rectangle 65" width="79.865" height="70.093" fill="#002664"/>
    </clipPath>
  </defs>
  <g id="Group_93" data-name="Group 93" transform="translate(0 0)">
    <g id="Group_52" data-name="Group 52" transform="translate(0 0)" clip-path="url(#clip-path)">
      <path id="Path_172" data-name="Path 172" d="M60.33,55.111c-.554,4.209-3.552,7.12-8.017,7.787a11.341,11.341,0,0,1-5.98-.766c-.653-.274-1.3-.62-1.977-.987a14.9,14.9,0,0,0-4.9-1.89,2.242,2.242,0,0,0-.711-.1c-.046,0-.087.01-.131.012s-.085-.01-.13-.012a2.19,2.19,0,0,0-.692.1,14.857,14.857,0,0,0-4.923,1.895c-.682.367-1.326.713-1.979.987a11.352,11.352,0,0,1-5.98.766c-4.465-.666-7.461-3.579-8.017-7.787a11.03,11.03,0,0,1,6.568-11.465c3.779-1.641,6.32-7.207,7.238-9.524,1.956-4.942,4.334-7.1,7.914-7.189,3.58.087,5.959,2.247,7.914,7.189.918,2.317,3.459,7.883,7.238,9.523A11.031,11.031,0,0,1,60.33,55.111m-4.8-15.524c-1.473-.639-3.481-3.555-4.879-7.089-.941-2.378-3.747-9.409-11.348-9.944a2.176,2.176,0,0,0-.471-.053c-.077,0-.146.011-.224.012s-.146-.012-.224-.012a2.116,2.116,0,0,0-.471.053c-7.6.535-10.406,7.566-11.348,9.944-1.4,3.535-3.4,6.45-4.879,7.09a15.458,15.458,0,0,0-9.2,16.1c.815,6.185,5.321,10.625,11.758,11.587a15.449,15.449,0,0,0,2.27.169,15.735,15.735,0,0,0,6.086-1.233c.852-.357,1.621-.771,2.366-1.171a10.4,10.4,0,0,1,3.637-1.431,10.376,10.376,0,0,1,3.638,1.431c.744.4,1.515.815,2.366,1.171A15.741,15.741,0,0,0,50.7,67.444a15.445,15.445,0,0,0,2.269-.169c6.439-.962,10.943-5.4,11.758-11.587a15.462,15.462,0,0,0-9.2-16.1" transform="translate(1.456 2.65)" fill="#002664"/>
      <path id="Path_173" data-name="Path 173" d="M15.051,35.372a5.068,5.068,0,0,1-3.545,2.686c-3.1.5-6.28-2.654-6.939-6.782a9.088,9.088,0,0,1,.938-5.911A5.066,5.066,0,0,1,9.05,22.679a4.348,4.348,0,0,1,.67-.053c2.9,0,5.657,3,6.27,6.835a9.1,9.1,0,0,1-.938,5.91m3.86,2.182a13.516,13.516,0,0,0,1.459-8.788C19.409,22.743,14.83,18.2,9.719,18.2a8.773,8.773,0,0,0-1.368.107,9.409,9.409,0,0,0-6.707,4.875A13.512,13.512,0,0,0,.186,31.972c.961,6.022,5.541,10.563,10.65,10.563a8.764,8.764,0,0,0,1.368-.108,9.41,9.41,0,0,0,6.707-4.874" transform="translate(0 2.144)" fill="#002664"/>
      <path id="Path_174" data-name="Path 174" d="M25.188,4.424c3.189,0,5.784,3.492,5.784,7.787S28.377,20,25.188,20s-5.782-3.493-5.782-7.788S22,4.424,25.188,4.424m0,20c5.636,0,10.221-5.477,10.221-12.212S30.824,0,25.188,0,14.969,5.479,14.969,12.211s4.584,12.212,10.219,12.212" transform="translate(1.763 -0.001)" fill="#002664"/>
      <path id="Path_175" data-name="Path 175" d="M68.9,31.716c-.874,3.612-3.649,6.334-6.451,6.334a4.265,4.265,0,0,1-1-.118,5.068,5.068,0,0,1-3.321-2.955,9.1,9.1,0,0,1-.467-5.967c.875-3.611,3.649-6.335,6.452-6.335a4.254,4.254,0,0,1,1,.12,5.067,5.067,0,0,1,3.322,2.955,9.1,9.1,0,0,1,.467,5.967M66.155,18.493a8.679,8.679,0,0,0-2.043-.243c-4.874,0-9.4,4.087-10.764,9.72a13.5,13.5,0,0,0,.76,8.877,9.4,9.4,0,0,0,6.3,5.384,8.683,8.683,0,0,0,2.044.244h0c4.873,0,9.4-4.089,10.763-9.72a13.524,13.524,0,0,0-.76-8.878,9.4,9.4,0,0,0-6.3-5.384" transform="translate(6.236 2.15)" fill="#002664"/>
      <path id="Path_176" data-name="Path 176" d="M48.353,4.424c3.189,0,5.782,3.492,5.782,7.787S51.542,20,48.353,20s-5.784-3.493-5.784-7.788,2.593-7.787,5.784-7.787m0,20c5.635,0,10.22-5.477,10.22-12.212S53.988,0,48.353,0,38.132,5.479,38.132,12.211s4.585,12.212,10.221,12.212" transform="translate(4.492 -0.001)" fill="#002664"/>
    </g>
  </g>
</svg>
