<svg xmlns="http://www.w3.org/2000/svg" xmlns:xlink="http://www.w3.org/1999/xlink" width="120.571" height="73.003" viewBox="0 0 120.571 73.003">  <defs>    <clipPath id="clip-path">      <rect id="Rectangle_62" data-name="Rectangle 62" width="120.571" height="73.003" transform="translate(0 0)" fill="#002664"/>    </clipPath>  </defs>  <g id="Group_75" data-name="Group 75" transform="translate(0 0)">    <g id="Group_46" data-name="Group 46" clip-path="url(#clip-path)">      <path id="Path_165" data-name="Path 165" d="M105.213,42.289a2.145,2.145,0,0,0-2.143,2.143V60.788H94.11l-.048-.445a11.383,11.383,0,0,0-22.626,0l-.049.445H35.968l-.049-.445a11.383,11.383,0,0,0-22.626,0l-.049.445H4.285V34.009L24.019,26.62a2.185,2.185,0,0,0,1.08-.841L38.994,4.288h66.219a2.143,2.143,0,0,0,0-4.285H37.821a2.113,2.113,0,0,0-1.811.97l-14.17,21.9L1.41,30.529A2.2,2.2,0,0,0,0,32.539V62.932a2.257,2.257,0,0,0,2.144,2.142H13.768l.119.332a11.362,11.362,0,0,0,21.44,0l.118-.332H71.91l.118.332a11.363,11.363,0,0,0,21.441,0l.118-.332h11.626a2.256,2.256,0,0,0,2.142-2.142v-18.5a2.144,2.144,0,0,0-2.142-2.143M24.606,68.717a7.107,7.107,0,1,1,7.107-7.107,7.032,7.032,0,0,1-7.107,7.107m58.143,0a7.107,7.107,0,1,1,7.106-7.107,7.032,7.032,0,0,1-7.106,7.107" fill="#002664"/>      <path id="Path_166" data-name="Path 166" d="M115.785,21.145h-34.3a2.143,2.143,0,0,0,0,4.286h34.3a2.143,2.143,0,0,0,0-4.286" fill="#002664"/>      <path id="Path_167" data-name="Path 167" d="M110.5,31.717H81.484a2.143,2.143,0,0,0,0,4.286H110.5a2.143,2.143,0,1,0,0-4.286" fill="#002664"/>      <path id="Path_168" data-name="Path 168" d="M118.427,10.574H81.485a2.143,2.143,0,1,0,0,4.285h36.942a2.143,2.143,0,1,0,0-4.285" fill="#002664"/>    </g>  </g></svg>