<svg xmlns="http://www.w3.org/2000/svg" xmlns:xlink="http://www.w3.org/1999/xlink" width="76.397" height="74" viewBox="0 0 76.397 74">  <defs>    <clipPath id="clip-path">      <rect id="Rectangle_61" data-name="Rectangle 61" width="76.397" height="74" transform="translate(0 0)" fill="#f9be00"/>    </clipPath>  </defs>  <g id="Group_92" data-name="Group 92" transform="translate(0 0)">    <g id="Group_44" data-name="Group 44" clip-path="url(#clip-path)">      <path id="Path_162" data-name="Path 162" d="M60.369,74H6.93A6.93,6.93,0,0,1,.5,64.5L7.014,48.2a6.9,6.9,0,0,1,6.434-4.355h40.4A6.9,6.9,0,0,1,60.284,48.2L66.8,64.5A6.929,6.929,0,0,1,60.369,74M13.448,47.846a2.915,2.915,0,0,0-2.719,1.841l-6.518,16.3A2.929,2.929,0,0,0,6.93,70H60.369a2.929,2.929,0,0,0,2.72-4.016l-6.519-16.3a2.915,2.915,0,0,0-2.72-1.842Z" fill="#f9be00"/>      <path id="Path_163" data-name="Path 163" d="M41.5,58.308H25.8a2,2,0,1,1,0-4H41.5a2,2,0,0,1,0,4" fill="#f9be00"/>      <path id="Path_164" data-name="Path 164" d="M58.01,4a6.54,6.54,0,0,1,6.538,6.538,4.842,4.842,0,0,1-.209,1.518,4.688,4.688,0,0,1,1.427-.209h.083A6.4,6.4,0,0,1,72,16.084a6.566,6.566,0,0,1-6.145,8.839,6.392,6.392,0,0,1-4.812-2.145L48.622,35.2a.63.63,0,0,1-.446.185H35.1a.631.631,0,0,1-.447-1.077L53.616,15.351A6.447,6.447,0,0,1,51.568,9.4a6.517,6.517,0,0,1,5.106-5.263A6.838,6.838,0,0,1,58.01,4m0-4A10.87,10.87,0,0,0,55.9.209,10.55,10.55,0,0,0,48.408,14.9L31.83,31.479A4.631,4.631,0,0,0,35.1,39.385H48.176a4.6,4.6,0,0,0,3.273-1.356L61.5,27.98a10.558,10.558,0,0,0,14.285-13.2,10.34,10.34,0,0,0-7.515-6.665A10.556,10.556,0,0,0,58.01,0" fill="#f9be00"/>    </g>  </g></svg>