<svg xmlns="http://www.w3.org/2000/svg" xmlns:xlink="http://www.w3.org/1999/xlink" width="83.336" height="72.202" viewBox="0 0 83.336 72.202">  <defs>    <clipPath id="clip-path">      <rect id="Rectangle_60" data-name="Rectangle 60" width="83.336" height="72.202" transform="translate(0 0)" fill="#f9be00"/>    </clipPath>  </defs>  <g id="Group_91" data-name="Group 91" transform="translate(0 0)">    <g id="Group_42" data-name="Group 42" clip-path="url(#clip-path)">      <path id="Path_160" data-name="Path 160" d="M72.361,22.121l-4.216,4.216a14.379,14.379,0,0,1-4.091,12.04q-6.877,6.938-13.757,13.9-6.686,6.758-13.371,13.505l-.268.272-27.4-27.7a14.4,14.4,0,0,1,0-20.435,14.1,14.1,0,0,1,20.2,0l5.4,5.487a2.623,2.623,0,0,0,3.638,0l5.366-5.426a14.042,14.042,0,0,1,14.449-3.556l3.915-3.905a19.227,19.227,0,0,0-21.973,3.845l-3.592,3.592-3.589-3.622a19.307,19.307,0,0,0-27.416,0,19.679,19.679,0,0,0,0,27.6l29.17,29.537a2.623,2.623,0,0,0,3.639,0l29.2-29.477a19.761,19.761,0,0,0,4.7-19.871" fill="#f9be00"/>      <path id="Path_161" data-name="Path 161" d="M80.976,0a2.429,2.429,0,0,0-1.815.833L38.313,41.581a2.26,2.26,0,0,1-3.2,0L21.453,27.927a2.492,2.492,0,0,0-3.523,3.526L31.584,45.106a7.151,7.151,0,0,0,5.079,2.138,6.939,6.939,0,0,0,5.105-2.165L82.61,4.239a2.472,2.472,0,0,0,.726-1.768,2.467,2.467,0,0,0-.7-1.727A2.2,2.2,0,0,0,80.976,0" fill="#f9be00"/>    </g>  </g></svg>