<svg xmlns="http://www.w3.org/2000/svg" xmlns:xlink="http://www.w3.org/1999/xlink" width="59.651" height="49.959" viewBox="0 0 59.651 49.959">  <defs>    <clipPath id="clip-path">      <rect id="Rectangle_64" data-name="Rectangle 64" width="59.651" height="49.959" transform="translate(0 0)" fill="#f9be00"/>    </clipPath>  </defs>  <g id="Group_86" data-name="Group 86" transform="translate(0 0)">    <g id="Group_50" data-name="Group 50" clip-path="url(#clip-path)">      <path id="Path_171" data-name="Path 171" d="M18.287,11.388h9.852V21.937l-3.748-3.07a1.838,1.838,0,0,0-2.328,0l-3.748,3.07ZM0,40.408A9.552,9.552,0,0,0,9.551,49.96H57.814a1.837,1.837,0,1,0,0-3.674H9.551a5.878,5.878,0,1,1,0-11.755H57.814a1.837,1.837,0,1,0,0-3.674H9.551a5.878,5.878,0,1,1,0-11.755h5.062v6.716a1.839,1.839,0,0,0,3,1.417L23.2,22.667l5.585,4.568h0a1.834,1.834,0,0,0,3.033-1.417V19.1h26a1.836,1.836,0,1,0,0-3.673h-26V9.552a1.832,1.832,0,0,0-1.836-1.837H16.45a1.838,1.838,0,0,0-1.837,1.837v5.877H9.551a5.877,5.877,0,1,1,0-11.755H57.814a1.837,1.837,0,1,0,0-3.673H9.551a9.551,9.551,0,0,0-5.6,17.265,9.55,9.55,0,0,0,0,15.428A9.553,9.553,0,0,0,0,40.409Z" fill="#f9be00"/>    </g>  </g></svg>