<svg id="Group_88" data-name="Group 88" xmlns="http://www.w3.org/2000/svg" xmlns:xlink="http://www.w3.org/1999/xlink" width="59.601" height="72" viewBox="0 0 59.601 72">
  <defs>
    <clipPath id="clip-path">
      <rect id="Rectangle_58" data-name="Rectangle 58" width="59.601" height="72" fill="#002664"/>
    </clipPath>
  </defs>
  <g id="Group_38" data-name="Group 38" clip-path="url(#clip-path)">
    <path id="Path_116" data-name="Path 116" d="M56.82,41.4a10,10,0,0,0-12.167-1.736c-6.31-6.484-12.708-12.807-18.18-18.179A9.977,9.977,0,0,0,17.528,6.536a9.752,9.752,0,0,0-6.9,3.089,10.567,10.567,0,0,0-2.646,5.313A10.114,10.114,0,0,0,2.78,17.77,9.97,9.97,0,0,0,15.255,33.125L33.006,50.876a9.983,9.983,0,0,0,8.276,15.252l.2,0A9.911,9.911,0,0,0,51.2,58.155,9.788,9.788,0,0,0,56.511,55.5a9.941,9.941,0,0,0,.309-14.1M47.976,55.266A6.564,6.564,0,0,1,36.7,60.626a6.382,6.382,0,0,1-1.854-4.777,6.592,6.592,0,0,1,2.411-4.786l.394-.333L15.4,28.475l-.332.4a6.474,6.474,0,0,1-4.643,2.4,6.653,6.653,0,0,1-4.986-1.857,6.564,6.564,0,0,1,5.368-11.266l.621.066-.1-.615a6.559,6.559,0,1,1,13.021-.956,6.432,6.432,0,0,1-2.193,4.728l-.382.339.369.356c8.688,8.371,14.833,14.5,21.915,21.856l.352.364.34-.375a6.562,6.562,0,1,1,9.412,9.132,6.632,6.632,0,0,1-5.638,1.7l-.616-.1Z" fill="#002664"/>
    <path id="Path_117" data-name="Path 117" d="M20.118,3.79A9.724,9.724,0,0,1,29.831,13.5a1.895,1.895,0,0,0,3.79,0A13.518,13.518,0,0,0,20.118,0a1.895,1.895,0,1,0,0,3.79" fill="#002664"/>
    <path id="Path_118" data-name="Path 118" d="M38.916,68.211A9.724,9.724,0,0,1,29.2,58.5a1.895,1.895,0,0,0-3.79,0A13.518,13.518,0,0,0,38.916,72a1.895,1.895,0,1,0,0-3.789" fill="#002664"/>
  </g>
</svg>
