<svg id="Group_87" data-name="Group 87" xmlns="http://www.w3.org/2000/svg" xmlns:xlink="http://www.w3.org/1999/xlink" width="61.287" height="71.5" viewBox="0 0 61.287 71.5">  <defs>    <clipPath id="clip-path">      <rect id="Rectangle_63" data-name="Rectangle 63" width="61.287" height="71.5" fill="#f9be00"/>    </clipPath>  </defs>  <g id="Group_48" data-name="Group 48" clip-path="url(#clip-path)">    <path id="Path_169" data-name="Path 169" d="M30.646,15.321A25.569,25.569,0,1,1,12.6,22.81a25.538,25.538,0,0,1,18.047-7.489m0,56.179A30.6,30.6,0,0,0,51.518,18.487l3.917-3.913a2.555,2.555,0,1,0-3.614-3.613L47.5,15.289a30.434,30.434,0,0,0-14.3-4.944V5.106h7.66A2.553,2.553,0,1,0,40.86,0H20.432a2.553,2.553,0,1,0,0,5.106h7.66v5.239A30.63,30.63,0,0,0,30.646,71.5Z" fill="#f9be00"/>    <path id="Path_170" data-name="Path 170" d="M30.646,43.41H43.414a2.553,2.553,0,0,0,0-5.106H33.2V22.982a2.554,2.554,0,0,0-5.108,0V40.856a2.55,2.55,0,0,0,2.554,2.554" fill="#f9be00"/>  </g></svg>