<svg id="Layer_1" data-name="Layer 1" xmlns="http://www.w3.org/2000/svg" viewBox="0 0 120 120"><defs><style>.cls-1{fill:#f9be00;}</style></defs><path class="cls-1" d="M75.79,72.2a2,2,0,0,0-2,2V94H26.69V26h30.2V42.8h16.9v1.5a2,2,0,0,0,4,0V40L60.3,22.59h0L59.71,22h-37V98h55.1V74.2A2,2,0,0,0,75.79,72.2ZM60.89,28.81l10,10h-10Z"/><path class="cls-1" d="M53.79,68a2,2,0,0,0-2-2H37.29a2,2,0,1,0,0,4h14.5A2,2,0,0,0,53.79,68Z"/><path class="cls-1" d="M65.49,52.3a2,2,0,0,0-2-2H37.29a2,2,0,0,0,0,4h26.2A2,2,0,0,0,65.49,52.3Z"/><path class="cls-1" d="M45,81.6h-7.7a2,2,0,1,0,0,4H45a2,2,0,1,0,0-4Z"/><path class="cls-1" d="M45,73.8h-7.7a2,2,0,0,0,0,4H45a2,2,0,0,0,0-4Z"/><path class="cls-1" d="M60.49,60.1a2,2,0,0,0-2-2H37.29a2,2,0,0,0,0,4h21.2A2,2,0,0,0,60.49,60.1Z"/><path class="cls-1" d="M96.73,46l-7.15-7.14a2,2,0,0,0-2.82,0L83,42.55l0,0,0,0L54.79,70.77a2,2,0,0,0-.88,1l-4,11.1a2,2,0,0,0,2.55,2.56l10.68-3.81a2,2,0,0,0,1.27-.57L96.73,48.78a2,2,0,0,0,.58-1.41A2,2,0,0,0,96.73,46Zm-4.25,1.42-1,1L87.22,44l1-1Zm-8.09-.54,4.32,4.32L63,76.85l-4.32-4.31ZM56.61,76.12l2.68,2.68-4.18,1.49Z"/></svg>