<svg id="Layer_1" data-name="Layer 1" xmlns="http://www.w3.org/2000/svg" viewBox="0 0 120 120"><defs><style>.cls-1{fill:#23364e;}</style></defs><path class="cls-1" d="M102,92.17H79.87V68.46l4.24-4.24a2.2,2.2,0,0,0,.63-1.53A2.17,2.17,0,0,0,81,61.15l-1.17,1.17V52.49a2.18,2.18,0,0,0-4.35,0v4l-2-2a2.17,2.17,0,1,0-3.07,3.07l5.08,5.08V92.15H58.16V79.24a2,2,0,0,0,2-3.39l-12.7-8.11a2,2,0,0,0-2.09,0L32.22,75.83a2,2,0,0,0-.64,2.71,2,2,0,0,0,2.61.7V92.15H21.6a2.18,2.18,0,0,0,0,4.35H102a2.17,2.17,0,0,0,0-4.33Zm-47.76,0h-2v-7.6a6,6,0,1,0-12,0v7.6h-2V76.81l8.25-5.09,7.84,5Zm-6,0h-4v-7.6a2,2,0,0,1,4,0Z"/><path class="cls-1" d="M71.31,73.94l.07,0a2.17,2.17,0,0,0,1-4.23,21.19,21.19,0,1,1,10.08.13,2.17,2.17,0,0,0,.5,4.29,2,2,0,0,0,.48-.06,25.63,25.63,0,1,0-12.14-.15Z"/><path class="cls-1" d="M40.49,47.47a9.06,9.06,0,1,0-9.06,9.06A9.06,9.06,0,0,0,40.49,47.47Zm-9.06,5.89a6,6,0,1,1,6-6A6,6,0,0,1,31.43,53.36Z"/><path class="cls-1" d="M31.33,57.79a1.48,1.48,0,0,0-1.43,1.53v2.07a1.53,1.53,0,0,0,3.06,0V59.32a1.53,1.53,0,0,0-1.53-1.53Z"/><path class="cls-1" d="M35.4,61.05a1.64,1.64,0,0,0,1.39.93,1,1,0,0,0,.62-.14,1.59,1.59,0,0,0,.78-2.05l-.83-1.94a1.51,1.51,0,0,0-.9-.93,1.36,1.36,0,0,0-1.1.07,1.42,1.42,0,0,0-.83.85,1.8,1.8,0,0,0,0,1.21Z"/><path class="cls-1" d="M40.2,58.45a1.54,1.54,0,0,0,1.11.43,1.48,1.48,0,0,0,1.15-.46,1.54,1.54,0,0,0-.05-2.17L40.9,54.74A1.56,1.56,0,0,0,38.69,57Z"/><path class="cls-1" d="M44.32,54.36a1.49,1.49,0,0,0,1.41-1,1.61,1.61,0,0,0-.84-2l-2-.86a1.57,1.57,0,0,0-1.2,2.91l2,.83A1.5,1.5,0,0,0,44.32,54.36Z"/><path class="cls-1" d="M43.37,45.94a1.29,1.29,0,0,0-1,.3,1.63,1.63,0,0,0-.57,1.23A1.53,1.53,0,0,0,43.28,49h2.07a1.54,1.54,0,0,0,0-3.07Z"/><path class="cls-1" d="M41.68,41.51A1.53,1.53,0,0,0,41,43.56a1.64,1.64,0,0,0,1.39.93,1.35,1.35,0,0,0,.63-.14l1.88-.8h0a1.57,1.57,0,0,0,.86-2l0,0a1.58,1.58,0,0,0-2.07-.83l-1.9.85Z"/><path class="cls-1" d="M39.81,40.63a1.54,1.54,0,0,0,1.11-.43l1.51-1.5a1.57,1.57,0,1,0-2.21-2.22L38.71,38a1.59,1.59,0,0,0-.43,1A1.56,1.56,0,0,0,39.81,40.63Z"/><path class="cls-1" d="M35.29,37.92a1.19,1.19,0,0,0,.66.17,1.5,1.5,0,0,0,1.4-1l.86-2a1.57,1.57,0,0,0-2.91-1.2l-.86,2A1.65,1.65,0,0,0,35.29,37.92Z"/><path class="cls-1" d="M31.43,37.15A1.52,1.52,0,0,0,33,35.62V33.55a1.53,1.53,0,0,0-3.06,0v2.07A1.53,1.53,0,0,0,31.43,37.15Z"/><path class="cls-1" d="M25.44,37.16a1.64,1.64,0,0,0,1.39.93,1.33,1.33,0,0,0,.62-.13,1.59,1.59,0,0,0,.78-2.05L27.4,34l0-.12a1.57,1.57,0,1,0-2.85,1.33Z"/><path class="cls-1" d="M22,40.2a1.58,1.58,0,0,0,1.11.43,1.5,1.5,0,0,0,1.1-.43,1.64,1.64,0,0,0,0-2.21l-1.51-1.51a1.58,1.58,0,0,0-1.11-.43,1.6,1.6,0,0,0-1.1.43,1.64,1.64,0,0,0,0,2.21Z"/><path class="cls-1" d="M17.89,43.51l1.91.82a1.08,1.08,0,0,0,.63.16,1.5,1.5,0,0,0,1.4-1,1.6,1.6,0,0,0-.84-2l-2-.86a1.61,1.61,0,0,0-2,.82l0,.14A1.84,1.84,0,0,0,17.89,43.51Z"/><path class="cls-1" d="M19.49,49a1.54,1.54,0,0,0,0-3.07H17.42a1.53,1.53,0,0,0-1.53,1.53,1.48,1.48,0,0,0,.44,1.08,1.5,1.5,0,0,0,1.09.46Z"/><path class="cls-1" d="M21.94,51.44a1.41,1.41,0,0,0-.86-.86,1.86,1.86,0,0,0-1.21,0l-1.94.83a1.41,1.41,0,0,0-.88.87,1.82,1.82,0,0,0,0,1.24,1.64,1.64,0,0,0,1.39.93,1.15,1.15,0,0,0,.63-.15L21,53.48A1.59,1.59,0,0,0,21.94,51.44Z"/><path class="cls-1" d="M24.17,54.73a1.69,1.69,0,0,0-2.21,0l-1.51,1.51a1.64,1.64,0,0,0,0,2.21,1.54,1.54,0,0,0,1.11.43,1.56,1.56,0,0,0,1.11-.43l1.5-1.51A1.64,1.64,0,0,0,24.17,54.73Z"/><path class="cls-1" d="M25.33,61.81A1.19,1.19,0,0,0,26,62a1.48,1.48,0,0,0,1.39-1l.86-2a1.59,1.59,0,0,0-.78-2,1.27,1.27,0,0,0-1-.12,1.7,1.7,0,0,0-1,.9l-.87,2A1.6,1.6,0,0,0,25.33,61.81Z"/></svg>