<svg id="Layer_1" data-name="Layer 1" xmlns="http://www.w3.org/2000/svg" viewBox="0 0 120 120"><defs><style>.cls-1{fill:#23364e;}</style></defs><path class="cls-1" d="M92.62,27.39a18.14,18.14,0,0,0-25.63,0l-39.7,39.7A18.12,18.12,0,1,0,52.92,92.71L92.62,53A18.12,18.12,0,0,0,92.62,27.39ZM50.09,89.89a14.12,14.12,0,1,1-20-20l39.7-39.7a14.12,14.12,0,0,1,20,20Z"/><path class="cls-1" d="M92.72,67l-4-4a2,2,0,0,0-2.83,2.82l4,4a14.12,14.12,0,1,1-20,20l-4-4a2,2,0,1,0-2.83,2.82l4,4A18.12,18.12,0,0,0,92.72,67Z"/><path class="cls-1" d="M31.29,56.91a2,2,0,0,0,2.83-2.82l-4-4a14.12,14.12,0,0,1,20-20l4,4a2,2,0,1,0,2.83-2.82l-4-4A18.12,18.12,0,1,0,27.29,52.91Z"/><path class="cls-1" d="M60.32,46.94a2.26,2.26,0,0,0-.37.11,2.37,2.37,0,0,0-.35.19,1.42,1.42,0,0,0-.3.25,2,2,0,0,0-.59,1.41,2,2,0,0,0,.59,1.42,1.76,1.76,0,0,0,.3.24,1.7,1.7,0,0,0,.35.19,1.58,1.58,0,0,0,.37.11,1.72,1.72,0,0,0,.39,0,2,2,0,0,0,2-2,2,2,0,0,0-.58-1.41A2,2,0,0,0,60.32,46.94Z"/><path class="cls-1" d="M67.34,52.71a2,2,0,1,0-2.87,2.78l.07.08a2,2,0,0,0,1.44.61,2,2,0,0,0,1.39-.57,2,2,0,0,0,0-2.83Z"/><path class="cls-1" d="M71.21,57.4h-.1a2,2,0,0,0,0,4h.1a2,2,0,0,0,0-4Z"/><path class="cls-1" d="M54.71,52.8a2,2,0,0,0-2,2v.1a2,2,0,0,0,4,0v-.1A2,2,0,0,0,54.71,52.8Z"/><path class="cls-1" d="M61.32,58.59a2,2,0,1,0-2.83,2.82l.08.08a2,2,0,0,0,2.82,0,2,2,0,0,0,0-2.83Z"/><path class="cls-1" d="M67.06,64.54a1.7,1.7,0,0,0-.19-.35,1.76,1.76,0,0,0-.24-.3,2.06,2.06,0,0,0-2.83,0,1.42,1.42,0,0,0-.25.3,2.37,2.37,0,0,0-.19.35,2.26,2.26,0,0,0-.11.37,1.72,1.72,0,0,0,0,.39,2,2,0,0,0,2,2,2,2,0,0,0,2-2,1.72,1.72,0,0,0,0-.39A1.58,1.58,0,0,0,67.06,64.54Z"/><path class="cls-1" d="M47,61.56a1.48,1.48,0,0,0,.19.35,2.16,2.16,0,0,0,.55.55,1.7,1.7,0,0,0,.35.19,1.58,1.58,0,0,0,.37.11,1.92,1.92,0,0,0,.78,0,1.82,1.82,0,0,0,.38-.11,1.63,1.63,0,0,0,.34-.19,2.16,2.16,0,0,0,.55-.55,1.48,1.48,0,0,0,.19-.35,1.58,1.58,0,0,0,.11-.37,1.92,1.92,0,0,0,0-.78,1.58,1.58,0,0,0-.11-.37,1.7,1.7,0,0,0-.19-.35,2.16,2.16,0,0,0-.55-.55,2.27,2.27,0,0,0-.34-.19,2.72,2.72,0,0,0-.38-.11,2,2,0,0,0-.78,0,2.26,2.26,0,0,0-.37.11,2.37,2.37,0,0,0-.35.19,2.16,2.16,0,0,0-.55.55A2.37,2.37,0,0,0,47,60a1.58,1.58,0,0,0-.11.37,1.92,1.92,0,0,0,0,.78A1.58,1.58,0,0,0,47,61.56Z"/><path class="cls-1" d="M55.44,64.61a2,2,0,1,0-2.87,2.78l.07.08a2,2,0,0,0,1.44.61,2,2,0,0,0,1.39-.57,2,2,0,0,0,.05-2.83Z"/><path class="cls-1" d="M60.62,69.79a2,2,0,1,0-2.83,2.82l.1.1a2,2,0,0,0,2.83-2.82Z"/><path class="cls-1" d="M67.62,42a2,2,0,0,0-2.83,2.82l10.5,10.5a2,2,0,1,0,2.83-2.82Z"/><path class="cls-1" d="M44.52,65.09a2,2,0,0,0-2.83,2.82l10.5,10.5A2,2,0,1,0,55,75.59Z"/></svg>