<svg id="Layer_1" data-name="Layer 1" xmlns="http://www.w3.org/2000/svg" viewBox="0 0 120 120"><defs><style>.cls-1{fill:#23364e;}</style></defs><path class="cls-1" d="M60,98A38,38,0,1,1,98,60,38,38,0,0,1,60,98Zm0-72A34,34,0,1,0,94,60,34,34,0,0,0,60,26Z"/><path class="cls-1" d="M60,49.9a8,8,0,1,1,8-8A8,8,0,0,1,60,49.9Zm0-12a4,4,0,1,0,4,4A4,4,0,0,0,60,37.9Z"/><path class="cls-1" d="M60,86.2a8,8,0,0,1-8-8V60.5a8,8,0,0,1,16,0V78.1A8.06,8.06,0,0,1,60,86.2Zm0-29.7a4,4,0,0,0-4,4V78.2a4,4,0,0,0,4,4,4.11,4.11,0,0,0,4-4.1V60.5A4,4,0,0,0,60,56.5Z"/></svg>