<svg id="Layer_1" data-name="Layer 1" xmlns="http://www.w3.org/2000/svg" viewBox="0 0 120 120"><defs><style>.cls-1{fill:#23364e;}</style></defs><path class="cls-1" d="M51.3,65.76a20.52,20.52,0,1,0-18.58,0A30.54,30.54,0,0,0,11.5,94.59a2,2,0,0,0,2,2h0a2,2,0,0,0,2-2A26.53,26.53,0,0,1,42,68.3h.17A26.58,26.58,0,0,1,68.5,94.61a2,2,0,0,0,2,2h0a2,2,0,0,0,2-2A30.64,30.64,0,0,0,51.3,65.76ZM25.5,47.5A16.5,16.5,0,1,1,42,64,16.47,16.47,0,0,1,25.5,47.5Z"/><path class="cls-1" d="M106.5,23.4H61.6a2,2,0,0,0-2,2v7.4a2,2,0,0,0,4,0V27.4h40.9V69H89.4a2,2,0,0,0-1.55.73l-8,9.77.72-8.12a2,2,0,0,0-2-2.18h-12a2,2,0,0,0,0,4h9.81l-1.1,12.42a2,2,0,0,0,1.23,2,2.06,2.06,0,0,0,.76.15,2,2,0,0,0,1.55-.73L90.35,73H106.5a2,2,0,0,0,2-2V25.4A2,2,0,0,0,106.5,23.4Z"/><path class="cls-1" d="M71.7,56.5H96.3a2,2,0,1,0,0-4H71.7a2,2,0,0,0,0,4Z"/><path class="cls-1" d="M71.7,44H96.3a2,2,0,1,0,0-4H71.7a2,2,0,0,0,0,4Z"/></svg>