<svg id="Layer_1" data-name="Layer 1" xmlns="http://www.w3.org/2000/svg" viewBox="0 0 120 120"><defs><style>.cls-1{fill:#f9be00;}</style></defs><path class="cls-1" d="M100.8,63.3a2,2,0,0,0-2,2v3c-4.74,0-16.79,0-36,0V60A22.8,22.8,0,1,0,40,82.8h60.8a2,2,0,0,0,2-2V65.3A2,2,0,0,0,100.8,63.3ZM21.2,60a18.8,18.8,0,0,1,37.6,0V78.8H40A18.82,18.82,0,0,1,21.2,60ZM96.1,78.8V75a2,2,0,0,0-4,0v3.8H89.4V78a2,2,0,0,0-4,0v.8H82.8V75a2,2,0,0,0-4,0v3.8H76.1V78a2,2,0,0,0-4,0v.8H69.5V75a2,2,0,0,0-4,0v3.8H62.8V72.3c13,0,30.33-.06,36,0V78.8Z"/><path class="cls-1" d="M40,48.9A11.1,11.1,0,1,0,51.1,60,11.11,11.11,0,0,0,40,48.9Zm0,18.2A7.1,7.1,0,1,1,47.1,60,7.11,7.11,0,0,1,40,67.1Z"/></svg>