<svg id="Layer_1" data-name="Layer 1" xmlns="http://www.w3.org/2000/svg" viewBox="0 0 120 120"><defs><style>.cls-1{fill:#23364e;}</style></defs><path class="cls-1" d="M93.05,48.5H84.7a15.28,15.28,0,0,0-3-7.39l5.79-5.8a2,2,0,0,0-2.82-2.82l-5.8,5.79a15.54,15.54,0,0,0-7.39-3V27a2,2,0,0,0-4,0v8.25a15.25,15.25,0,0,0-7.41,3l-5.89-5.8a2,2,0,1,0-2.8,2.84L57.11,41l-6.66,6.66L44.76,42a2,2,0,0,0-2.82,2.82l5.68,5.69L41,57.16,35.27,51.4a2,2,0,1,0-2.84,2.8l5.81,5.9a15.49,15.49,0,0,0-3,7.4H27a2,2,0,0,0,0,4H35.2a15.22,15.22,0,0,0,3,7.4l-5.89,5.89a2,2,0,1,0,2.82,2.82L41,81.74a15.12,15.12,0,0,0,7.41,3.1V93a2,2,0,0,0,4,0V84.82a15.2,15.2,0,0,0,7.41-3.1l5.89,5.8a2,2,0,0,0,2.82,0,2,2,0,0,0,0-2.82L62.79,79l6.66-6.66L75.14,78A2,2,0,0,0,78,75.19L72.28,69.5l6.66-6.66,5.69,5.76a2,2,0,0,0,2.84-2.8l-5.81-5.9a15.49,15.49,0,0,0,3-7.4h8.36a2,2,0,1,0,0-4ZM77.54,58.59l-19,19A11.45,11.45,0,0,1,50.88,81a2,2,0,0,0-.43,0A1.63,1.63,0,0,0,50,81a11.16,11.16,0,0,1-7.62-3.36h0a11.55,11.55,0,0,1,0-16.18l19-19a11.39,11.39,0,0,1,8.06-3.31,11.4,11.4,0,0,1,8.12,19.49Z"/><path class="cls-1" d="M53.57,63.55l-.07.07A2,2,0,0,0,54.92,67a2,2,0,0,0,1.41-.58l.07-.07a2,2,0,0,0-2.83-2.83Z"/><path class="cls-1" d="M58.52,58.6a2,2,0,0,0,0,2.83,2,2,0,0,0,1.41.58,2,2,0,0,0,1.42-.59l.07-.07a2,2,0,0,0,0-2.79A2,2,0,0,0,58.52,58.6Z"/><path class="cls-1" d="M48.55,68.57l-.07.07a2,2,0,0,0,1.42,3.41,2,2,0,0,0,1.41-.58l.07-.07a2,2,0,1,0-2.83-2.83Z"/><path class="cls-1" d="M68.64,48.49l-.08.07A2,2,0,0,0,70,52a2,2,0,0,0,1.41-.59l.07-.07a2,2,0,0,0-2.82-2.82Z"/><path class="cls-1" d="M63.62,53.51l-.08.07A2,2,0,0,0,65,57a2,2,0,0,0,1.41-.58l.07-.08a2,2,0,0,0-2.82-2.82Z"/></svg>