<svg id="Group_64" data-name="Group 64" xmlns="http://www.w3.org/2000/svg" xmlns:xlink="http://www.w3.org/1999/xlink" width="31.999" height="32" viewBox="0 0 31.999 32">
  <defs>
    <style>
      .cls-1 {
        fill: #002664;
      }

      .cls-2 {
        clip-path: url(#clip-path);
      }
    </style>
    <clipPath id="clip-path">
      <rect id="Rectangle_74" data-name="Rectangle 74" class="cls-1" width="31.999" height="32"/>
    </clipPath>
  </defs>
  <g id="Group_63" data-name="Group 63" class="cls-2">
    <path id="Path_189" data-name="Path 189" class="cls-1" d="M29.631,0H2.361A2.336,2.336,0,0,0,0,2.308V29.692A2.337,2.337,0,0,0,2.361,32h27.27A2.34,2.34,0,0,0,32,29.692V2.308A2.339,2.339,0,0,0,29.631,0M9.492,27.268H4.742V12h4.75ZM7.119,9.91a2.752,2.752,0,1,1,2.75-2.753A2.752,2.752,0,0,1,7.119,9.91M27.268,27.268H22.524V19.842c0-1.772-.033-4.05-2.468-4.05-2.469,0-2.846,1.931-2.846,3.923v7.553h-4.74V12h4.549v2.088h.065a4.988,4.988,0,0,1,4.492-2.467c4.8,0,5.693,3.162,5.693,7.275Z"/>
  </g>
</svg>
