<svg id="Layer_1" data-name="Layer 1" xmlns="http://www.w3.org/2000/svg" viewBox="0 0 120 120"><defs><style>.cls-1{fill:#f9be00;}</style></defs><path class="cls-1" d="M57.25,77V44.2a2,2,0,0,0-4,0V77a5.9,5.9,0,1,0,4,0Z"/><path class="cls-1" d="M78.25,61.6h-8.9a2,2,0,0,0,0,4h8.9a2,2,0,0,0,0-4Z"/><path class="cls-1" d="M78.25,51.9h-8.9a2,2,0,0,0,0,4h8.9a2,2,0,0,0,0-4Z"/><path class="cls-1" d="M78.25,42.2h-8.9a2,2,0,0,0,0,4h8.9a2,2,0,0,0,0-4Z"/><path class="cls-1" d="M69.35,36.5h8.9a2,2,0,0,0,0-4h-8.9a2,2,0,0,0,0,4Z"/><path class="cls-1" d="M64.85,70.31V31.5a9.5,9.5,0,1,0-19,0V70.24a15.44,15.44,0,1,0,19,.07ZM55.25,94a11.45,11.45,0,0,1-6.43-21,2.17,2.17,0,0,0,1-2.44V31.5a5.5,5.5,0,1,1,11,0V71.3a2.36,2.36,0,0,0,1,1.75,11.51,11.51,0,0,1-6.57,21Z"/></svg>