<svg id="Layer_1" data-name="Layer 1" xmlns="http://www.w3.org/2000/svg" viewBox="0 0 120 120"><defs><style>.cls-1{fill:#23364e;}</style></defs><g id="_02_Nutrition_Hydration" data-name="02_Nutrition &amp;
Hydration"><g id="Group_74" data-name="Group 74"><g id="Group_44" data-name="Group 44"><path id="Path_162" data-name="Path 162" class="cls-1" d="M82.16,97H28.72a6.94,6.94,0,0,1-6.43-9.5L28.8,71.2a6.89,6.89,0,0,1,6.43-4.35h40.4a6.91,6.91,0,0,1,6.44,4.35l6.52,16.3a6.94,6.94,0,0,1-3.86,9,7.07,7.07,0,0,1-2.57.49M35.24,70.85a2.92,2.92,0,0,0-2.72,1.84L26,89a2.93,2.93,0,0,0,1.64,3.81,3,3,0,0,0,1.08.2H82.16a2.93,2.93,0,0,0,2.72-4l-6.52-16.3a2.89,2.89,0,0,0-2.72-1.84Z"/><path id="Path_163" data-name="Path 163" class="cls-1" d="M63.29,81.31H47.59a2,2,0,0,1,0-4h15.7a2,2,0,1,1,0,4"/><path id="Path_164" data-name="Path 164" class="cls-1" d="M79.8,27a6.54,6.54,0,0,1,6.54,6.54,4.9,4.9,0,0,1-.21,1.52,4.9,4.9,0,0,1,1.43-.21h.08a6.4,6.4,0,0,1,6.15,4.24,6.55,6.55,0,0,1-3.89,8.43,6.69,6.69,0,0,1-2.26.41,6.36,6.36,0,0,1-4.81-2.15L70.41,58.2a.64.64,0,0,1-.45.19H56.89a.63.63,0,0,1-.63-.63.67.67,0,0,1,.18-.45l19-19a6.51,6.51,0,0,1,3.06-11.21A6.78,6.78,0,0,1,79.8,27m0-4A10.53,10.53,0,0,0,69.47,35.66a10.48,10.48,0,0,0,.73,2.24L53.62,54.48a4.64,4.64,0,0,0,3.27,7.91H70A4.6,4.6,0,0,0,73.24,61L83.29,51a10.56,10.56,0,0,0,14.28-13.2,10.34,10.34,0,0,0-7.51-6.66A10.55,10.55,0,0,0,79.8,23"/></g></g></g></svg>