<svg id="Layer_1" data-name="Layer 1" xmlns="http://www.w3.org/2000/svg" viewBox="0 0 120 120"><defs><style>.cls-1{fill:#23364e;}</style></defs><path class="cls-1" d="M100.46,66.8a27.39,27.39,0,0,0-.22-4.27L99.05,53.6a18,18,0,0,0-.65-3.31l-.69-2.66A25.48,25.48,0,0,1,97,41.7a28.7,28.7,0,0,0-1.31-8.58l-.49-1.36A14.87,14.87,0,0,0,91,25.34l-.45-.46-.08-.07a8.69,8.69,0,0,0-9.38-1.57l-3.47,1.39A5.25,5.25,0,0,1,73,24.18l-1.5-.9a2,2,0,0,0-1.79-.13,2,2,0,0,0-1.18,1.36l-.1.4,0,.19a9.73,9.73,0,0,0,5.28,10.19l.44.21a6.38,6.38,0,0,0,1.53.5l3.16,6.14A7.76,7.76,0,0,0,83.68,46a8.16,8.16,0,0,0,1.83.26l.66,4.59-4.88,5.22-8.77-2a5.42,5.42,0,0,0-6.32,3.32,5.19,5.19,0,0,0-.31,1.35,2.2,2.2,0,0,0-.84-.46c-1.65-.45-2.48,1-3.09,2a11.07,11.07,0,0,1-1,1.53,66.75,66.75,0,0,1-9.74-.62,9.54,9.54,0,0,0-1.59-3l-.33-.47a49.08,49.08,0,0,0-.44-5.81,10.4,10.4,0,0,0-.48-1.35,12.75,12.75,0,0,1-1-3.12,11.05,11.05,0,0,1,2.14-.17A7.87,7.87,0,0,0,53,46.68a1.69,1.69,0,0,0,.36-.23c3.63-2.93,3.87-3.94,3.73-4.92-.25-2-2.74-2.82-5.38-3.66l-.91-.3a10.12,10.12,0,0,0-9-4,5.91,5.91,0,0,0-4.12-.53c-.74.14-3.18.75-4,2.66-1,2.08.66,3.87,1.69,4.79a14.47,14.47,0,0,0-.67,4.35l.1.92c.14,1.23.55,5,.51,5.68-.21.8-2.52,3-4,4.44-2.68,2.54-5.72,5.42-7,8.36-2.74,6.21-4.21,11.09-4.37,14.51,0,.79-.07,1.49-.11,2.12-.17,3-.26,4.58.57,6.55a16.65,16.65,0,0,0,2.12,3.45,9.72,9.72,0,0,0-.67,1.18c-.8,1.6.2,3.62.67,4.41a2,2,0,0,0,1.72,1h13.5a2,2,0,0,0,2-2A6.37,6.37,0,0,0,38,91.13c2.61-1.38,3.88-3.43,3.76-6.09-.09-2.89-2.84-3.87-4.84-4.59s-2.63-1.09-2.67-1.54a5.12,5.12,0,0,1,2.75-.7,3.36,3.36,0,0,1,1.83.38,2,2,0,0,0,3.88-1c-.53-2.29-2.93-3.61-6.23-3.42-2.87.16-5.89,1.47-6.2,4-.46,3.9,3.14,5.19,5.29,6a9,9,0,0,1,2.19,1c.07,1.51-.92,2.4-3.54,3.16-.62.17-2.06.59-2.06,2.16a2.44,2.44,0,0,0,1.36,2,7.28,7.28,0,0,1,1.22,1H25.45l.37-.6a3.82,3.82,0,0,0,.84-2.1,3.44,3.44,0,0,0-1-2.13,14.53,14.53,0,0,1-1.74-2.75c-.45-1.07-.42-2-.26-4.77,0-.64.07-1.35.11-2.16.09-2,.87-5.92,4-13.09,1-2.2,3.7-4.79,6.1-7.07C36.86,56,39,54,39.15,51.89a48.39,48.39,0,0,0-.5-6.52l-.1-.84a21.1,21.1,0,0,1,.81-4l0-.16a2,2,0,0,0,.06-.48,2.63,2.63,0,0,0-1.22-2c-.15-.13-.43-.37-.67-.6a3.69,3.69,0,0,1,1.35-.3,1.36,1.36,0,0,1,.83.16,2,2,0,0,0,1.72.56,6.44,6.44,0,0,1,6,2.18c.38,1,1.33,1.31,3,1.83.38.12,1,.33,1.64.55-.32.29-.68.6-1,.9a12.37,12.37,0,0,1-1.6.09c-1.75,0-3.93.07-5.22,1.57-1.71,2-.45,5.13.39,7.21.13.32.24.59.28.73a49.54,49.54,0,0,1,.35,5.17,4.4,4.4,0,0,0,1.09,2.59A4.64,4.64,0,0,1,47.47,63c.14,2.06-.91,3.43-2.13,5a12.93,12.93,0,0,0-1.94,3.1c-1.31,3.33.21,10.26,2.05,17.24.18.68.31,1.16.36,1.43.53,2.39,2.57,3.44,3.79,4.06l.1,0a2,2,0,0,0,1.36,3.47c1.53,0,3.08-1.13,3.1-3.65.08-2-1.68-2.89-2.74-3.43s-1.59-.84-1.7-1.32c0-.26-.2-.83-.4-1.62-2.13-8.08-2.87-13-2.19-14.77a10.13,10.13,0,0,1,1.39-2.12A13.1,13.1,0,0,0,51.3,65.2c2.4.26,6,.61,8.49.61a11,11,0,0,0,2.26-.17,5.5,5.5,0,0,0,3-2.78,2,2,0,0,0,1.38-1,5.52,5.52,0,0,0,3.06,2.75l8.48,3L75,73,62.76,77.42A8.05,8.05,0,0,0,57.46,85v2.2a8.06,8.06,0,0,0,8,8.1h31A3.39,3.39,0,0,0,99.67,93a3.31,3.31,0,0,0-1.2-3.75l-4.13-3.11a23.51,23.51,0,0,0,6-14.55Zm-4.09,4.59a19.58,19.58,0,0,1-5.25,12.28,4.68,4.68,0,0,0-5.05-.46l-1.78.89H68.76a2,2,0,0,0,0,4h16a2.16,2.16,0,0,0,.9-.21l2.2-1.11a.76.76,0,0,1,.79,0l.11.09L94.6,91.3H65.46a4.06,4.06,0,0,1-4-4.1V85a4,4,0,0,1,2.69-3.82l12.9-4.71a2,2,0,0,0,1.06-.9L81.78,69a5.07,5.07,0,0,0,1.83.34,5.7,5.7,0,0,0,4-1.74l4.8-5.1a2,2,0,1,0-2.91-2.74l-4.76,5.05a1.53,1.53,0,0,1-1.61.43L70.85,60.82A1.58,1.58,0,0,1,70,60a1.49,1.49,0,0,1,0-1.19,1.39,1.39,0,0,1,1.67-.86l9.9,2.3a2,2,0,0,0,1.91-.58l5.73-6.13a3.68,3.68,0,0,1,2.13-1.15l.9-.1a2,2,0,1,0-.44-4l-1,.11a7.89,7.89,0,0,0-.87.21l-.47-3.27c.17-.09.34-.17.5-.27l1.6-1A2,2,0,1,0,89.4,40.7l-1.59,1a3.91,3.91,0,0,1-3.09.46,3.79,3.79,0,0,1-2.38-1.88l-2.41-4.69a7.09,7.09,0,0,0,2.25-1.48l.1-.11.6-.7a2,2,0,1,0-3-2.61l-.55.64a3.21,3.21,0,0,1-3.44.58l-.4-.2a5.75,5.75,0,0,1-2.86-3.29,9.35,9.35,0,0,0,6.51-.07l3.56-1.42a4.76,4.76,0,0,1,5.12.82l.46.46.09.09a10.88,10.88,0,0,1,3,4.77l.47,1.31A24.44,24.44,0,0,1,93,41.7a29.17,29.17,0,0,0,.87,6.9l.72,2.77a14.08,14.08,0,0,1,.53,2.69l1.21,9a25,25,0,0,1,.17,3.65Z"/></svg>