<svg id="Layer_1" data-name="Layer 1" xmlns="http://www.w3.org/2000/svg" viewBox="0 0 120 120"><defs><style>.cls-1{fill:#23364e;}</style></defs><g id="_09_Rehoming_Greyhounds_as_Companion_Animals" data-name="09_Rehoming Greyhounds as
Companion Animals"><g id="Group_25" data-name="Group 25"><path id="Path_88" data-name="Path 88" class="cls-1" d="M13.84,96a5.78,5.78,0,0,1-3.78-10.15L32.12,66.72a50.47,50.47,0,0,0,3.52-4l.25-.25a39.61,39.61,0,0,0,6.34-7l.69-1,1.17.19c7.11,1.17,11.11-.94,15.34-3.17,4.55-2.4,9.25-4.89,17.1-2.26A28.85,28.85,0,0,0,90.26,35.52a5.2,5.2,0,0,1,9.36,4.55h0A39.48,39.48,0,0,1,86.44,55.52,27.63,27.63,0,0,1,90.21,63c.29.83,3.2,15.15,4.64,24.18a6,6,0,0,1-5,6.9l-.29,0a6,6,0,0,1-6.61-5c-.21-1.35-.38-2.66-.52-3.92a66.8,66.8,0,0,1-2.5,6.94,6,6,0,1,1-11.16-4.56.36.36,0,0,1,0-.09c1.24-2.95,1.35-8.09,1.43-11.88C65.49,79.44,57,85.7,49.94,85.6c-3.49,0-8.91-2.08-11.87-3.77L17.69,94.61l-.24.14A5.79,5.79,0,0,1,13.84,96M38.52,65.27c-1.16,1.44-2.41,2.84-3.72,4.17l-.11.11L12.55,88.73a2,2,0,0,0,1.29,3.46,2,2,0,0,0,1.25-.44l.16-.16.28-.14.15-.08,22.46-14.1,1,.75c2,1.42,7.72,3.72,10.81,3.76h.12c6.83,0,16.53-8.12,19.72-10.8,1.3-1.09,1.53-1.28,2.07-1.41l2.71-.63-.4,2.76c-.11.79-.14,2.23-.18,3.9-.09,4.1-.21,9.72-1.73,13.35h0a2.21,2.21,0,0,0,1.2,2.9h0a2.19,2.19,0,0,0,1.1.16,2.24,2.24,0,0,0,1.8-1.35c2.75-6.58,4.15-12.49,4.19-17.57V71.93l.93-.47,2.09-1.65.82,2.64a45.28,45.28,0,0,1,1.45,9.11c.21,2.2.41,4.48.8,6.94a2.24,2.24,0,0,0,2.45,1.86l.19,0a2.22,2.22,0,0,0,1.77-2.52c-1.49-9.37-4.24-22.63-4.5-23.61a21.92,21.92,0,0,0-4.06-7.49l-.19-.26c-.08-.13-.16-.26-.24-.37L81,54.44l1.68-1a35.83,35.83,0,0,0,13.51-15,1.42,1.42,0,0,0,.06-1.07,1.43,1.43,0,0,0-.7-.79,1.4,1.4,0,0,0-1.87.63h0A32.56,32.56,0,0,1,77.43,53l-.71.32L76,53.09c-6.69-2.46-10.26-.59-14.76,1.79-4.18,2.21-8.88,4.69-16.57,3.73a43.49,43.49,0,0,1-6.13,6.66m32,23Z"/><path id="Path_89" data-name="Path 89" class="cls-1" d="M30.26,64.75a1.91,1.91,0,0,1-1.4-.61c-2.67-2.87-5.41-5.11-6.2-5.31a16.22,16.22,0,0,0-3.75.1c-2.8.26-6,.56-7.91-1.68-1.76-2-2.28-3.17-2.37-6.75-.11-4.1,5.54-6,9.28-7.17.54-.17,1-.33,1.38-.47,2.42-.9,4.14-3.59,4.69-4.47l.3-.43c.19-.36,1.16-2.52-1.63-4.88A2.5,2.5,0,0,1,22,29.73c1.27-2,5.11-1.94,7.77-.68A8.29,8.29,0,0,1,35,37.1c5.48,2.5,9,8.51,10.41,13.17a1.9,1.9,0,0,1-3.64,1.1h0C40.42,46.89,37,41.7,32.47,40.2l-1.4-.46.1-1.48c.21-3.15-.55-4.6-3-5.76a5.16,5.16,0,0,0-1.26-.41,7.63,7.63,0,0,1,1.5,4.33,6.52,6.52,0,0,1-1.09,3.85l-.12.19c-.73,1.15-3,4.64-6.58,6-.41.15-.94.32-1.53.52-5.82,1.9-6.66,3-6.65,3.45.07,2.76.28,3,1.45,4.35.66.76,2.79.56,4.68.38a18.8,18.8,0,0,1,4.74-.06c2.48.39,6.67,4.66,8.35,6.48a1.9,1.9,0,0,1-.11,2.69,2,2,0,0,1-1.29.49"/><path id="Path_90" data-name="Path 90" class="cls-1" d="M85.85,35.72a1.74,1.74,0,0,1-.56-.1h0a1.72,1.72,0,0,1-1-2.2,9,9,0,0,1,1.55-2.58,7.27,7.27,0,0,1,5.57-2.64h.38A1.75,1.75,0,0,1,93.41,30v0a1.72,1.72,0,0,1-1.83,1.6h0a.74.74,0,0,0-.21,0h0a4.26,4.26,0,0,0-3.65,2.52c-.07.14-.14.28-.2.42a1.73,1.73,0,0,1-1.63,1.14"/><path id="Path_91" data-name="Path 91" class="cls-1" d="M81.75,34.25h-.17a1.73,1.73,0,0,1-1.18-.64A1.69,1.69,0,0,1,80,32.32a10.15,10.15,0,0,1,1.54-4.14A9.22,9.22,0,0,1,89.76,24c.41,0,.84,0,1.3.05a1.73,1.73,0,1,1-.3,3.44h0a6.47,6.47,0,0,0-.88,0c-3.29,0-5.32,1.48-6.26,4.49a6.08,6.08,0,0,0-.16.74,1.7,1.7,0,0,1-1.7,1.56m.16-1.71h0"/><path id="Path_92" data-name="Path 92" class="cls-1" d="M103.55,44.26a1.71,1.71,0,0,1-1.09-.39h0a1.72,1.72,0,0,1-.21-2.42l0,0a5,5,0,0,0,1.36-3.13,4.26,4.26,0,0,0-1.14-2.73l-.17-.18a1.71,1.71,0,0,1-.57-1.18,1.72,1.72,0,0,1,1.62-1.83,1.79,1.79,0,0,1,1.25.42l.08.08a7.75,7.75,0,0,1,2.37,5.39,8.41,8.41,0,0,1-2.18,5.39,1.72,1.72,0,0,1-1.32.61m.16-1.62h0"/><path id="Path_93" data-name="Path 93" class="cls-1" d="M108.05,47.29a1.72,1.72,0,0,1-1.45-2.67v0a10.44,10.44,0,0,0,1.87-5.92,11.73,11.73,0,0,0-1.36-5.41,3,3,0,0,0-.21-.37,1.73,1.73,0,0,1,.5-2.39h0a1.73,1.73,0,0,1,2.39.51,14.88,14.88,0,0,1,2.12,7.66,13.72,13.72,0,0,1-2.44,7.84,1.79,1.79,0,0,1-1.45.77m.16-15.22h0m.29-.2h0"/></g></g></svg>