<svg id="Layer_1" data-name="Layer 1" xmlns="http://www.w3.org/2000/svg" viewBox="0 0 120 120"><defs><style>.cls-1{fill:#f9be00;}</style></defs><path class="cls-1" d="M50.42,22l-18,18V98h55.1V22Zm-1.17,6.83v10h-10ZM83.55,94H36.45V42.8h16.8V26h30.3Z"/><path class="cls-1" d="M46.75,70h6.6a2,2,0,0,0,0-4h-6.6a2,2,0,0,0,0,4Z"/><path class="cls-1" d="M73,66H58.35a2,2,0,1,0,0,4H73a2,2,0,0,0,0-4Z"/><path class="cls-1" d="M46.75,50.3a2,2,0,0,0,0,4h6.6a2,2,0,1,0,0-4Z"/><path class="cls-1" d="M58.35,54.3H73a2,2,0,0,0,0-4H58.35a2,2,0,0,0,0,4Z"/><path class="cls-1" d="M53.35,81.6h-6.6a2,2,0,0,0,0,4h6.6a2,2,0,0,0,0-4Z"/><path class="cls-1" d="M73,81.6H58.35a2,2,0,1,0,0,4H73a2,2,0,1,0,0-4Z"/><path class="cls-1" d="M73,73.8h-7.7a2,2,0,0,0,0,4H73a2,2,0,0,0,0-4Z"/><path class="cls-1" d="M46.75,77.8h13.4a2,2,0,0,0,0-4H46.75a2,2,0,0,0,0,4Z"/><path class="cls-1" d="M73,58.1h-6.7a2,2,0,0,0,0,4H73a2,2,0,0,0,0-4Z"/><path class="cls-1" d="M46.75,62.1h14.4a2,2,0,0,0,0-4H46.75a2,2,0,0,0,0,4Z"/></svg>