<svg id="Layer_1" data-name="Layer 1" xmlns="http://www.w3.org/2000/svg" viewBox="0 0 120 120"><defs><style>.cls-1{fill:#23364e;}</style></defs><path class="cls-1" d="M60,22A38,38,0,1,0,98,60,38,38,0,0,0,60,22Zm0,72A34,34,0,1,1,94,60,34,34,0,0,1,60,94Z"/><path class="cls-1" d="M69,44a2,2,0,0,0,0-4H62V36.5a2,2,0,0,0-4,0v3.69a11,11,0,0,0,0,21.62V76H51a2,2,0,0,0,0,4h7v3.4a2,2,0,0,0,4,0V79.81a11,11,0,0,0,0-21.62V44ZM53,51a6.92,6.92,0,0,1,5-6.72V57.72A6.92,6.92,0,0,1,53,51ZM67,69a6.92,6.92,0,0,1-5,6.72V62.28A6.92,6.92,0,0,1,67,69Z"/></svg>