<svg id="Layer_1" data-name="Layer 1" xmlns="http://www.w3.org/2000/svg" viewBox="0 0 120 120"><defs><style>.cls-1{fill:#f9be00;}</style></defs><path class="cls-1" d="M60.3,64.7A11.7,11.7,0,1,0,48.6,53,11.72,11.72,0,0,0,60.3,64.7Zm0-19.4A7.7,7.7,0,1,1,52.6,53,7.7,7.7,0,0,1,60.3,45.3Z"/><path class="cls-1" d="M60.4,65.1A18.62,18.62,0,0,0,41.8,83.7a2,2,0,0,0,4,0,14.6,14.6,0,0,1,29.2,0,2,2,0,0,0,4,0A18.62,18.62,0,0,0,60.4,65.1Z"/><path class="cls-1" d="M74.8,22H45.2a11,11,0,0,0-11,11V87a11,11,0,0,0,11,11H74.8a11,11,0,0,0,11-11V33A11,11,0,0,0,74.8,22Zm-5.18,4a5.6,5.6,0,0,1-5.22,3.6H55.6A5.6,5.6,0,0,1,50.38,26ZM81.8,87a6.93,6.93,0,0,1-7,7H45.2a6.93,6.93,0,0,1-7-7V33a6.93,6.93,0,0,1,7-7h1a9.62,9.62,0,0,0,9.39,7.6h8.8A9.62,9.62,0,0,0,73.79,26h1a6.93,6.93,0,0,1,7,7Z"/><path class="cls-1" d="M62.9,86.9H57.1a2,2,0,1,0,0,4h5.8a2,2,0,1,0,0-4Z"/></svg>