<svg id="Layer_1" data-name="Layer 1" xmlns="http://www.w3.org/2000/svg" viewBox="0 0 120 120"><defs><style>.cls-1{fill:#f9be00;}</style></defs><path class="cls-1" d="M35.62,37A64.06,64.06,0,0,1,53,42.88a2,2,0,0,0,1.84-3.56A68.22,68.22,0,0,0,36.38,33,2,2,0,1,0,35.62,37Z"/><path class="cls-1" d="M35.62,46.76A64.06,64.06,0,0,1,53,52.68a2,2,0,0,0,1.84-3.56,68.22,68.22,0,0,0-18.44-6.28,2,2,0,0,0-.76,3.92Z"/><path class="cls-1" d="M35.62,56.66A64.06,64.06,0,0,1,53,62.58,2,2,0,1,0,54.82,59a68.22,68.22,0,0,0-18.44-6.28,2,2,0,0,0-.76,3.92Z"/><path class="cls-1" d="M35.62,66.46A64.06,64.06,0,0,1,53,72.38a2,2,0,0,0,1.84-3.56,68.22,68.22,0,0,0-18.44-6.28,2,2,0,1,0-.76,3.92Z"/><path class="cls-1" d="M99.9,29.18a2,2,0,0,0-1.62-.45L94,29.41V24a2,2,0,0,0-.7-1.52A2,2,0,0,0,91.69,22l-5.69.9a68.84,68.84,0,0,0-26,9.59,68.85,68.85,0,0,0-26-9.59l-5.7-.9A2,2,0,0,0,26,24v5.4l-4.29-.68a2,2,0,0,0-2.31,2V79A2,2,0,0,0,21,81l17.77,3.69A34.66,34.66,0,0,1,56,94.66l2.5,2.7.06,0,0,.06.12.09.14.11.21.11.14.07.25.08.12,0A1.58,1.58,0,0,0,60,98h0a1.58,1.58,0,0,0,.38,0l.12,0,.25-.08.14-.07.21-.11.14-.11.12-.09,0-.06.06,0L64,94.67a34.63,34.63,0,0,1,17.25-10L99,81a2,2,0,0,0,1.59-2V30.7A2,2,0,0,0,99.9,29.18Zm-13.29-2.3L90,26.34V71.4L86.1,72A67.22,67.22,0,0,0,62,80.64V36A65,65,0,0,1,86.61,26.88Zm-53.21,0A64.81,64.81,0,0,1,58,36V80.62A67.48,67.48,0,0,0,34,72l-4-.63V31.87a1,1,0,0,0,0-.17,1.1,1.1,0,0,0,0-.18V26.34ZM96.6,77.37,80.35,80.75A38.8,38.8,0,0,0,61,91.94l-1,1.12-1-1.13A38.82,38.82,0,0,0,39.61,80.74L23.4,77.37V33l2.6.41V73.1a2,2,0,0,0,1.69,2l5.7.9A63.65,63.65,0,0,1,58.14,85.4l.8.5.05,0a2.07,2.07,0,0,0,.34.15l.15.06a2.32,2.32,0,0,0,.52.07h.06a1.82,1.82,0,0,0,.46-.06l.16-.07A1.45,1.45,0,0,0,61,86l0,0,.05,0,.82-.52A63.6,63.6,0,0,1,86.72,76l5.6-.9a2,2,0,0,0,1.68-2V33.46l2.6-.41Z"/><path class="cls-1" d="M66.1,43.1a2,2,0,0,0,.92-.22A64.06,64.06,0,0,1,84.38,37,2,2,0,0,0,83.62,33a68.22,68.22,0,0,0-18.44,6.28,2,2,0,0,0,.92,3.78Z"/><path class="cls-1" d="M66.1,52.9a2,2,0,0,0,.92-.22,64.06,64.06,0,0,1,17.36-5.92,2,2,0,0,0-.76-3.92,68.22,68.22,0,0,0-18.44,6.28,2,2,0,0,0,.92,3.78Z"/><path class="cls-1" d="M66.1,62.8a2,2,0,0,0,.92-.22,64.06,64.06,0,0,1,17.36-5.92,2,2,0,0,0-.76-3.92A68.22,68.22,0,0,0,65.18,59a2,2,0,0,0,.92,3.78Z"/><path class="cls-1" d="M83.62,62.54a68.22,68.22,0,0,0-18.44,6.28A2,2,0,0,0,67,72.38a64.06,64.06,0,0,1,17.36-5.92,2,2,0,1,0-.76-3.92Z"/></svg>