<svg id="Layer_1" data-name="Layer 1" xmlns="http://www.w3.org/2000/svg" viewBox="0 0 120 120"><defs><style>.cls-1{fill:#23364e;}</style></defs><path class="cls-1" d="M17.75,78.6a2,2,0,0,1-.33-4,11.63,11.63,0,0,0,3.24-.92,3.19,3.19,0,0,0,.78-.52c.32-.32,1-1,1.77-1.69,1.39-1.32,3.31-3.13,4.18-4.06a2.37,2.37,0,0,1,.42-.35c1.68-1,4-1.21,6.39-1.42,4.26-.37,8.66-.75,10.75-5a2,2,0,0,1,1.34-1.07c3-.72,9.17,2.32,11,3.27,4.87,2.49,11.8,4.44,15,3.12a49.62,49.62,0,0,0,4.35-2.41,2,2,0,0,1,1.11-.34,2.38,2.38,0,0,1,1.72.69,2,2,0,0,1,0,2.83,2,2,0,0,1-1.31.58,46.29,46.29,0,0,1-4.4,2.38c-5.2,2.12-14-1.07-18.31-3.3A29.84,29.84,0,0,0,48,63.48c-3.25,5.29-9.08,5.8-13.4,6.17a15.53,15.53,0,0,0-4.46.76c-1,1-2.73,2.67-4.13,4-.76.72-1.39,1.31-1.7,1.62a6.61,6.61,0,0,1-1.82,1.27,15.42,15.42,0,0,1-4.36,1.29A1.83,1.83,0,0,1,17.75,78.6Zm88.1-7.7h-.19l-.81-.07a20.63,20.63,0,0,1-6.37-1.33l-.56-.19a35.4,35.4,0,0,1-5.82-2.6,32.77,32.77,0,0,0-4.77-2.2l-1.19-.34c-1.06-.31-2.39-.7-3.49-1A6.16,6.16,0,0,1,79,60.37a3.7,3.7,0,0,1-.21-2.9c.85-2.34,2.62-5.43,4.54-6.79l.18-.12c1.4-.79,3.33-.93,5.39-1.08,1.58-.12,4-.29,4.58-.89a2.39,2.39,0,0,1,.23-.22l-.42-.09c-1.73-.38-3.53-.77-4.71-2C86.78,44.5,83.67,46,83.63,46l-.29.11a2.55,2.55,0,0,1-.59,2.32,69.87,69.87,0,0,1-7.33,6c-3.41,2.42-7.32,4-10,4A26.33,26.33,0,0,1,54.4,55.61a23.45,23.45,0,0,0-6.52-2.13,13.86,13.86,0,0,0-6.07.74,50.62,50.62,0,0,0-8,3.56c-4,2-8,4.16-12.13,4.42a12.27,12.27,0,0,1-8.77-2.83,2,2,0,1,1,2.48-3.13,8.3,8.3,0,0,0,6,2c3.29-.21,6.83-2,10.59-4a52,52,0,0,1,8.7-3.84c3.31-1,5.64-1.22,7.8-.86A26.62,26.62,0,0,1,56,52,22.26,22.26,0,0,0,65.5,54.4c1.44,0,4.46-1,7.59-3.23,1.48-1.06,3.67-2.74,5.22-4.07a2.45,2.45,0,0,1-1.7-1.16,2.19,2.19,0,0,1-.16-1.77,2.06,2.06,0,0,1,.49-.78c.85-.85,3.91-1.16,5.38-1.19,2.25-1,6.26-1.6,9.07,1.31a8.35,8.35,0,0,0,2.71.86,14.86,14.86,0,0,1,4,1.28,2,2,0,0,1,1,1.15c.61,2-.08,3.38-2.06,4.22a2.44,2.44,0,0,0-.74.4c-1.64,1.65-4.42,1.85-7.11,2a13.87,13.87,0,0,0-3.63.53,12.54,12.54,0,0,0-2.93,4.63,3.16,3.16,0,0,0,1.26.66c1.07.34,2.38.72,3.42,1l1.25.37.11,0A37.51,37.51,0,0,1,94,63.17a32.31,32.31,0,0,0,5.23,2.34l.57.2a17.51,17.51,0,0,0,5.45,1.13l.81.07a2,2,0,0,1-.19,4Z"/></svg>