<svg id="Layer_1" data-name="Layer 1" xmlns="http://www.w3.org/2000/svg" viewBox="0 0 120 120"><defs><style>.cls-1{fill:#23364e;}</style></defs><g id="_08_Training_Trialling_Racing" data-name="08_Training, Trialling
&amp; Racing"><g id="Group_48" data-name="Group 48"><path id="Path_169" data-name="Path 169" class="cls-1" d="M60,39.56a25.59,25.59,0,1,1-18,7.5,25.56,25.56,0,0,1,18-7.5m0,56.18a30.6,30.6,0,0,0,20.87-53l3.92-3.91a2.55,2.55,0,1,0-3.61-3.61l-4.32,4.33a30.27,30.27,0,0,0-14.3-4.94V29.36h7.66a2.55,2.55,0,0,0,0-5.1H49.79a2.55,2.55,0,1,0,0,5.1h7.66V34.6A30.62,30.62,0,0,0,60,95.74Z"/><path id="Path_170" data-name="Path 170" class="cls-1" d="M60,67.65H72.78a2.55,2.55,0,0,0,0-5.1H62.56V47.22a2.55,2.55,0,0,0-5.1,0h0V65.1A2.54,2.54,0,0,0,60,67.65h0"/></g></g></svg>