<svg id="Layer_1" data-name="Layer 1" xmlns="http://www.w3.org/2000/svg" viewBox="0 0 120 120"><defs><style>.cls-1{fill:#f9be00;}</style></defs><g id="_06_Transporting__Greyhounds" data-name="06_Transporting
_Greyhounds"><g id="Group_75" data-name="Group 75"><g id="Group_46" data-name="Group 46"><path id="Path_165" data-name="Path 165" class="cls-1" d="M103.9,65.79a2.14,2.14,0,0,0-2.14,2.14V84.29h-9l0-.44a11.38,11.38,0,0,0-22.62,0l0,.44H36.66l0-.44a11.38,11.38,0,0,0-22.62,0l-.05.44H5V57.51l19.74-7.39a2.19,2.19,0,0,0,1.08-.84l13.9-21.49h64.22a2.15,2.15,0,0,0,0-4.29H38.51a2.12,2.12,0,0,0-1.81,1L22.53,46.37,2.1,54A2.21,2.21,0,0,0,.69,56V86.43a2.25,2.25,0,0,0,2.14,2.14H14.45l.12.33A11.36,11.36,0,0,0,36,88.9l.12-.33H70.6l.12.33a11.36,11.36,0,0,0,21.44,0l.12-.33h11.63a2.25,2.25,0,0,0,2.14-2.14V67.93a2.15,2.15,0,0,0-2.15-2.14M25.3,92.22a7.11,7.11,0,1,1,7.11-7.11h0a7,7,0,0,1-7,7.11H25.3m56.14,0a7.11,7.11,0,1,1,7.11-7.11h0a7,7,0,0,1-7,7.11h-.15"/><path id="Path_166" data-name="Path 166" class="cls-1" d="M114.47,44.65H80.17a2.14,2.14,0,1,0,0,4.28h34.3a2.14,2.14,0,0,0,0-4.28"/><path id="Path_167" data-name="Path 167" class="cls-1" d="M109.19,55.22h-29a2.14,2.14,0,0,0,0,4.28h29a2.14,2.14,0,0,0,0-4.28h0"/><path id="Path_168" data-name="Path 168" class="cls-1" d="M117.12,34.08H80.17a2.15,2.15,0,1,0-.09,4.29h37a2.15,2.15,0,0,0,.09-4.29h-.08"/></g></g></g></svg>