<svg id="Layer_1" data-name="Layer 1" xmlns="http://www.w3.org/2000/svg" viewBox="0 0 120 120"><defs><style>.cls-1{fill:#23364e;}</style></defs><path class="cls-1" d="M98.91,49.71a4.72,4.72,0,0,0-1.09-3c-3.41-4.27-15.44-6.26-37.88-6.26s-34.48,2-37.89,6.26a4.7,4.7,0,0,0-1,4v0l3.81,20A6,6,0,0,0,29,75.41c3,1,14.17,4.09,30.91,4.09,15.93,0,27-2.86,31.05-4.08a6.06,6.06,0,0,0,4.21-4.65l3.8-20A2,2,0,0,0,98.91,49.71Zm-4.37-.63-4.79,1.47c-7.11-3.31-29.58-3.35-29.81-3.35s-22.54,0-29.73,3.32L25.39,49c1.55-1.52,8-4.53,34.55-4.53C86.77,44.5,93.07,47.57,94.54,49.08ZM83,52.83a5.66,5.66,0,0,0-2.34,2.88l-3.08,8.35a1.82,1.82,0,0,1-1.64,1.24h-.11c-.09,0-9.62.5-15.79.5s-15.7-.49-15.8-.5h-.1a1.68,1.68,0,0,1-1.63-1.19l-3.09-8.39A5.67,5.67,0,0,0,37,52.8a160.73,160.73,0,0,1,22.91-1.6A159.26,159.26,0,0,1,83,52.83ZM91.28,70a2.08,2.08,0,0,1-1.43,1.58C86,72.76,75.33,75.5,59.94,75.5c-16.17,0-26.82-3-29.75-3.92A2,2,0,0,1,28.8,70L25.62,53.29l3.74,1.15a1.94,1.94,0,0,0,.74.23L34.45,56l.1,0a1.64,1.64,0,0,1,1.11,1.05l3.08,8.34a5.67,5.67,0,0,0,5.34,3.87c.74,0,9.9.5,16,.5s15.21-.46,15.95-.5a5.75,5.75,0,0,0,5.32-3.81l3.11-8.41a1.63,1.63,0,0,1,1.1-1l.11,0,8.82-2.72Z"/><path class="cls-1" d="M48.57,53.8a2,2,0,0,0-1.93,2.07,2,2,0,0,0,2.07,1.93A8.72,8.72,0,0,1,55,60.31a2,2,0,0,0,1.42.59,2,2,0,0,0,1.41-3.41A12.54,12.54,0,0,0,48.57,53.8Z"/><path class="cls-1" d="M63.44,60.9a2,2,0,0,0,1.41-.59,8.54,8.54,0,0,1,6.09-2.51,2,2,0,0,0,0-4A12.52,12.52,0,0,0,62,57.49a2,2,0,0,0,0,2.82A2,2,0,0,0,63.44,60.9Z"/></svg>